<mxfile host="app.diagrams.net" modified="2021-04-15T23:57:27.809Z" agent="5.0 (Windows NT 10.0; Win64; x64) AppleWebKit/537.36 (KHTML, like Gecko) Chrome/89.0.4389.128 Safari/537.36" etag="EPIHL0OR_6zORvmiZ1G2" version="14.5.1" type="github">
  <diagram id="KBXT4CFdrKc7kpySQEwl" name="Page-1">
    <mxGraphModel dx="1774" dy="976" grid="1" gridSize="10" guides="1" tooltips="1" connect="1" arrows="1" fold="1" page="1" pageScale="1" pageWidth="1169" pageHeight="827" math="0" shadow="0">
      <root>
        <mxCell id="0" />
        <mxCell id="1" parent="0" />
        <mxCell id="8hDO8wCRMMMEZkLBjDl_-101" value="" style="group" vertex="1" connectable="0" parent="1">
          <mxGeometry x="240" y="130" width="700" height="510" as="geometry" />
        </mxCell>
        <mxCell id="8hDO8wCRMMMEZkLBjDl_-10" value="" style="whiteSpace=wrap;html=1;fontStyle=0;fillColor=#C7C7C7;" vertex="1" parent="8hDO8wCRMMMEZkLBjDl_-101">
          <mxGeometry x="147.36842105263156" y="408" width="239.4736842105263" height="62.6875" as="geometry" />
        </mxCell>
        <mxCell id="8hDO8wCRMMMEZkLBjDl_-9" value="" style="whiteSpace=wrap;html=1;strokeWidth=1;strokeColor=#FF0000;" vertex="1" parent="8hDO8wCRMMMEZkLBjDl_-101">
          <mxGeometry x="147.36842105263156" y="207.1875" width="239.4736842105263" height="191.25" as="geometry" />
        </mxCell>
        <mxCell id="8hDO8wCRMMMEZkLBjDl_-4" value="HTTP&lt;br&gt;Server" style="arcSize=10;whiteSpace=wrap;html=1;align=center;" vertex="1" parent="8hDO8wCRMMMEZkLBjDl_-101">
          <mxGeometry x="313.1578947368421" y="302.8125" width="55.26315789473684" height="42.5" as="geometry" />
        </mxCell>
        <mxCell id="8hDO8wCRMMMEZkLBjDl_-6" value="Retrieval" style="arcSize=10;whiteSpace=wrap;html=1;align=center;" vertex="1" parent="8hDO8wCRMMMEZkLBjDl_-101">
          <mxGeometry x="170.39473684210526" y="302.8125" width="55.26315789473684" height="42.5" as="geometry" />
        </mxCell>
        <mxCell id="8hDO8wCRMMMEZkLBjDl_-13" value="HDD/SSD" style="whiteSpace=wrap;html=1;labelBackgroundColor=#000000;labelBorderColor=#000000;fontColor=#FFFFFF;fillColor=#000000;" vertex="1" parent="8hDO8wCRMMMEZkLBjDl_-101">
          <mxGeometry x="239.4736842105263" y="420.75" width="55.26315789473684" height="37.1875" as="geometry" />
        </mxCell>
        <mxCell id="8hDO8wCRMMMEZkLBjDl_-14" value="Node" style="text;html=1;strokeColor=none;fillColor=none;align=center;verticalAlign=middle;whiteSpace=wrap;fontSize=16;fontStyle=1;" vertex="1" parent="8hDO8wCRMMMEZkLBjDl_-101">
          <mxGeometry x="156.57894736842104" y="428.71875" width="36.84210526315789" height="21.25" as="geometry" />
        </mxCell>
        <mxCell id="8hDO8wCRMMMEZkLBjDl_-17" style="edgeStyle=orthogonalEdgeStyle;orthogonalLoop=1;jettySize=auto;html=1;dashed=1;fontSize=16;fontColor=#FFFFFF;" edge="1" parent="8hDO8wCRMMMEZkLBjDl_-101" source="8hDO8wCRMMMEZkLBjDl_-16" target="8hDO8wCRMMMEZkLBjDl_-13">
          <mxGeometry relative="1" as="geometry" />
        </mxCell>
        <mxCell id="8hDO8wCRMMMEZkLBjDl_-16" value="&lt;span&gt;TSDB&lt;/span&gt;" style="arcSize=10;whiteSpace=wrap;html=1;align=center;" vertex="1" parent="8hDO8wCRMMMEZkLBjDl_-101">
          <mxGeometry x="239.4736842105263" y="302.8125" width="55.26315789473684" height="42.5" as="geometry" />
        </mxCell>
        <mxCell id="8hDO8wCRMMMEZkLBjDl_-20" value="Prometheus Server&amp;nbsp;" style="text;html=1;strokeColor=none;fillColor=none;align=center;verticalAlign=middle;whiteSpace=wrap;labelBackgroundColor=#FFFFFF;fontSize=16;fontStyle=1;fontColor=#FF0000;" vertex="1" parent="8hDO8wCRMMMEZkLBjDl_-101">
          <mxGeometry x="202.6315789473684" y="228.4375" width="147.36842105263156" height="21.25" as="geometry" />
        </mxCell>
        <mxCell id="8hDO8wCRMMMEZkLBjDl_-21" value="" style="shape=image;verticalLabelPosition=bottom;labelBackgroundColor=#ffffff;verticalAlign=top;aspect=fixed;imageAspect=0;image=data:image/png,iVBORw0KGgoAAAANSUhEUgAAAf4AAAIACAMAAABUwf7jAAAABGdBTUEAALGPC/xhBQAAAAFzUkdCAK7OHOkAAAMAUExURUdwTP8AANdLMf9/ANdOMdtNMdxLLtpOMdhOMdlNL98/P8xmM/9VVdpMLr8/P9pLMeVMM9pNMdpOLthOLtpIJNdLLtRVKtdLMddOMddMLtlOMdpINtdLMeJVONdOMddOJ9RVKtpOMddLLtpOLthNMdpLMddLMNpMMdhOMdlOMNRVKtBFLtpOMddOLt1MM9pNMNpNMd1VM9pRLddOMdpNMNxRLtlNMdhMM9lOL9hMMdpLLtlOMtpNMdtNMtpOMdxLMNpML9pNMtlMMdtNL99KNdpNMddOL9pLLtdOLdlNMd9PL9hNMNpNMdpLMdlOMdlOLtdNMdlML9hNMtpQM9lOM9pNMddML9lOMNdOMdhNMN1NLNlOMNpMMddLMdhOMddPM9pOMdlPMNlNMdtPMuFLLdlLMNpNMdpLMdlOMdlMMdpOMNlLL9lOL9pNMdlNMNlPMdhOL9pOL9pNMdtOMdZRM9lPL9pOMdlNMdlOL9pOMNpPMNhNLtlNMdhOMtpOMNlOMdpNMNlNMNhOLtlOMdpOMdpMLttMM9pOMdpML9hOLthOLtlNMttOL9pOL9hOMdpMMNlOL9pOMNhOMNpOL9hPMdlQMdpOMNdLMdpOMdpOMNlOL9pML9pNMdpNMNlOMNpOMdpNMNpOMNpMMNlNMdlNMN5KMdlNMdhOMNpMLtpOMdlPMtpNMNtOMNlMMNlOMNlOMdtPL9lNL9hNL9hMMNlOMdpOMNpPMdpOL9pOMdtPMNlOL9pNMNpOMNpNMtdPL9hNL9pNMdlOMdpOMNpOMNlOMdlOMdpNMNpOMdlNMNlOMNlOMdlLNNpOLtpOMdpIMNpNMNpOMNhOMdpNMdhML9pNMtpNMNlOMdlMMNhMMNpOMdlNMNtNMNtPNNpNLtpOMdpMMdpMMNpMMNpNMNlOMNpNMNhMM9lNMNhPMNpOL9ZQLthMM9pOMdpLMdlOMdtMMdpOMdhOMdtMMdlQL9ZQNdlMMdlNMNpNMdhNMdlNMdlNMdxQMtlOMNhOL9pOMdtNMdpOMUeprQUAAAD/dFJOUwAB/QL+JCyM1MwIBQP6BPkK7fv1B/wG6fjw7g7vCRoNDPT26y7y4rToiRIL5PEeY7UPHOquFqsUt0PlUdlWiyVGOMUrGJv37CekEJ5381jg47FCIzfP3I80shdeU866LXFKgEcRL5HfPpAqG6KhjmfH0YpOGTCmv+eTWiGBa3h8qLjGld7LMmGn4dtmQVu5P0vds5JXKW/VaFR1wVxpo8pFvciHeh9tzeagPZhVdER7QGCXSYJ+Tby2OmWErUwgO3aWw3/TqpSfX4iwIjGvFcKZcslQcIOcnTWFWU8d1tC70mp9qY08eWTXJiiG2NpdYsA5NhO+c5qlUmwzbqzESA7iNIcAACAASURBVHja7F15fE3XFr6SmEIkuQlBEpEQiUTEPNY8pTHEUHMQQw0xBU8NMcRMa4yp5qKqKCmKouanvFJq1qqf1/LrrO95bdV7bX/74UpyhzPsfc65d3/n3vP9vc6669vfPcNee+21TSYDBjwEJXqlD224PnHD9ZPTb1Qedurmxvv3N9481b3yjeknV21IXH9tZ3rtEsYouRciKo4bnTNqRLWr3cr4EFn4hHW7Wm3EqJzR4ypGGGOnYwSk95/a+M/tgUQxAovWafxV/5XhxljqCpf2pJ3bEkI0Q2xG27T6l4xxhUfwxfMP7sUSpyC2b+HeF4ONMcZE+NBpWXfNxMkwr85qt9PXGG0o1H7yYIsfcRn8MxpfM94FECiQfmTH64QDHp77dmUBY/x54vtV2YGEI9r0fKegoQKfed2xWcsIALpNWhpgqOFarLxyrzSBQevFaT8YmrjqE//OrhQChyH7xhkTAudP7K/NjySgaP/7HSMt4ESUOrgxgUCjzIilxQydnIFi+8+FER2gbNuBxqqhxvCu3yqQ6AYVHnc2MgLaYfjXKURnmJ1TztBNCxQfl12S6BAlOx0rbqinEsePNiC6RZUPthkKqvjae6+vD9E1vGakGjMBZSj3Y03iBgj5vKWhJTP6jfQnbgL/ti0MPZnQdDFxK9TbY2hK/co/P4a4HbquN5JBNEhuV4W4JTquDTXUlUHLUe2J2yK6cG1DYQnUbRxE3BqR/4gzVBbBoKPtidsjYUp1Q2kBhB4oQzwCZXPKG2rbIX5aIPEYVFgbYChuBd+0EB4ymLOPnFjCJa08cZVRF5SLAos68pAgNu3ZVo1sTk+ASl8Ywj/HfzJ4DH/Ujedv4MP8XgF/9TC0N5UbweXpW7SL5ecvc/wE8Dnn6YtBvtP51O0uL2X5/ROc80DTPPoT4L0hfApx9uYG0Ir3JGDZE48V/+I6PkNeumHewwcg1fBrRc9M85zy4jPerfMXXzsgZAFKTvLAJkJ3eK3reaXmB1ELIw1UaamHid+rDrexXmUVRggBwXyPWgpMLMttoJdbhZGJkwcOPO8x4nfZzG+Yr1oX3nYgQOib6RHiFz8ZxW+Mw45bh1IYaiEo6DcP2BZysQ/PIU61iWU+2ErgnFfdXHzvb/x4jm+WbTT30FaC/dp5u7P6Vf/Nt9Cil204fQgcfq3hvuqv4LxBP9EungV48pPANW4qfsQIziPb3D6iSgQRbcu7o/qPuLdhe2Qf0l1I+Um3V9xvujeA+yb9jxyC2oQpPzF/7WZTwMyZ/Me0iUNUEwgqTrtVY4CDAAurtxzDqgMrPynb330m+zcAmjR4JTkG9jmu/MTnjJt0h4qrhzCcnwpE1psgIybZHdQfPxtiMJsJhPYKtPykWz/9q987CmIoM4RiS8aWnwRN1rn4xWaBjGSiYHgPwfUng3XdGKrcTJBhjI4XjO8WuvzktI63AhyORRnFVsIB7oWXn7zbTLcrPDgnLhwWqTvCl59EpepT/Wk4LRmriM2h9dBGyGe3DsUv8RhoBD8Wi/Ix0QNO6W4JIGIG0vh1FgvzmC7kJzE6WwOuAdWZr43o3eOrk1ZSfXTVHn481jv1vnikn+hDflJJRxnA/WAdut4UD3WeTuQnCU31ov4RtOMXksRjTfbXi/7mefpQ/wpc5kQqWr08/Z9OAFfpQf0zcONWRyrcRkQ/eBtf/bF4o5YjFW94tBrXrV1bv/ojuPgFZgHeNEslQx6pwnNIZxdXsQ2GLgEqvgPxmSm9caa+csezMxNdzeUW8C6wYmcR1Q+UeWClKHW8rKrJ9d2J5sOeCuEbA/nBVFQm7AEK/aZUNdXgsKrVCbQXXPwhzO/lWjJxH1emYdhKk+kPHnz6BiCqH466aWKwXOSKmo34L3l6JZ8Dpzb74qlf6kPU2fJvcqFPVuL1yNMLAzjVs8TAVQAW/wg2WfKzXOzBCo4SOPfsws68KJ0FKwDwfhk3VyZfLDWM2ec/w59dd4Abpx1Y8//PgFOl+2WjT2d+8VsasXJ8381CUn8UcqZ8qHz8zRldTrNcNpEjq7E46t+AXii5LU/gPJvHLZbUW22utA6gqN8OWn1C0S0tnKnpUMnxlqt28uV1BUP9qdjqE5rjs5ezOOwOUik0GkH9NT7g8idRkCjE4C82QmW2WCt4jeOvfrPW4OqTCzQ0miu46bhPd4K4HwZ1oSa6+oSqRpq+08PqvJRLJ+7UJnJuART3E7z6hOrYdF/qFvP5T9zL/Lmt5nogcLDrR+AQ82SbrkBiMKW3OfmXdAX4b2/mmP4v8Jrr+fYw9RvLNE2LouPSgtLdwfxLIJpD7OAnP4/OWAOe/m71ygx9wWtSkqHrRLHd6oohCPKTM7zUT+TB1lK7M/4l6gt+omRDN4tvZHUFSEvgn/mo/5aZB1kfy4d8RDXaC5pT0glIoHA223qlFaQhuP/7PNRvwqlT55EXBQa0Bdo9aQnto3D2h/UFr4NMbcpecL368UU4ke2UW2JA2R++LS2jufK+Emw6RBUBkZ90DXe5/FncUl25z98SdMvtjakpbZf1NUnBx6IrMMLV6qfx45p34FnodzTm9AtjX8n6SrexrwcjP5nqWvWXmPlRrZ8XRRLN6e8dqEkNkqvcXGdrD1Tg5nfYleoP59mw70h+HDR9+YZq90LrbWv+ACiz3cCF7R9LZfBkutUqEord+QXpeTWV9hQdYGu+G2ll47LrNn+d4krUulNPS/n8bwBDvXIlpjkEVmuAYa5S/zxfnpuYSo1qsjA7KulqiZ01WD/4L1yj/njOBR4hNjes3LLbVRZqBaU8VbFfOqyLJX+QS5p/BfBe4i9rE47c9vwsJnKXJTx1d7AOxNK/iCv2/nEvcWpjYpl9b2Ui94aEp2aqtwc4Gx87X/073ElWsA3otrT1G0zsksWn/gscrXeByS/TxkYD/K0Cd44hdiFlS1p3ZuNXS9TRckfjDWjyh9R2cn3PYv4cY+1iOiFpzdgMN1XU0UJHY7yjoKq5bao/D++yvIITWKsXxRIJgQJ7qoP94fT/rzPVr4hwPkcD+6jW0CYJaNBKxNFGIeNNcPK3buE89X0hVrjH2IdVQqJ/OPNS6BKWpEp3OPnJGOd1fpoEQdCxfEeij+w3zF83wiVcXr8IGT/Bk18gPaER9qPObqt6iRqzn4RcWNBPhqBtXcD9jT5NnaN+aEcMfmsdQxOfjwxnpin8OT9F2Lgr4O2/oLwbrvPlY4VjaJMpU0RUSBFyJFI1ANjAWjBDoR4nUB50AucaxosdyXNIAVGhp39QKWHbzojyeznh5MfguyjshBI580VsHyhgKvT0nyFW+BKNqH8R7Tf+fYDCLVJoy+Yalumagqd/OzFbyCbW2vf9KeSHQm2d4K4DkRqELiZtnv6PxGwnQ8rvv1Jb9b0zYKgVFgywk2ZffkJP/yjRp2loaUj9/9K27eMqHGaNBAMcreUKiEPJ3wRx256Q8mtb+L8N6GC+TMEIv9TyHehwIs0NcdtFmPJH19BQfqD9LGKlm4LLEQoTYEsZcofxkZj699RO/VQgWmLPc6HmLGaF+a94f7s8apyEMWoz62uaLfQNAWI1QCTIcQK2W5QytqsgeEnK9i1Q+buV0kj+t5FYLRQJsrrAsk9lpYy32voZKTkpWgCq/0mNyvuQDmSOFP1PC6y+7FdK+aCtH+kSmjOg8kf30kR+qLP5shmKEUqGKqV8iTLp8xzDS4Lqf1ML9W9DrWmL34grHGybKydtM/M3hyutDuYLr7kayD8TitL3onFmOthOV076U2s/Y2SM64PKT06rVx8rqT1EIlKH7sIqGh5PsfYj2znx76j6N1KrfkBHKD67JEK1P0M0REXe26aIL03OOhFV/hS1u/4GYPFpKBGq/ZEyG1XQ/sHakexGoeCJqPpPV6f+l1FQbKLiJWK1X/NfoYJ3Ceu83y+y5tNQ5Y8crkr+VlhsJI/jbWJr21pVxaNVbVMDiirYMFT996kZhC5mLDKLJCv0bQv+Oqn631t9+vfVUy2UPfyOqxiEkVhc/KXzOH1sjHurkr9xviOafRODElD1v6V8DJLA8lkx0uH+bvO3T1Yl/5v5nr5lnikiwVxQ8RhkgVGZJx1ujrVtPXXfvFY93qg6JoYGour/stIh6Ae2hckcJx2vTdp3sjr5k/I9xVFdsBtVfq90hUOAlsuW+wbrYWWboLLJtW/eX5+yXDQ4BVX/s8pGYC4aj3/JBJyszRePBSGsifMOqPL7vKpoAGLAaJSWPbTM6jC2oWrln5PrqZXCEiEcfKKEfzM0Fn/Khjwmz3aZ6jr3vIl/O32ujFtDydpXXzQSDWVDzu/xtVv1Smfeoc6pes2SqJoF/Q+NQ5h815K8+vygQarlz0vj0785hweh6s/+9n8NjQJF6VIO8/taHHmH+jIsHaBW/bF3OKpqRqOwUD7oxFzbiurl3/PCVQhLcUQD1Mw/68LfKDQGVSiO4s3dnTNBgxq33ENdmfYK7EW9/ceyka8erUcCud8r9TWQP+6FryyWi7zHgMpfJoKJ/Fo4AjTtCrdZTGdqUeBcwN/ijK0j+EDU2z+NhUWxjmjh96EJu7zFtr8W8ufWeo9mu+oQqPwpLEf9rIcL/zpV3M/v2KKaqJ+b9mP8L/VAzf2wtLmBa1dnputU/rzkcqA28r/IeRdivOwsqPwMN8UeuOBj6AJ/+NT0Q23UN7W1/HJ1xsuSULd8vU9NoR5c7JT7FYo+fU5o1dXIsss3WunfRq93kMnUBO79FUbZpnoCIbM0Ut90/fkvf8d8XaYfpvw+tF3OKsOF/hll5D3/z96Zh9d05nH8lVwlN7nJjSWSiASJNSHWoKLUFpSxq1CUULRjeEYtaWuJrYraS2prtCaU6EwtpWOsTbVqtDWMp2YIXaz1YGifPsO0Z+69WW9yl3PPyX3f7/ve9/v/Ob/v/X1yTs67/X5KbJvywp9ftEdDWdCvQR//H1WO+mrAOb+mMvPfe9CwWd0H0CTPL/wT6OM/U93Y7zk44wvUrt6//7dyo0/iPHlk7NQN9PFXV+0nA873PrWJPzSs/PAPs4XO1nDladCP/2aq3l1+cL5Vb1WvXX70SZAtDzlaLp2Oib+6mlp/eOeVphAmsn0C7dT+fwNPKqpcBiXAuf6WDX7b6l1HTZdmYOJ/w/2i+WE406aHbPDbNjtqqw6FWu7lN7fO+8N5/oINfbLFEjtcz5sDT24HRtF4X60dGOG39unpp/Hae5j4Te5GRtvgLPcxM8JvbVi7XeO1RtATn8fc+K4M53g6I/q2U1sZel4dgBqsboMjkKaywj9Bz99eR9BtH7dcusarUhAVxgp/RUv0dM1Xb8XE/51L03fg/D7Dij4xKk6bd6peMIRTrivP4/D8dmKGn6QoymPNF9eKwOTvqtjDRTi3LYPY4R+sKHe1X30BE7+r99kSOLfH2dG3zoAd1n71Mkz8LrYvLcJzm8UQ/xpFOar9an/QA39xHO3yighkiP+s6/+U7vQCJv6LTg2Ph/M6nSF90l5R9HTDO4qJf4kzvw/wvK5liT9OUWJ0XO5fA5O/sx4fT8E5DanJEr/Z4KerRBDonj9nh1bXwznNIEzVr4muy89h4nfSm6YpntPNbPFfSdB1ee0QTP6OS31MhvNpiGaLf80dfdeDzvsnOjR7Bs5nAFv6ZKlOA9sw8Sc58hoIV8/Fw8oa5a9B9/Vd/wATf0QwH5OU7RjjN+vrCEKC+2Dy38nFlF93I2P8ZL/O60E3fDua+LsK5/IAa/pkp94/H0z8DgolvYTn8jpz/HpXHDph4jd0LeM0Ec/lN4R3NQfd8fd5Gaf/g/MY5c89fluxIUDNLe0zCG9vUiv+6ZPFmPhDS69lTMPzmC0A/t6Y+JVRpXz+F8/iIAHwjwbFnwn/ljIZBcB/CRR/6e7m9eEcDhaAPqkAOu+3AP6vtJsI+Ml20Mf/ZTuXgE3oJguBH7TMj/K2nct0PIOPhMB/CBT/RDuXI+D8hYQJgf91UPwL7bYl4dX0CBCCPhkAir9KfAmTeBXcVZfxBVdHUPx2jdEAG9D9LAZ+Iyr+OSVMjsSz114M/CQKFH/Jxq6AhYimCYL/Jij+2GKLLQDtNRcE/wzUt3/xxM9ePHOhgtAnSaj4OyEvSwaIgn8PKv7iHve/4JlLEgX/P1HxF3f1zsUz10gU/LtR8ecVOgwEbD6TKQr+paj4QwrP+iB2HxBl2E/WouIvaoq9CdBblij4P4LFX9jVtxGgt49Fwd8OFn9hk7K2gN7iRMH/NCz+wq6uiAXoTouCfxEs/vr5BnshehsmCv4usPgL+hQ9QrQWLwr+irj481fVngN0ZqggCv7TuPjPwc5L1RGFPjmCi/95m8GTgM5qCIO/KS7+F2wGmwE6aykM/ku4+FNtBtcDOhNmuZ+8iov/qs1gVfm/34vqiIu/ntVfa0RnfsLgj8PFr1ibIw+CdGaWk77e11DYFcmXRcHfCRi/9ZznbEhnT4iCPwcY/waLv12QzgaIgn8zMP75Fn8NIJ39SxT83wHjtw78/wH7XhJCx4Hxz7P4GwI8ISmA+gPjT7b4w+w1u1oU/COA8YcSEozpbL0o+KOA8fv5k2GYzsKDxKDfS0FWG/IiqLOKYuAfBI2/B5kA6kyQcx7DofEftTaqhdQnYuBvBI1/KvkrqLP+YuBvBo3/HuiUv6I8KQb+mdD4NwD2bS5QCxHoR0PTV06Rz1CtdRABf3ts/BdIK1Rr6fLLz+tKwv02yRUB/zxs/KnkCqo1Q2v+6ZtN2PgzyFew3jbJnV7e1gzyLqy3nvzj/yM4/s7AC5Kh/K/65IHjD4A841OgCbzTbwFO3/J5vQTX3ETe8Wei408G7OBWpPq8H/Jfjo6/L2kI7O4a3/THmtDx7yCRwO728I3/Hjp9JRTyfG+hIqtxjX8kPP4+pAqyPa6XfaL94PGbiAHZ3hWe8R+Dp6/4kRBkewaeqzsm4+PvTupB+6vEL/2/4NNXmpAUaH+RZm7xJ3GAvyVkQd8SmsUr/ZeqcIA/gYzHNjjEn1P873FAX1kF/4Gylk/68ZE84L9JroI7zONz4v88D/SVPBKAbpHL015h/bjA/w7prMjH3weXevN1ArfHbJF+xx/9avX5wH8Af01aWRLIHf7HfNBXDpJUfJPreKMfU4MT/GfI915/wUydPTdZ18JSyljO8JdD396Q7d02D/L6EZzF3u8w3aSW9XlY8fPiVZpvcZIv+pfq6kpY1SnzE/9u/YcX7PWqWyfJIa+/YYoW7R/u/aSZpiWG6uO4wj9d+6Ny/9m7XYr2tw/wOprXKMxPpNrlZuCb6e94vAduHk+DP21LfSkjT3WoaP8z13gdTTa56/UYpjZlxkX/OT+3r0f3mMzRjM9lTxO0o8G+c03L3qiC96eOXiGjFQp/Y47UtX2jjao3GkZEc4N/vyep6dtqzuiuTm501Ptk0sgD7wdZ6DRVwYtm9VT3RchNlc/b4eqSYkhefOyDxq7uNN/7ZB6RgRSGl11cJqz11Pfuu38NfMgH/SAVR2ar505atzPG3Z0CY70P5ghpTgH/D26zZnkNbHFdW7rJES7w91YxnK+l6k7/pgCmNqGx07tlmKof3HrqqY3Oh8wneDjwGxfifjivUhRKgYdbwtA45ZWj+kcHD81e3NfZIBVetRyflw4/UXI4r05dKTyW1uJ5NE54b/Xsp0e//UPn7mVu4rcMHv/XDt58/Y9d03JY6ToFLFctcTZSiGPo4fHPDxw66/c37ZcKGqK393rF/ldXGbFnuNbK1P4LKGD5iVDakKyxOUfNAb2TSuThV+yl37f6FFsd/+nunWYd91pJg8pcS6BKNAI1idGeicZZs5OG5L8HdiHTr1mwa3ZmgzErv9R7swwaVBpZAs2isrL8WG9uV5x/P8+kfItL33+15Vtq9ZiPymV+8jaVo5eZtF4zyqry2K8fNu3NWrD4J8xOG1ZuN6PTXPE3SyRK7TxyiJRqtalLhYn1g9xMB3+AhKpeY6ggMRitsShtTOskqapVPJ1ztztswSi18fxKYlUrSkeE5tmCzaUTTJyuzN6WcQcdIL/Yop2ihP+EBKtO2ZSAXLRFm0wpmpImyapaN6L08Cs3bOHSaOHfXkGyVaGztHh8YAt3i1Y4Hk/r0VdMS1o4BuavrVGrPboqTNJ1q9do0QgJzg+YS+3xPyvpulPrPrRg5BVEnE4Nf1QbydeN9lCDsaUgIsVGnnskX9e6Ta8g2IaCkKPp4febJgm7FMW+eoXjcJo9RzrLwZ8rUXwSlaKtczSLkN2TjJ0rjGKZvdiiqBsp4k+RX3/OdZ0iiJ+KoqZTjKpMkpSdqSnN3hrFjbKW0sRfMNcoVVZnaGJILAr7NFX8C8wStEPR7fb+TVHceLotPSZK0o5UM4EmBL8Sm2bp9nL0uyZZO9BxqhCSS0TuSTWyskS+/stqBd1XcMkv8M108fNWqY2GalHupru0ROw4yvgNWZJ3KaVTRvBiidj+EZSDJ4yVwO2URbmhXqTd5HtbyviVTyXxkhqbQDn/DezCz6GNn5dSTZREve3Xdbvwy6jj71NRQi9SIvX0T7CLb6bfdixAbvwrVI86tJMfYrR3sJA6fuUPknvBmI9+O60ppSxMpI/fcFiSt6kb/dyXbo6bQ9+CEtpUorfoLoPUl26PFs3AgzIlUMIn4+oyyHzr0i7usOD/rKTfawiDvFcuY2MiC/yy5It/MxZpr1TGRxoT/PV6+Dj+p5ikvV0ZH8a6TIxcru3T9IczSXodB1MuB5k4UZJ8mf7H4UxynurASjYb/Epv36U/MJZNyjc78NKREX4/ny360TiZUcpfdeRmCCMzkT66+GPcyCjhdxzaSWfkRlkf44v0/Vuxyrfj2ZaVrOwo/X3x3OcuZul2/N/WHM7M0I++R38fs2TXNTp2tJyZI+VzX6O/m12umzmxNIudJZOPlfxcyi7Vtir+jtTVj52nqpV9SgwzXd1pp5EZipTwGun0lZQpkyO+bjjF/2V1mR3RZXLRNvqKTI/oOujig/SGTI/ocnW8pnEVmR+xFdLL1Xi0rUyQ2Ep1OR3xoUyQ2Nrket9piMyQyOruZnF1tUyRyGrlZjI6R6ZIZJ1zgz+spcyRuJoZjLnxXIqK3O+r6CGTJKwMA90vRW+UaRJVW1XsRNgk0ySq1DTSM0bKPImplGpqNiKtkYkSU+qq6YySiRJTb6nbh/iuzJSI+lXlNtREmSoRpbaQZnwEfW8XKvmUPqOf4SgzcMkJHzvm+QT9DJ9Sba6FSeIXDb8pWr27nhK/aPg96Z83TeIXDf8oT+wdkPjFwr/cI3t7JX6x8Gd55q+yxC8S/jwP/b0u8YuEf7iH/sJ2SPzi4E/wuHb2NolfHPzHPDY4to7ELwr+es09d3hK4hcF/yENDh/Wk/jFwB+hqWfmPolfDPz7NVlsHinxi4A/paY2j3+W+EXAr7Vkeu1YiZ9//DXitZrcIPHzj/95zSbNDSV+3vE/adTucp3Ezzv+WTpcVusn8fON/w1djbIzJX6+8d/QZTP4ssTPM/7cIH0+0yR+nvG302u0gcTPL/4vdBu9Zfp/e+f+FFUZxvF3l9Vid1kWEAGRuCOgroIoF7kKiiuKJiKIGIqA4gWTEAxtHJVLiEiNomIqXsAbNVI65AW0mrymeZlGLW0SzEpnnMoxq5km+6GZZpo0Fc553uc9+3z+guf7/e455z3P8553KX5R47eVwNUCil/U+AslqDRoCMUvZvz+kvxB3gKKX8z4B0lSqn4hxS9i/NOspKl1NcUvYvz7pCq2jeIXL/5bkhW7xIviFy1+hybpqh1L8YsW/y8SVmuYRvGLFX+5XspyKxwpfpHit8+Vtt5oil+k+HdKXK/bZIpfnPjvaaUuOJziFyZ+TYv0FZ+i+EWJf6QMFQf6U/xixL94jBwlr6P4xYi/Xp6ap1D8IsR/XqaaE+hfvgTAaahcv9lWMhc/M+S7ZzWTu9g5KeMjy/gD+YubDVo5lyznbMlhzDjnyrtk/Ygsxsx0md9YVNvJY7ysUcn9xhpsRy5jxbtI/o5FPdmMlesQHaur5DNOmkEalsaF5DRGdmtB4mcpfclrfNgdgxpYvKUht7GhjoUbWGWT3djYDzivVPUjv3FxVgUYPxszmRzHRKQrA8XHgTzHg2c89H6VGjIdD1Hw+5XWkutY+JbDdjXdOxwF+1kjYwJHM7YbeGxXDIzkp3gTtr2bjfy8+HoMH8kp/LZ+LsMW/0FuVvgf46U5bhQvzUexxV/IywmHa/xEZ/Lq/q7EFv8VXr3e6zxVv8dJdRu2+Hm1Qdfzlf0xH9UjsMVfzseHPM6y9YO5yI7AFj+fLXAvW/HW7TGNi3B3XOmHcjGh3Mhf+Ut+PJSn44r/OA8PZmVgkH7Hn4P0I7ji38XBgj0pOLRncXjwXcUVvxneAe94LOLTB4KL34Ar/lXgBrhU4FG/D3z6r0nAlL4JfsJ/GJP+WGdo/VMxya+GVj9qIq6732v2wAYUY1IfAizeph1b3yNZDeuArxaPdg8vWO3qKIaOH4HHP5l4pANvfNNUMoT8brFTH+B5zxsMJdWg938bNGt/kyPonf97hpQaUB/Q7Pg5Cqna/iuGluG2gEZM0OEQrYVsejtfZ4iZCbkGHoRDcwegZIdtDDWzfeG8uKfHoNgwC07xwNsMOff7wLnxvoV1/OzSGXp8nOCe/ghaPx6LweT6ZzEBGD0AzJDv+KtdCibWL4YJgelFsLmXibfWHmCfOty8wQQh6EMoT6bwlvoNlNI1rkwYdKegXOE8/DgNpXOkgYlEJ9Ri+CWeKpuAtjlpGplgbAZqAL6i4qfR6iegVl8yE45aoAYAx9Y/ULPf7jYTkLtlMBOwWF4CW2F2OEy+w4Rk6A6Yi4PT+3AdzOGmK0KZoGjngxi0iotBGTC9/iQtE5cOGwiLRrhxaPY2QCizXcCE5ucICJeW9wa/sT0AnvO5jAAAA81JREFUGWpMYoKTAXIAWAhwV0QH8l17yVAmPIY0CKfO9oLU5HYIQtMLeqYEkj0h2j9GOEHuEO2ecVFMIfSE+ALyMtidsmg3gJzIOUwxBJ0FMKysDujHDHGeRZsrUxJbAPaAurRCKBkOMOZxqGYK4y7AGUCag7IfdaQPALj0rUczxdE7GqBFvn2uvCJMFwCGGGd0TImEA2wCtBsup4J1AG3+CS1MoQS2Adw5i2WbAGT8AVD+sBymXAYBtAC8N8tSuqoSYAPDuEqmaGIuA1xBFxZJX3j6qwCF70hhCkd/CeAYKPVFibcA3kgCWLd6fmHFlM+SNQDXkVdhoHQVh6ZBnFwV1sQsg6mJAG76Rkv0b/bB+RDH1sm0YkHJ58UQEzPnkT7dL/Vcki1EreZQZknMqALZKvVJcrcGwdrSFSBljv+TWRgea2FOAurzQVxXSzz80AWkRHVaf2Z5xFk/gqEq7fZzL6mtZudDHVTfcJ9ZJKpKsG/jE988/RyvgnMrb4EdUh4xVcUsFfedgGcBvz3vyKKnDlN6n6veCnhay6gv+zNL5jPY43BtU/c21vsEPa6SoNx3G/em2oCWM+wYs3RWL3wEjmdkSUhSQXbjpvXrNzVmFySFlER6wleRWssIpl/g/cgCcTpiRdn/fd+N9rK08L0CXCn3fyh63daSwnfOS6DM/4Xpob2lhG/THEx5//clYK+jJYTvmLSEsn4so4vVSg9fbY6hnJ9IzzaNksPXDJtDGf8vuVttFPvMn+9D+T6V4OiBSgzfJWAuZftso4BLVUoLf/x0d8r1mTGU7lZS+NbJBsr0OWcBgxWyCtT0a6E0u0BdXh/xw7fLr6Mku4i2tETsC/9BaS9KsTvEBDiJGr7/mR6UX7fRZS4XsBmoDvtNR9lJQ9NSP7HCr8o2UWoSojqet0eU7CPyD6soMamxmr1SgGWA/8l9lL1M6MMvJmLO3rt5op5SkrUfOPOqHc7sE6/EUm8P4ikQt7QB2buAekf2JNq5CUdojXkIluyd5pWGUiLgN4FrnSu43wQcRyxLp6UeLwLr0xq4bRG1uVyQmUMZcMa4elmYC3T0fQ/tbzGS91geBFkbzWBfZpZt3ZhF6zx0FB0Y++unsu4UtLlpHnugiJzGi85nc0CYDH8gNOBQQE0WDXEEWRK2bCk8US7Jp6PeDScCtrQEkqfi4dGzdVfB+dQuLQz7poYU7Grv6UEuCo9bcG54VEdnnnl5+SzfJ/YK1L5l5WHm/M6OqPDcYC25plAMxpwEU0x8RVzttvb2bbVxFfExpowcoyU27P8C6rIKu/5ZqAwAAAAASUVORK5CYII=;" vertex="1" parent="8hDO8wCRMMMEZkLBjDl_-101">
          <mxGeometry x="350" y="355.9375" width="27.521052631578947" height="27.63157894736842" as="geometry" />
        </mxCell>
        <mxCell id="8hDO8wCRMMMEZkLBjDl_-23" value="" style="arcSize=10;whiteSpace=wrap;html=1;align=center;gradientColor=#ffffff;" vertex="1" parent="8hDO8wCRMMMEZkLBjDl_-101">
          <mxGeometry x="9.210526315789473" y="419.6875" width="73.68421052631578" height="42.5" as="geometry" />
        </mxCell>
        <mxCell id="8hDO8wCRMMMEZkLBjDl_-31" style="edgeStyle=orthogonalEdgeStyle;orthogonalLoop=1;jettySize=auto;html=1;entryX=0.5;entryY=0;entryDx=0;entryDy=0;dashed=1;fontSize=16;fontColor=#000000;" edge="1" parent="8hDO8wCRMMMEZkLBjDl_-101" source="8hDO8wCRMMMEZkLBjDl_-6" target="8hDO8wCRMMMEZkLBjDl_-23">
          <mxGeometry relative="1" as="geometry" />
        </mxCell>
        <mxCell id="8hDO8wCRMMMEZkLBjDl_-24" value="" style="arcSize=10;whiteSpace=wrap;html=1;align=center;gradientColor=#ffffff;" vertex="1" parent="8hDO8wCRMMMEZkLBjDl_-101">
          <mxGeometry x="12.894736842105264" y="423.9375" width="73.68421052631578" height="42.5" as="geometry" />
        </mxCell>
        <mxCell id="8hDO8wCRMMMEZkLBjDl_-25" value="Jobs/&lt;br&gt;Exporters" style="arcSize=10;whiteSpace=wrap;html=1;align=center;gradientColor=#ffffff;" vertex="1" parent="8hDO8wCRMMMEZkLBjDl_-101">
          <mxGeometry x="16.57894736842105" y="428.1875" width="73.68421052631578" height="42.5" as="geometry" />
        </mxCell>
        <mxCell id="8hDO8wCRMMMEZkLBjDl_-26" value="Plushgateway" style="whiteSpace=wrap;html=1;labelBackgroundColor=#FFFFFF;labelBorderColor=#FFFFFF;fillColor=#FFFFFF;strokeColor=#FF0000;" vertex="1" parent="8hDO8wCRMMMEZkLBjDl_-101">
          <mxGeometry x="7.368421052631579" y="200.28125" width="82.89473684210526" height="37.1875" as="geometry" />
        </mxCell>
        <mxCell id="8hDO8wCRMMMEZkLBjDl_-30" style="edgeStyle=orthogonalEdgeStyle;orthogonalLoop=1;jettySize=auto;html=1;dashed=1;fontSize=16;fontColor=#000000;" edge="1" parent="8hDO8wCRMMMEZkLBjDl_-101" source="8hDO8wCRMMMEZkLBjDl_-6" target="8hDO8wCRMMMEZkLBjDl_-26">
          <mxGeometry relative="1" as="geometry">
            <mxPoint x="46.05263157894737" y="297.5" as="targetPoint" />
            <Array as="points">
              <mxPoint x="46.05263157894737" y="324.0625" />
            </Array>
          </mxGeometry>
        </mxCell>
        <mxCell id="8hDO8wCRMMMEZkLBjDl_-40" value="" style="arcSize=10;whiteSpace=wrap;html=1;align=center;gradientColor=#ffffff;" vertex="1" parent="8hDO8wCRMMMEZkLBjDl_-101">
          <mxGeometry x="5.526315789473684" width="73.68421052631578" height="42.5" as="geometry" />
        </mxCell>
        <mxCell id="8hDO8wCRMMMEZkLBjDl_-41" value="" style="arcSize=10;whiteSpace=wrap;html=1;align=center;gradientColor=#ffffff;" vertex="1" parent="8hDO8wCRMMMEZkLBjDl_-101">
          <mxGeometry x="9.210526315789473" y="4.25" width="73.68421052631578" height="42.5" as="geometry" />
        </mxCell>
        <mxCell id="8hDO8wCRMMMEZkLBjDl_-42" value="Jobs/&lt;br&gt;Exporters" style="arcSize=10;whiteSpace=wrap;html=1;align=center;gradientColor=#ffffff;" vertex="1" parent="8hDO8wCRMMMEZkLBjDl_-101">
          <mxGeometry x="12.894736842105264" y="8.5" width="73.68421052631578" height="42.5" as="geometry" />
        </mxCell>
        <mxCell id="8hDO8wCRMMMEZkLBjDl_-56" style="edgeStyle=orthogonalEdgeStyle;orthogonalLoop=1;jettySize=auto;html=1;dashed=1;fontSize=10;fontColor=#000000;" edge="1" parent="8hDO8wCRMMMEZkLBjDl_-101" source="8hDO8wCRMMMEZkLBjDl_-46">
          <mxGeometry relative="1" as="geometry">
            <mxPoint x="46.05263157894737" y="201.875" as="targetPoint" />
          </mxGeometry>
        </mxCell>
        <mxCell id="8hDO8wCRMMMEZkLBjDl_-46" value="Push metrics &lt;br&gt;at exit" style="text;strokeColor=none;fillColor=none;html=1;fontSize=10;fontStyle=1;verticalAlign=middle;align=center;labelBackgroundColor=#FFFFFF;" vertex="1" parent="8hDO8wCRMMMEZkLBjDl_-101">
          <mxGeometry y="117.9375" width="92.10526315789474" height="10.625" as="geometry" />
        </mxCell>
        <mxCell id="8hDO8wCRMMMEZkLBjDl_-51" style="edgeStyle=orthogonalEdgeStyle;orthogonalLoop=1;jettySize=auto;html=1;entryX=0.505;entryY=2;entryDx=0;entryDy=0;entryPerimeter=0;dashed=1;fontSize=10;fontColor=#000000;" edge="1" parent="8hDO8wCRMMMEZkLBjDl_-101" source="8hDO8wCRMMMEZkLBjDl_-42" target="8hDO8wCRMMMEZkLBjDl_-46">
          <mxGeometry relative="1" as="geometry">
            <Array as="points">
              <mxPoint x="46.973684210526315" y="105.1875" />
            </Array>
          </mxGeometry>
        </mxCell>
        <mxCell id="8hDO8wCRMMMEZkLBjDl_-52" value="&lt;b&gt;Alermanager&amp;nbsp;&lt;/b&gt;" style="whiteSpace=wrap;html=1;labelBackgroundColor=#FFFFFF;labelBorderColor=#FFFFFF;fillColor=#FFFFFF;strokeColor=#FF0000;" vertex="1" parent="8hDO8wCRMMMEZkLBjDl_-101">
          <mxGeometry x="396.05263157894734" y="41.703125" width="82.89473684210526" height="54.71875" as="geometry" />
        </mxCell>
        <mxCell id="8hDO8wCRMMMEZkLBjDl_-60" style="edgeStyle=orthogonalEdgeStyle;orthogonalLoop=1;jettySize=auto;html=1;entryX=0.5;entryY=1;entryDx=0;entryDy=0;dashed=1;fontSize=10;fontColor=#000000;" edge="1" parent="8hDO8wCRMMMEZkLBjDl_-101" source="8hDO8wCRMMMEZkLBjDl_-9" target="8hDO8wCRMMMEZkLBjDl_-52">
          <mxGeometry relative="1" as="geometry" />
        </mxCell>
        <mxCell id="8hDO8wCRMMMEZkLBjDl_-57" value="&lt;span style=&quot;font-size: 12px;&quot;&gt;Prometheus&lt;br style=&quot;font-size: 12px;&quot;&gt;targets&amp;nbsp;&lt;/span&gt;" style="text;strokeColor=none;fillColor=none;html=1;fontSize=12;fontStyle=1;verticalAlign=middle;align=center;labelBackgroundColor=#FFFFFF;" vertex="1" parent="8hDO8wCRMMMEZkLBjDl_-101">
          <mxGeometry x="2.763157894736842" y="499.375" width="92.10526315789474" height="10.625" as="geometry" />
        </mxCell>
        <mxCell id="8hDO8wCRMMMEZkLBjDl_-61" value="Push &lt;br&gt;alerts" style="text;strokeColor=none;fillColor=none;html=1;fontSize=10;fontStyle=1;verticalAlign=middle;align=center;labelBackgroundColor=#FFFFFF;" vertex="1" parent="8hDO8wCRMMMEZkLBjDl_-101">
          <mxGeometry x="390.5263157894737" y="197.09375" width="92.10526315789474" height="10.625" as="geometry" />
        </mxCell>
        <mxCell id="8hDO8wCRMMMEZkLBjDl_-62" value="Email" style="arcSize=10;whiteSpace=wrap;html=1;align=center;" vertex="1" parent="8hDO8wCRMMMEZkLBjDl_-101">
          <mxGeometry x="534.2105263157895" y="35.59375" width="64.47368421052632" height="15.9375" as="geometry" />
        </mxCell>
        <mxCell id="8hDO8wCRMMMEZkLBjDl_-66" style="edgeStyle=orthogonalEdgeStyle;orthogonalLoop=1;jettySize=auto;html=1;entryX=0;entryY=0.25;entryDx=0;entryDy=0;dashed=1;fontSize=10;fontColor=#000000;" edge="1" parent="8hDO8wCRMMMEZkLBjDl_-101" source="8hDO8wCRMMMEZkLBjDl_-52" target="8hDO8wCRMMMEZkLBjDl_-62">
          <mxGeometry relative="1" as="geometry" />
        </mxCell>
        <mxCell id="8hDO8wCRMMMEZkLBjDl_-64" value="Eslack" style="arcSize=10;whiteSpace=wrap;html=1;align=center;" vertex="1" parent="8hDO8wCRMMMEZkLBjDl_-101">
          <mxGeometry x="534.2105263157895" y="62.15625" width="64.47368421052632" height="15.9375" as="geometry" />
        </mxCell>
        <mxCell id="8hDO8wCRMMMEZkLBjDl_-67" style="edgeStyle=orthogonalEdgeStyle;orthogonalLoop=1;jettySize=auto;html=1;entryX=0;entryY=0.5;entryDx=0;entryDy=0;dashed=1;fontSize=10;fontColor=#000000;" edge="1" parent="8hDO8wCRMMMEZkLBjDl_-101" source="8hDO8wCRMMMEZkLBjDl_-52" target="8hDO8wCRMMMEZkLBjDl_-64">
          <mxGeometry relative="1" as="geometry" />
        </mxCell>
        <mxCell id="8hDO8wCRMMMEZkLBjDl_-65" value="Etc" style="arcSize=10;whiteSpace=wrap;html=1;align=center;" vertex="1" parent="8hDO8wCRMMMEZkLBjDl_-101">
          <mxGeometry x="534.2105263157895" y="86.59375" width="64.47368421052632" height="15.9375" as="geometry" />
        </mxCell>
        <mxCell id="8hDO8wCRMMMEZkLBjDl_-68" style="edgeStyle=orthogonalEdgeStyle;orthogonalLoop=1;jettySize=auto;html=1;entryX=0;entryY=0.5;entryDx=0;entryDy=0;dashed=1;fontSize=10;fontColor=#000000;" edge="1" parent="8hDO8wCRMMMEZkLBjDl_-101" source="8hDO8wCRMMMEZkLBjDl_-52" target="8hDO8wCRMMMEZkLBjDl_-65">
          <mxGeometry relative="1" as="geometry" />
        </mxCell>
        <mxCell id="8hDO8wCRMMMEZkLBjDl_-69" value="&lt;b style=&quot;font-size: 10px;&quot;&gt;Prometheus&lt;br style=&quot;font-size: 10px;&quot;&gt;Web UI&lt;br style=&quot;font-size: 10px;&quot;&gt;&lt;/b&gt;" style="whiteSpace=wrap;html=1;labelBackgroundColor=#FFFFFF;labelBorderColor=#FFFFFF;fillColor=#FFFFFF;strokeColor=#FF0000;fontSize=10;" vertex="1" parent="8hDO8wCRMMMEZkLBjDl_-101">
          <mxGeometry x="543.421052631579" y="263.5" width="55.26315789473684" height="54.71875" as="geometry" />
        </mxCell>
        <mxCell id="8hDO8wCRMMMEZkLBjDl_-70" value="&lt;b&gt;&lt;br&gt;&lt;/b&gt;" style="whiteSpace=wrap;html=1;labelBackgroundColor=#FFFFFF;labelBorderColor=#FFFFFF;fillColor=#FFFFFF;strokeColor=#FF8000;" vertex="1" parent="8hDO8wCRMMMEZkLBjDl_-101">
          <mxGeometry x="543.421052631579" y="327.25" width="55.26315789473684" height="63.75" as="geometry" />
        </mxCell>
        <mxCell id="8hDO8wCRMMMEZkLBjDl_-71" value="" style="shape=image;verticalLabelPosition=bottom;labelBackgroundColor=#ffffff;verticalAlign=top;aspect=fixed;imageAspect=0;image=data:image/png,iVBORw0KGgoAAAANSUhEUgAAA+gAAAQQCAYAAABxxXEeAAAABmJLR0QA/wD/AP+gvaeTAAAACXBIWXMAAA3XAAAN1wFCKJt4AAAAB3RJTUUH4QQVEzIkTJjOYwAAIABJREFUeNrs3Xl4XAW9//HP98xM2qbJTFK2CgiltzZbqWjZBIXCLbLI5hJpJm0poEVRRHFDvUv1el3wLipel6oV2iYBglcRFC+bFTdQ+xPaJpOUAmWxlqVtZpKmbSZzvr8/iohQSttss7xfz5M/9Cld3jOZOZ+cmTMSAAAAAAAAAAAAAAAAAADYRxsXzSqnAgAAwy8gAQAA2BsuWU+ydtHEvv6/pJN1d6WTDcdTBQCA4WMkAAAAr6YnOX1qoOj3XH7a321299uCIPKpypaOTioBAMBABwAAI8QlSydr32uy/5RU8Qq/LJTUEg30yYkrUn+hGgAADHQAADCMMk3Taz2IfF+uk/byP+lz2RcTWwf+0+5Yv5OCAAAw0AEAwBD4YgW93XUfddPnJI3fj9/iYUkfTrSmfkZNAAAY6AAAYD9snjvjtbEgvOEl7zXfX7e7cldVta57lLIAADDQAQDAXupprrvIXN+SVD2Mv+0Ol/1bomLCV2zJqiyVAQBgoAMAgFfw7KU1leN2RP7D5YtG6s9waY0peE+iteP3FAcAgIEOAABeIj23/gQFvkLStFH440KTfW9H1j56cHtHH/UBAGCgAwBQ8nyxgkx37T/J7F8kRUb5j3/MpUVVram7uSUAAGCgAwBQsjJN0w/0IFgut7PG8mcEJvtufyR69eTlq7dxqwAAwEAHAKCkpJMNx0vhzZKOzJNDkS4Pc/Orbuz+I7cOAICBDgAAip5LlknWfUjSVyTF8uyvN2jSf1ZWlP8zV3oHADDQAQBA0drSODURjY3/vsvfmed/1d9bzufHb+pax60GAGCgAwCA4hrnTTUzIxb8WNJRBfJX3ibpikRrahm3HgCAgQ4AAIpCprn2XHdrkRQvwL/+8m0V5e87dMmqfm5JAAADHQAAFCSXLJ2s+4RJX5AUFPBRSioIrbGyrbODWxUAwEAHAAAF5ZnGhorxsfAGl95RJP+kXrlfnmjrauPWBQAw0AEAQEHoSU6fKo/caqYZRfjPWx7P9l5u7U9t55YGADDQAQBA3so015zsHvxY0oFF/M9cFUrvrG5NPc4tDgAoRgEJAAAobD1Nte8MPbiryMe5JM0KpD/2NtWeyq0OAGCgAwCAvJJO1l1lZjebNKFE/skHhmZ3ZprqL+HWBwAUG17iDgBAAfJGRTKxuq9J+kAJV/h6PNt1tbUrxz0CAMBABwAAo27T/JkTJ+SyN0o6lyMZ/3luYGDupPZH09wzAAAMdAAAMGoyTdMPdIvcIelYarygw5U7v6p13aOkAAAUMt6DDgBAgdjcPPNwDyL3Mc5fpsEUeaA3WXcKKQAADHQAADCieubXHBX17Eq56qixWweG0p09yfpGUgAAGOgAAGBE9DbVN1gu+LWkf6DGHo0zeVtPsnYRKQAADHQAADCs0smG40PzX0o6lBp7JWKy72SSdV8iBQCg0HCROAAA8lRPU8PpZuFtksqpsR9cX423pa42yYkBAGCgAwCA/dLbVHtqaHa7pApqDOlQpzVeMWGhLVmVpQUAgIEOAAD2SU9z7Vvl9mOTJlBjWNw9MD58x0FLu3tJAQBgoAMAgL2Sbmo4Sxb+SNJ4agyr3ykbnJto79hCCgAAAx0AADDOx9aD5rkz4m3rniMFAICBDgAAdqunqe4MM90maRw1RvDAx/0hKZzDSAcAMNABAMDLpJvrTpTrLnFBuNE6+klFBoLTK9o7NhEDAJBP+Bx0AADG0Na59W+Q6w7G+Shy1Q1Gw7t65888mBgAgHzCGXQAAMZIOln3Okm/knQINcZip2uNZYPZXDgOAJAvOIMOAMAY2LKg4QhJdzHOx45JRysW3vHspTWV1AAAMNABAChBvfNnHhwZDO+RdCQ1xtzxsR3B7RsXzSonBQCAgQ4AQAl5prGhIswN3C5pGjXyg0mnTOzr/5GfPY0r6AMAGOgAAJQCXzQrNi4W3izZcdTIO2/NVMdu8kZFSAEAYKADAFDM41yydG//tyWdTY28dUEmVvcNMgAAGOgAABSxTHPdv5npUkrkvff1JOs/TQYAwFjgY9YAABjpcZ6su8yl71GiYLi5XRZv6/wBKQAADHQAAIpEb1PtqaHZnZLKqFFQBuXBeYm2jp+TAgDAQAcAoMD1zK85ynLBA5IOokZB6o2Yn1zR0rWGFACA0cB70AEAGAGbm6fFNRj8hHFe0Cpzbj/pa5pxCCkAAAx0AAAKkDcqElWs1UwzqFHwpuQsd/vGRbPKSQEAYKADAFBgMrH6a+V6GyWKxrET+/q/77w1EADAQAcAoHCkk3VzJb+aEkVnbrq59hoyAABGEj8JBgBgmPQ11x6dc/udpInUKEqhpPMSramfkQIAwEAHACBPbV14TFUwsPMPkqZRo7hvas9Fjqu6ae0jpAAADDde4g4AwBD5YgVBducKxnlJqA4iuf/dNH8mr5IAADDQAQDIN+l19ddwUbjS4dLMCWH2u5QAAAw3XuIOAMBQxnlz3Yly3ScpRo0SG+pm769q6fw2JQAADHQAAMZYT/LoatPgnyQdSY2StDMM7U3VN3b+iRQAgOHAS9wBANgPLplp8AeM85I2Lgj85s3N0+KkAAAw0AEAGCO9TbUfkXQBJUretKhi/0MGAMBw4CXuAADso63JhmMChQ9IKqMGJMncLo23df6AEgAABjoAAKPEF04Znx6Y8HuTjqYGXmSbpDckWlMPkwIAsL94iTsAAPsgkx1/LeMcuzFRpuu9URFSAAAY6AAAjLCeproz5PZBSmC3XCelY3UfIwQAYH/xEncAAPZCZkHtAT5oqyUdSg3swUAYBMdXr+h4iBQAgH3FGXQAAPaCD+prjHPshbIgDFt94ZTxpAAAMNABABhmmebacyVrpgT2Un3vwPh/JgMAYF/xEncAAPZgS+PURDRWttZlh1MD+2AwDO346hs7/0QKAMDe4gw6AAB7eqKMlf034xz7IRoE4Xe4qjsAgIEOAMAw6GmqO8NkCymB/WPHZcrqrqQDAGCvnzlIAADAy3ljQ1km5g9JXksNDEG/K3d0Veu6R0kBAHg1nEEHAGA30tHw44xzDINyU+QbZAAA7A3OoAMA8BJbFjQcERkMOyVNpAaG5YDL9fZ4W+rHlAAA7Aln0AEAeIlINncd4xzDyU1f27hoVjklAAAMdAAA9lK6qeEsmZ1PCQyzIyb2bvsYGQAAe8JL3AEAeJ43Hj4hE4uvlXwqNTDs9y9pu4deX31j1wZqAAB2hzPoAAA8L1MWv4ZxjpFi0oSI6SuUAADs4bkCAACk5zVMUxiukTSeGhhJocLTq1u7f0EJAMBLcQYdAABJ8vCrjHOMzsFXcK1zkgQAwEAHAODleptqT5XrbZTAKDk23Vz3bjIAABjoAAC8iEsWmn2JEhhN5vqiNzaUUQIAwEAHAOB56ab6RkknUgKj7KhMNHwPGQAAL8b7nwAAJcsXzYpl+vo7JL2OGhiDe+AzA+N92kFLu3tpAQCQOIMOAChh6b7+9zDOMXbs4LIdwVV0AAC88MxAAgBAKXqmsaFiXFn4sFyTqYEx1JPL7pwyqf3RNCkAAJxBBwCUpHGx3EcZ58gDVUG07P1kAABInEEHAJSg3vkzDw5z2fWSKqmBPPDs9kjsqMnLV28jBQCUNs6gAwBKTi7MfoxxjjxyUPngwOVkAABwBh0AUFLSjQ2TFAs3MNCRZ0dkm+IDvVOt/antxACA0sUZdABAaYnlrmScI++4JmfKKi8lBACUNs6gAwBKxqb5MydOyGU3SDqQGshDj8c3HjLNVq4cJAUAlCbOoAMASkb5YPYKxjny2JHp12y6gAwAwEAHAKCo+dnTxrnpw5RAPjPZVVQAAAY6AABFLVMVu0zSoZRAni/0t6STDccTAgAY6AAAFCWfPTsq08cpgcIY6eGVRAAABjoAAEUpfegzb5c0hRIoCK6LNjfPPJwQAMBABwCgGBfPB2mAAhKLevZyMgAAAx0AgKKyNdlwjEmnUAIFxfQenz07SggAYKADAFA8O8d5Py8KkGty72GbziIEADDQAQAoCunGhklmmksJFKLQ7TIqAAADHQCAouDR3CJJ5ZRAITLp3G1za/hoQABgoAMAUODjvFERM3s/JVDAolmzBWQAAAY6AAAFLROrnSPpCEqgkJkF73XJKAEADHQAAAp52iykAQqfT+2dV/9mOgAAAx0AgIK0pXFqwqULKIGimOihN1EBABjoAAAUpEh0XLNJEyiBIvEuPhMdABjoAAAUJtMlREAROSj9mqdPIwMAMNABACgovc0N9ZKOpQSKiukiIgAAAx0AgIISejiXCii+fa53eGNDGSUAgIEOAEAhLZl3EQFFqDoTCc8gAwAU+2EMAABFYuu8htcHYfggJVCUB22ulaH8G6H84epxO9fZ9Rt2UAUAGOgAAOSlTLL23132aUqgBISSnpC0TubdrqAz4t7pUe+IL+vaTB4AYKADADCm0sm6bknTKYHS5s+YtNZlKZc6Iu6dg+PGP1R9/YM9tEE+eqaxoSISsWqzbHVMVu2yasmqQwtjkhS4KkKz2IsGTJlJE1+4x0sDLm0z2XZXuMNMfe5BVhampSAnD3ukcGtV67pHqQ0GOgAAoyBzUe10j1g3JYBXtEHSQzJ7yMNwtcLog4mb1j5qkpMGI/K43DT9wDASOSII7bUuHemuIwLzI1w6XNIBkqolVUmKjcJfJx3xSE1F29qnuWWQz6IkAAAUA4/Y26gA7NEUSVPkfoGZSZGcMsm63rT0kFx/lNkfLRf+ofKmrocZ7dhbzzQ2VIwrU52FPiMMvM5cDTId5a4pLk2wUPLn7042tnesRE65L0tayK2GfMYZdABAUcgka+9x2emUAIYsLemPZvaHMAz/mPPo7w+4ce2TZCltLllv0/Qat8jxbpphrgZJ9ZKOLKBN4S4/rqq1axW3KBjoAACMkI2LZpVP7OvfKonPiQZGxpOSfiO334auX1flOldbu3JkKV7pxoZJKvMT5DpBFp4gtxO06yXphe6uRGvqrdzCYKADADBCepJ1c0y6ixLAqOmTdL9kv3HTrxIDmd9a+1PbyVK4eufPPDgMB+Z4aP9oppO164KbRbkV3GxOVUvnPdzqyEe8Bx0AUPAC+WnOz5yB0VQhaY7kc8ylTKxyMJ2se8iku0Pp7kQ2uM/aOwbIlL82LppVXt7Xf1IgzXFpTpjLvkGywErgodTcv+TS8VxrAXl5/yQBAKDQpZvqr5T51ykB5I1eSb+UdG8YBPdWrehYzRgae1sWNBwRGfQLTeEFLjtZ0rhSbeEWNFa1dNzCvQIMdAAAhvtAa/bsaO9rNv3RzV5PDSAvPSvTLzy0ey1i9yRWdKwnyejovWhGXS4Svt3kb5c0i+P/F3THNx4yw1auHCQFGOgAAAyznnl1b7RQ92t0Pk8XwNA8Idm9ct0TRKN3Vi5f/QxJhk9mXk2Nh8E8yd4leS1FXmEIud4bb0t9jxJgoAMAMEx89uxo7+HPvEmuc9x9kaRJVAEKSijTH+S6PQztp1U3dj7Iy+H3Y5Q3TT/QLZgrs3lynUCRvfJIPJuq4RMJwEAHAGAIehunHRTGYmdLOkfSW1UcH/0DQJK7/hyY/VSB/bSvfPzdhy5Z1U+VV2i1aFasp2/beYFsgaSzxUdN7sca8uZES1crIcBABwBgX0Z5U31Dzvxck+ZImi0+iQQoBTsk/dqlu4Mg/HF8RXc3SaS+xobJg7HwYpOukHQERYakMz49dbQtVkgKMNABAHgFm+bPnFg+OHC6LDg3dH+bmQ6jClDyh66PSuHtLrstUVH+S1uyKltK//pMU8ObZeGHXLpQXG9j+O5V7ufH27puowQY6AAAvEhvc0O9h+HbJJ3jppM5AAWwB5vlut0Cv6Vyy+Bddsf6ncX4j/TGhrLeWC7pso9JauBmH5FJ9JtEa+eb6QAGOgCgpHmjIulY7TGm4DyZv1uuOqoA2A/9ku6V1L49Evvh5OWrtxX6P+iZxoaKcbHwMkkflfRabuKRXkXB8YmWjj8QAgx0AEDpjfJow6mBwrlueoekA6gCYBj1ynS7Se2VW7I/K7Qz65kFtQdoUFe77ApJVdyco2Z5ojW1gAxgoAMASkI62XC8FCYlvVvSaygCYBT0uHSLB95SNa3rvny+ENjWhcdUBdmBj8j9w5Li3HSjbiCSDY6saO/YRAow0AEAxXlknDy6Wso2muz9ko6hCICx4q4/m/kPzSPt8baOX+fL3+uZxoaKslj4AZM+KT4ycoyXkX0u0dL5r4QAAx0AUDwHwY2KZGJ1Z5rsUpefJz6XF0C+PU5JawL36y1atqJy+epnxuTvMHt2NH3o0+816bOSDuJWyQtPx7dmjyzWCw6CgQ4AKCGb5854bSTIJU16n6QpFAFQAHKSfuGyJYmKCT8erY9t60nWzZH0XyYdzU2QX9ztoqq2zpspAQY6AKDwDmQaD5+QicbfafLL3HQqzysACthGM1umwfAH8Zu61o3EH9DbVN/gFn7dZaeTO2/dmWhNnUkGMNABAAWjt7mh3j1c4NJlkg6kCIAis8rlS7Ljve2gpd29Q17+i2aVT+zb/gnJPyXe9pPvwlCaWt2aepwUYKADAPLW5uZp8YjKkuZ+maRjKQKgBPS6qz0IwqXxlu7f7M9vsDVZ+46I9DWXHU7OQllIXCwODHQAQJ5Kz60/QYHeJ/m7JZVTBECJ6jbT0iCM3FDRtvbpV/vFmQW1B/igfUPSXNIVnCfi01NH5fPH8oGBDgAoIX72tHHp6rLzzfzDcp1EEQB4wYBJt7rpvxItqft39wvSybpzJH1X0qHkKthnwrMSrV3/Rwcw0AEAYyadrHudZO+T/BLxebwAsOcJJ/3S5V+vynbdau3K9SSPrjYb/Lpc86hT8DOpNdHa2UwHMNABAKN7gNmoSG+s/lyXXyHpDJ4bAGCfbTB5q8sWirPmxaJvW0X5IYcuWdVPCjDQAQAjbnPztHhM0fe625WSjqQIAAB/4xY0VrV03EIJjKYoCQCgtPQ1NkzOxfx9cv+Q8zJ2AAB2KwhzF0lioGNUcQYdAErE1mTDMYHCq7XrisIxigAAsEc7Bi17yAEt6zOkwGjhDDoAFDGXLJ2s+0eTrpLCt4kfzAIAsLfGRxU9V1IrKcBABwDs/zCfPTuaec0zczPm15jUQBEAAPbnCdXezUDHaOJMCgAU03HE2dPGpSeVXWLun5B0FEUAABiSHdsjsQMnL1+9jRQYDZxBB4AisGn+zIkTctn3pF0fN/fDKAIAwLAYXx4OnCbpdlKAgQ4A2KPNzdPiEY+933LZj0s6wHhdFAAAw8plZzPQwUAHALyiTNP0AxVEP+ruH5BUSREAAEZsoZ9DBIwWzrUAQAFJNzZMUsw/JPmHJSUoAgDAyAtykfrKm9amKIGRxhl0ACgAz15aUxnbEVwhhddIqqIIAACjx6OD50hioIOBDgAM8+AK2yGGOQAAYzXQ3c6W9J+UwEjjJe4AkKfDvGy7fURmH2GYAwAw5gYGxocHHrS0u5cUGEmcQQeAPOKLZsXSfdsusZ32WZkmUwQAgLxQVrY9erKkn5MCIykgAQDkwTBfrKAnWd+Y6etPmew7csY5AAB5xcKTiYCRxhl0ABhjPcm6OZl1utbkb6AGAAB5us9db6YCRvx+RgIAGBvpufUnWKAvuvw0agAAkN9c2p7IBlXW3jFADYwUzqADwGgP83kN0zwXXivztzs5AAAoCCZNyET8DZIeoAYY6ABQ4J5pbKgYF/OPKQw/aabxFAEAoMBG+q73oTPQMWK4SBwAjDBfrCCdrFswLhaul/xfJcY5AAAFutC5UBxGFGfQgaEMr8aGsm1Rqw41UC0F1W5W7bKJgaky9DAauCVCUxCYVYWhB4HZyz7P2s3LzTXu7/4/WdakPpeHJqUlKXTvkZlLykieM1evgqBH8q0W5noClW2d2LOjx+5Yv5NbJn/0NDWc3rsu/G9JM6kBAECBH/vJ3+ySmcS71DAiuEgc8BK982ceLGUPzoV+qLlNNtchLh0qs4NdfpikSYG82mXVkibm4T+hX1KPpK3Pfz0l1yYL/Cn3YFMgf9JzvqkvMfGpQ5es6ucWHxnpeQ3TFIb/IekCagAAUEQjPRJOrVre/RglwEAHhsG2eXWvyeV8iktTPNCUwIMpLp8iaYqkI6W/P5td5DKSnpL0qFzrFWi9wuARRbQ+Xj7+cVuyKss9Zt9sXDSrvKJv22dc9jFJZRQBAKDIBpT7+fG2rtsoAQY6sJc2zZ85cbxnayzUdMlrJKuVNF1SjfLzrHc+GpT0uGTrZf6I3FOBa03OYqurWtdsJc/LpefWvU2BrpN0FDUAAChOLvtMVWvnFyiBkcB70FHYD5CzZ0f7Dnt2eujhTDN7vcuPluto5bJH/O1X8XOoITw+/IPk/7DrXVam0CTToNLJuidkWmOyNe7+UOC2puIvB3fbypWDpRhqc/PMw2Oe/ZpL7+BuAwBAcTPzGVTAiN2/SICCGeMLp4zPZCccI/djpWCW5DMlNai0XpKez3ZK6pD0ezO/X+b3V67oXlfMF1Hx2bOjvYdtusrdFkuq4C4AAEAJHJNKa6paU1z8FQx0lNADX6MiPbGGo0254wO3Y910rKQZkmLUKShbJN0v6X533Z8Lsg8c0LI+Uwz/sMzc2pMU2Lecq7MDAFBqBuIV5RVcqwcMdBStzc3T4lGPvkkWnCT3kySdKM5IFqPQXZ2B2W9D1z2BBu+Nt617rtDuqzFFr3W3RTyGAgBQmgK3GZVtnR2UAAMdReHZS2sqx2232W6aY7LZvuul6hHKlN5gl/SQy+8x6e5tFRN/lc8f/ZZO1p1j8u+47HBuOgAASpeb5la1pG6iBBjoKMwHsUZF0rHaYySbY9IcSaeIj6DCyw1Kesiku0Pp7kQ2uM/aOwbG+i+1deExVZGBgS+7fBE3EQAAkPT5RGvqn8kABjoKY5BL1je/riEMNUfSHLlOFS9Zx77bIumn7n7rjmjZzycvX71ttP8CPU217zSz/5F0CDcHAACQJHO/Jd7W1UgJMNCRt7YuPKYqyO44R65zZPaPck2mCobRDkl3u/lPomH0JxVta58eyT+sr2nGIaGF/+Pyd5IeAAC8xB8TranjyAAGOvLK5rkzXhuN5M6X60JJp4qrrGN0hDLdb9KtsvDW+Iru7uH8zdNN9fNk/jVJk0gNAAB2dxicaE0dSAYw0DHmtjTVzIxYcIGkCyS9kfsR8kCHm7eEkUjLpGUdT+zvb5Jpmn6gLPptzpoDAIBXMzA+jB+0tLuXEmCgY1T5YgV96+reHLreLtMFko6iCvL17urSryRvkWLtVa1rtu7tf5hO1p0j0/d5awYAANgbEfOZFS1daygBBjpGRW9TfUNoapQ0X/KpFEGB2SnpLknt2yOxH77SBea88fAJmVjFlyS7ksdEAACw9/ysRGvX/9EBDHSMmK1za6dYECRNntSuzyYHikGPSz/MWWzxAS2rn/rr/5lurjtRruWSppEIAADs05AyXxhv6bqBEhhOURIg0zT9QA8iF0lKyvUmyfnBDYpNlUmXxXzgaUmf8UWzYpm+/n+R6xoeBwEAwP4I3XhbHBjoGB6+WEH64do5JrvMXRfKVUYVFP39Xta4uXnmtzJ9/T+SdCxFAADA/jKuWwMGOoZqc/PMw6OevSSzTpeaNIUiKDGvi3q2S9JEUgAAgCEJdAgRwEDHPvPFCnrX1Z/n5u+VZ8+SFKEKShjjHAAADMNBtqqIAAY69trm5mnxqMcuyazTVZIfJacJAAAAMDwsTgMw0PGqepsb6kMPr5RrvjhbCAAAAAw7d09QAQx0vKKtc+vfEAT+kdDDpHgZOwAAADBizMRABwMdL9eTrJsTyD7t8tOoAQAAAIyKShKAgY6XMelml1dTAgAAABg1fEwxhl1AgsLmkkniAhUAAAAAAx0MdIylrY1T4+L95gAAAMBoi/pi9hQY6HgRi43j8xcBAACAsfDAtBgRwEDHC9xDrh4JAAAAjIFnK8Yx0MFAx9/EZFwcDgAAABgDB03cNkgFMNDxAreAl7gDAAAAY2HDFAY6GOh4EQsZ6AAAAMBYWLkyRwQw0PECd2OgAwAAAKMvZ5KTAQx0vBifgQ4AAACMviwJwEDH33E3ruIOAAAAjL5eEoCBjr9jgU+gAgAAADDqMiQAAx1/x0ONpwIAAAAw6jiDDgY6/p6ZMdABAACAUeacQQcDHS8b6NI4KgAAAACjfhzOQAcDHX/PxXvQAQAAgNE/DtcmKoCBjpfiDDoAAAAwyoyBDgY6dvPQwHvQAQAAgNFf6Ax0MNDxUs5ABwAAAEb7KDx0BjoY6HjJA4PzEncAAABg1IdUwEAHAx0vYcbnoAMAAACjLatxj1MBDHS8VJQEAAAAwKjaMel1qzeSAQx0AAAAABhbj9pihWQAAx0AAAAAxpQ9QgMw0AEAAABgzPmjNAADHbt9dCABAAAAMIoH4GZdVAADHbtjJAAAAABGcUSF4UNUAAMdAAAAAMaWZ4PBDjKAgQ4AAAAAY+uRA1rWZ8gABjoAAAAAjCGTVlMBDHQAAAAAGGPuzvvPMWKiJCh4gyQAAGDEpWXaLrd+yXv0109RMQ3K1fuiXzdg0rYXDuSlHSbbHsqDQEr89f8PXVEzVb7o15WZNPFvv41NlDwuqfL5LwD5MtBlv6MCGOjY/QOEa4dxHXcAAF75WFraLGmzTJsV+nNuu/53YPasZM/JtVmWe06hbw5NA3/9DwNXpj86fvvk5au3jfE/wNLJo6s8zCZiEVWG8riH0UqXx2VhVaAg7vK4yQ5x6TWSH2LyQ112sKQy7gLAsMrlguwDZAADHbtlph1UAACUqC2SNrjrcZMeN2mjm56W/OnBMNp5wI1rnyyK53rJ1bpmq6St+/rf9s6febCUPTg3qNeYabK5Jrt0qAIdItcUmY6SazJ3JWAvvx/d1x7QygXiwEDHK2OgAwCtT0rsAAAgAElEQVSK0YCkP7v05K7x7U+GFjxpOX8yiOnxgTD7BFdRfnWVy1c/I+kZSWtf6ddsXDSrvHJ7/1Qf9KPcbKrkU6XgKMmnujTVpAmUBHZx4+XtYKBjz3aSAABQgJ6T/DGTPenSk5IedwueNIVPRXPhE+U3dv/F/vo+b4yoQ5es6n9+wO92xG+bV/ea3KAfpcDqQnmtmWbIrU7SkdRDqTGzP1ABI3ofI0FhSzfX3S7X2ygBAMhDGyVbIwvXye0xcz02qPDR3AQ9dtDS7l7yFLZnL62pLNsRrTPzGaGHdQx3lIhHctHg9EnLOp4gBRjoeJlMsv4Wl7+TEgCAMbRDUkqu1SZfHQbBQ0E4+FC8bd1zpCnR4d4fqffA3yj5cXI7zkx1kiLUQZFMqEdzUTuNkQ4GOl4mnaxdIVkzJQAAoyAn6RFzX+2mte5aG4RaUxl2PWLtypEHr2TT/JkTy33wjR76sTIdJ9exkqZxLIoC9lgonVbdmnqcFGCg4wU9ybrvmXQZJQAAI+BpuT/gFjwgt/uzEwb/wEvTMVy2LjymynbuPE6BH2tuJ0g6WdKBlEEB2RCGflr1jV0bSAEGOiRJ6WTdNyR9gBIAgCHql+xPcv+D5L/3qN9ftbz7MbJgtLhkfU319TnzU8z0Fg91ipkOowzy3OMeCU/j8RIMdEiSMs31X3T3aygBANhHGyT7rRT+zgP7beKpQ1bbypWDZEE+6UlOnxooOCWUTjHZW7TrZfFAvnnClTutqnXdo6QAA73Un7iaaq8xsy9SAgCwBwOS/p+k37kFv43lBn878cbujWRBodk2t+bQwSA4xVynu+lMSUdQBXniSc9FTqu6ae0jpAADvZQHerLu/SZ9kxIAgBcPcpfuN/m9FgT3Vu7M/NHan9pOFhSbTNP0Wg8iZ0l+ptxOkVROFYyhJ3LR4C1c3R0M9BKWbqptklkrJQCgpIWSHnTTPeZ+z/ZI2a8nL1+9jSwoJb5wyvj0zglvkexMyc800wyqYAysj4bhqbxKCQz0Uh3oybpzJP2UEgBQak/g/lTodqcC3RmEuXv4zHHg7/UvmH7YYC56ptzPculsSRVUwSjpDLLZ2ZXt658lBRjoJSYzt/YkD+w3lACAopeTdK+knwa5yJ2VN61NkQTYO75wyvje7Pg5oduFJp0v6SCqYIQ96IqeXtW6ZispwEAvIb1N9Q2h+VpKAECxjnK7X66bIgpurmhb+zRJgCGO9UZF+mJ1J4fShZLeLmkKVTBCS+uBgXHhGQct7e4lBhjoJaJ/wfTDsoORpygBAEXjOUk/c9PPbCC4K9HesYUkwMjZOrf+DUFEF5r7hS7NpAiGk0v39VeUn33oklX91AADvQQ809hQMS4W8lM5ACjsp+NHJb81cL+1YrDr19auHE2A0Zee1zBNYdgkWVLyWopgmNwZ35o93+5Yv5MUYKAXOZcsk6zbKSlGDQAoqCfg1S7dkvPw1klt3aspAuSXnnl1b1TOkpLPNdNhFMGQjtldP0oMphr5ASwY6KXwBNJU9xRPHABQEDolaw9ywU1c5A0okGG1WEFvd8NJbrlGyZrEBeawv8PL9d14W2oRJcBAL3LpZN0qSW+kBADkpfWSbgwiuqlyeYqLegKFPNbPnjautyp2tuTNbnaupPFUwT76t0Rr6l/IAAZ6cQ/0n2nX53sCAPLkoVnST1xalmhN3WOSkwQoLpubp8UjHp1rssvFiRLsmw8nWlNfIwMY6EWqJ1m71GSXUAIAxlSoXZ9Tvnx7JPbDyctXbyMJUDLHYrNMWiDZPEmTKIJXe75wt6aqts6bSQEGehHKNNd/0d2voQQAjIm/mLQsJ32rujX1ODmA0uULp4xPD5SfZ/JFkv6RY23swYCbn1fV0nUnKcBALzLp5roPy/XflACA0TsOl3SPy5YkKib82JasypIEwItlmqbXyiILXbpUXFgOu9fr8tOqWrtWkQIM9GIa6E21TTJrpQQAjLged/u+RezbiRUd68kB4NX4winjMwMTGiVdJWkWRfAST7tyJ1W1rnuUFGCgF8vRYlPD6WbhPZQAgBGzTtI3t0di3+O95QD2+5gtWTvLZFdJapIUpQien2RdrshJVa1rttICDPQi0NtU3xCa89E9ADC8Qkm3udl1iZbOe7kSO4DhsmVBwxFBNvyAmd4rqZoikHRPvKL8bN4yBQZ6EdjcPC0e9ViaEgAwLLa6/PuK+Derlnc/Rg4AI2XT/JkTx4eD803+IbnqKFLaXPp+VWvqPZRgoKMIpJN1W8RPYAFgKDrc7bod0egKXsYOYJSHmaWba88w6SNyO5Nj9BK+L7h/qqqt60uUYKCjwGWaah90s9dTAgD29bhYP3Wzr/IydgD5YGuy4ZiIwk+79E5JAUVKTugWXFTV0nELKRjoKGDpZP1PJD+PEgCwVwYk3RS4fbmyrbODHADyTU9y+lRTcJVkl0saR5GSssPcT4+3df2OFAx0FO5Av07yD1ICAPYo46bvxHLhVyfe2L2RHADy3dZk3ZGB7GMuv8ykCRQpGU+HoZ9YfWPXBlIw0FGIR5zJ+o+5/CuUAIDd2uKy/8zZwDcOaFmfIQeAQtPXNOOQ0HIfcekKSZUUKYGh5v5Qf7TsZK6LUlp4X0uRCF1PUAEAXqZXZp/LZXdOrWrt/ALjHEChqmhb+3S8NXWNK3qkpH+RxGdmFzk3e/2EMLvUOalaUrixi0R6bv0JCvx+SgCAJKlf8u9FPPqFira1T5MDQLF5prGhoiwWfsCkT4pP8inuoc6V3RnoKDx9jQ2Tc7HwL5QAUOIGJFsSydq/V7R3bCIHgGK3deExVUF24CNyv0pSgiJFKSez8xItnXeQgoGOAuGSZZJ1afGeJAClKTTphx4En06s6FhPDgCl5tlLaypjO4IrTLpGUhVFik4myEVOrLxpbYoUDHQUiHSybpWkN1ICQIm5O1Tw8erWjgdJAaDkjwcbGyYp5h+S/MPijHqx6c5ld54wqf3RNCmKFxeJKy7rSACgdNhvzP2kRGvqDMY5AOySaO/YkmjtXGyem+aua13aTpWiURPExl3PReMY6CiYY1VjoAMoBU9Iujje2vmWeFvX78gBAC8Xb1v3XFVb6pNl0dzrTLZEUo4qRXC4L12YSdb+CyUY6CgEzhl0AEVtq0vXxMu21yRaU8tMcpIAwJ6VL1v353hr5+WBBTNNaqdIUcz0f+1pbngXHYr01iVB8eiZW3OsBcEfKAGgyAzK/FsW0Wfjy7o2kwMAhnC82Fz71iDUtW72emoUtIwF4fHxFd3dpGCgI09tbp4Wj3qMi0YAKB6uX+UUfnBSW/dqYgDAcD20ytLJ+neZ/MuSjqJIgd6OrrX9leUnHLpkVT81igcvcS8iB7Ssz8jE5/4CKHy7HssujrelTmWcA8BwP8TKq1o72+PZoFbShyX1UKUAb0fTjPK+/q9TgoGOfP5GDdVFBQAFbFCy/xpUlveZA8BIHze2dwwkWlNfCyKxGnctlRRSpcBuQ+myTHPtxZQoqtsUxSSdrL9O8g9SAkABPiGtDsPwsqobu/9IDQAYfT3J2lkmu07Sm6hRUHaEQXBi9YqOh0hR+DiDXmRc4RoqACi0AwvJPluZDY5jnAPA2Klq7VoVb02dLOliyZ+hSMEYH4Thzc9eWlNJCgY68u0GdTHQARQO02+DXOSNidbOxdbeMUAQABjrh2V5ojW1LCwbXyP51yUNUqUgTC/bESwhQ1F8D6KYPHtpTWXZjiDNbQsgz/XL7Zp4Tef/2GLe8wgA+WrrvIbXB7nwOpneQo385+aLqlq6vksJBjrySDpZ/4jkUykBIE/dbzm/OH5T1zpSAEABjD7JMk31zTL/D0mHUCSv7QgVvKm6teNBUhQmXuJenA+jvMwdQD4aNOnL8YryUxjnAFA4TPJEW+eKsGxcrcmWiE/YyGfjA4XtWxqnJkjBQEf+4DODAeSbDg90Qrw1dY0tWZUlBwAUnurrH+yJt3ZeboGdKhkf7Zu/pkXKxn2DDAx05AmXcQYdQP48JMm/Ht+anVW1IvX/yAEAhS++ovNX8bL+N0j2WUlc4DM/n33npZtrk4QoPLwHvQil5zVMUxg+TAkAY+wR82BhvK3j16QAgOK0palmZsSC70o6nhr5NwvC0I+pvrFrAykKB2fQi1B8RccjkjZTAsAYWr4zGxzDOAeA4japrXt1fHrqTS6/XFIvRfJKIgiCFd6oCCkY6BhDtuvCHasoAWAMbJTZOYnW1IKD2zv6yAEAJXDsuVhhVWvXklw0mCHpLorkEz85E6v7FB0Y6Bj7lf4HIgAYZXdHssGsREvnHaQAgNIzaVnHE/HW1JnPn03nh7T541/TzXUnkoGBjrHc524MdACjZVCyz8anp86saO/YRA4AKOFjUMmrWruWhKEfba6VFMkLUbm1PHtpTSUpGOgYI5HAf08FAKPgcXM/JdHaudgWKyQHAECSqm/s2lDZljr9+bPp/RQZaz41tj34Kh3yH1dxL2LpZN2fJR1KCQAj5KZByy46oGV9hhQAgFfS29xQH3p4g6RjqTHGM92CxqqWjlsokb84g17ceJk7gJEwILcPJVpTcxnnAIBXU9nS0RnfeMibJF8sKUuRsWMefqd/wfTDKMFAxxhw8weoAGBYn9jlT5n77ERb53XUAADs9fPHypWDidauz3qgEyXrosiYmZTNRb5DBgY6xkDE7TdUADBcXPplkI0cF2/r+h01AAD7o2pF6v/Fs5k3Sv51aozZE/rbMsnahYTIT7wHvZi/9xZOGZ8ZmNAjaRw1AAzl4cTMvlw50PlP1q4cOQAAw6Gnqf7dZr5EUoIao58/Fs3NKF+27s+kyC+cQS9idv2GHTKtogSAIRiQdHG8pfNTjHMAwHCqauu8ORcNZkr6NTVGP392MPID54QtAx2jPNJdv6ICgP20JXB/a6I1tZwUAICRMGlZxxPxjYecJtlnJX4QPMrO6E3WXkwGBjpGkzvvQwewPx6xIDypsq3rl6QAAIykXReQ61wcBj7H5E9RZBSnguyrm+fOeC0lGOgYrW+6wchvJIWUALAPz9a/sqifEF/R3U0MAMBoqV7RtVJRHSPZbdQYNYlokPs2GfIH7zkoAT1NdWvMNIMSAPbiWeHmeGz7xXb9hh3EAACMBZcsk6z7kKSvSIpRZDSe/v2SeGvX9ZQYe5xBL4VvuED3UQHAXhwPfTbekprLOAcAjO1YlCdaU18LA3+rpKcpMhoHAfbf/QumH0YJBjpG50HubioA2IOdcluQaO1cbJKTAwCQD6pXdK2MhuEbxUWPR0NVdjD6LTIw0DEKcrFxvxBXxQSwe1vCwM9KtHWuIAUAIN9MvLF7Y/wvh5xu0pfFD5FHmJ+3NVn7DjqMLd6DXiLSydrfS3YcJQC8yGOW87PiN3WtIwUAIN9tTda+I5D9QFKcGiM00V1/zgXZ+gNa1meoMTY4g14izIJ7qADgRTpi0dxbGOcAgEJR3dr1v5KONWk1NUZqM+iwqKKfpwQDHSMs5H3oAJ7n0n1h2bg3ly9b92dqAAAKSaI19XBfRfmbZLqZGiN1oGBXpJMNxxNibPAS91L5Pls4ZXx6YMIWkyZQAyjph/3b4tnMRdb+1HZaAAAK9thWsnSy7hMmfUGcdByJkbi6sqL8WFuyKkuN0cWduVS+ya7fsMOk31ACKOGDGdfS+MaD38E4BwAUwYD0qtbUl839Qkm8X3q4jxmkmb3btn2IEgx0jOgDmf0fFYCS9e1ETeq9tnLlICkAAMUi3tZ1m+X8OMm6qDHMI93tcz3za46iBAMdIzXQzX5GBaAEn2Dl/5FoTb3fFiukBgCg6Eb6TV3rBm3gBEm3U2NYlVsu+B8yjPJmI0FpSSfrHpXET8KA0nmU//dES+qfCAEAKHbeqEgmVn+t5FdTYxi7WtBY1dJxCyVGB2fQSw9n0YHS8c+McwBAqbB25RKtnR8184WSdlJkmLp6+F8bF80qpwQDHQx0APv7ZGr6ZKI1xeeYAgBKTryl6wYL7AxJm6kxLF47sa//U2RgoGMkHrCyvb+Q1E8JoHi57DPxltS1lAAAlOwx74rOX3kucgIXjxs2H08n615HBgY6hpm1P7Vdpl9QAijecV7V2vkFSgAASl3VTWsfUdZOdumX1BiycS7xw38GOkboAJ4rXAJFyEyfZJwDAPA3ifaOLYmt2TPd9SNqDPE4Q7ownaw9kxIj3hmlpq9pxiG5ILdR/IAGKBou/VNVS+rfKQEAwG6eJxsV6S2r+5ZL76XGkDwc35I92u5Yz0X4RggDrQRVtK19WrLfUQJgnAMAUAqsXbnKltTlvEx7yF7XW112JRkY6BjuBykL/5cKQFGM82sZ5wAA7MXxr+RVLalPmukTu55CsV/HHub/3LewYTIlGOgYRrlB/S8PTEDB+2aiJXUNGQAA2HvxFamvyLRQ0iA19i9hLutfJAMDHcOo+sauDTI9SAmgYC2Pvy51pfGDNgAA9lliRWqZSe+WifdS7xe/OJ1sOJ4ODHQML65mCRSmW+N/PuRSW6yQFAAA7J94S+pHofwsSRlq7DOThf9BhpEIi5LV29xQH1rYQQmggB60zX5RWTVwtl3H1VMBABgOPfNrjjUP7pB0IDX28bgksAvjyzpvpQQDHcMkM6/uIZdmUgLIfy6t8ei4U6qvf7CHGgAADOMxcdP0Wo9E/k/SEdTYJ93x8vKjbcmqLCmGBy9xL3Gh+Y1UAArCYzHpTMY5AADDL962ris6GL7JpTXU2Cc16f7+95Bh+HAGvcT1zK85ytwe4b4A5LXnLNDJ8WVd60gBAMDI6b1k2kHhYPQOuWZRY689M1Dm0w5a2t1LiqHjDHqJq1re/ZikBygB5K1+ky5gnAMAMPIqf7D+2Z07IrPlupsae+3gsp3BJ8jAQMdwMW8jApCXcmaaG1/R9VtSAAAwSmuzvaMvPtB3vqTbqLHXe+Lq/gXTDyMEAx3DIOpBu6QcJYB84x+NL+/i4AAAgNHem+1PbY+XT3ynpBZq7JXyAY98jgzDcN8jASQpPb/2TklnUALIm0fnbySWdV1JCAAAxo43KpIZV/t9mS6mxqvKRUK9oaKliwvtDQFn0PH8GPBlRADyxs/jT0z+CBkAABjjQ+R25eIrui6R2beo8aoiuYg+TwYGOoZBfPu2H0rOxzcBY68jt2Ngrq1cOUgKAADyYKRLHl+W+oDcv0mNV+E6P91cdyIhGOgY6gNP+1Pb3XQLJYAx9fRgNHr2pPZH06QAACDPRvqK7g+6+feo8WoL03kvOgMdw3Nn8BuoAIyZbBDYuw/4wdonSQEAQH6O9MSy7kWSfZsae3TG1nm1s8nAQMcQxZet+7WkbkoAo8+lD1TekLqPEgAA5PdIjy9PXWHSEmrscWTyXnQGOoZnJPhy2a5HH7744mvUvq6rWt71XR6BAAAojJFe+Q9d75fZCo5hXuEr0MnphTVncW9hoGOIYh4slZSlBDBqPxa7J/7E5KvpAABAAY30xQrj21MLTVzD6RWF9nnnY70Z6BiaiStSf3Hzn1ICGBWPmewirtgOAEABjvR25SqDHfNN+gU1dmtW77y6C8jAQMdQH2zCgJfaAiNvh5sa48u6NpMCAIACPW6+fsOOvvETz5X0W2q8XBj4v/liNicDHUMS/4fUzyU9TglgBJ/QZVdW3dC1ihIAABS2Q5es6rdseIFkKWq89HhHM9KP1byLEgx0DOUbabFCyb5PCWDEvstWxJel+BxVAACKRLxt3XMx5c6QtIEaLxmcbp/mvej7cJRIAuzOtktrDh3M2eOSotQAhtWf4v19J1v7U9tJAQBAcclcWlPjOfuVpIOo8aLRaTo/fn3XbZR4dZxBx25NXNq90aQfUwIYVls9Er6LcQ4AQHGKL+3udulsSRlq/I1Ln6ECAx1DZLLrqAAM4/eU22VVS9c9SgkAAIpX1Q1dq0LTBZJ2UOOFhX5Cz4K6OYRgoGMIKm9I3SeJi1gBw/PEdF18WepHhAAAoPhVX9+10uQXSeKjVP86PM05i85Ax1CZ7FtUAIa6zbUmvr3vk5QAAKB0xG/o/onMLt11KACXZmcWTH8zJRjoGILK/t5WSc9RAthvvWb2Tt53DgBA6Ulcn1pusmso8fxIt4Cz6K+Cq7jjVWUW1n5REg8swP48EbnPS9zQ3UIJAABKV+/Ftde56YOUkELXsVU3dPE22lfAGXS8qkjg10m+c9erc/jii6+9/wqvZ5wDAICK/q4Py/Qjjo1cgYWf5h7BQMcQTFzavVGu5ZQA9slj2Wx4FRkAAIC1K1fpO5Jy/ZoadmHm0poaOjDQMQShcl+SlKMEsHffMubhwgNa1vMZqAAAYNcsvX7DDrldKKmr1Deoh3Yl9wgGOoag6ob1j0j6MSWAV+dmn6+84eH7KAEAAF4svqxrc052tqRNpT1C/ZLMgtoDuEcw0DGU0SH/MhWAPTNpVTw28fOUAAAAu1N9fdeGQPZWSenS3RUqV6DLuTfs9lgS2HuZhTX3SDqdEsBubXMFb0hcn3qYFAAAYE/SC6afbYHdJilSogn+UlmZO8quW7+Te8PfcAYd+yQM7MsyiS+++Hr5lwX6GOMcAADsjcSydXe46eoSPnZ6Te+2aBP3BAY6hqBqadedZuJzC4GXu7diafd3yAAAAPZ6pP+g++tu+mbJBnD/qPOqbgY6hvyN9BUiAH8nM5iLXmK7PuATAABgr8V7uz8k6Wcl+s+fkV5YN4d7AQMdQ1DRt+4WSY9QAnie6epJyzqeIAQAANjnw4h25XK+s1kl+vFrEQs/yr2AgY4hPoiYjLPowC53VC7tXkoGAACwv6qv39AT/n/27jxOjrrO//j7Uz0zmWSOJEA4Qo65A0RQQFHBA9gVFEWFXbxWUTkChDOccjdXEhIg3EcIh3gi6ioCiq4c3geHCIFkkswkIdyEZKa7J8lMd31+f8C6Pw8gM9PdU1X9ej4e9ce6mul6f+v4vruqq8LCJyStrbR1d2m/3sOmTWMroKBjGOqzqdskrSQJVLj1VQU/klvbAQDAcI37+vIVFoQHS+qvsFU3cx3DFvBGGESAoer96rSvysSVQ1Qu9yMbb+tcRBAAAKBoc+zDph0uqdLmF+v7BkZN2vYbf81V+vhzBR1D1pBdeocq9LcygKSHG27rvIUYAABAMTXeuvQWN91QYas9rq66/78YfQo6hsHuUsHMLyAJVKBNCv1obm0HAAAlKemp+hNl+nUlrbPLZzLyFHQMU/0tnXdKeoIkUFk83Xh7J3ePAACAkrCFjw4EharPSHquglb7nb2HT9uLgg4M5+AhuVznkwQqyF8bqhouJwYAAFBK9bcvflGyQ1RBD42zUBV/FZ2HxGHYXLLMYdP+IGkP0kDCFULpfeNuXfoIUQAAgHLIHNZxrMuurZDV7Q+C6in1i556qVLHmyvoGDaTPAyCc2Sv/x8sLEld3HQT5RwAAJRTw62d18l0a4XMt2pcA0dU8nhT0FEU4xY98wuZHiYJJNirUtW5xAAAAMpe0ntzx5npsUpYV3cd4enK7akUdBSP2VniqdZI7unizLG3LH6NHAAAQNmn2Xet2VAI/RBJ6ytgdZtyqzv2paADw9R485LfufQ9kkDiTorSow2TO28lCQAAMFLG3drZJdmhqoALYi4dRkEHiqA6zJ9mUh9JIEHCMAyPtbRCogAAACOp8ZYlPzHTVYkv6GYHrT9m5/EUdGCYxty24tlQWvD6F3ssLIlYbhl727I/sncDAIAoqA/qT5f77xI+/6pNDWz6AgUdKIJNo6rmSnqeJJAA6ywMzyYGAAAQFbbw0YEqL3xO0qtJXk93zajI8WUTRyn0HtH+Vcn4zS5ifoC0mQ2Llt5AEgAAIGp6jug4wKR7ktzpUh7uVnfL8scp6MAweVpBds20P7t8N9JATMv5Y/U9S/ewu1QgDQBlO39K1nPMzuPcB8ZW94djPRWOc0+Nk/s4M43azANYlcsa3v6/FvbILZSpV6EVwsB6UwoLBfOMh6m8wnBdWJVfu8XCrh5GBoim3iPbL5Xb6Ymdj5mubbi583gKOlAEmcPbP+RmvBsd8Zwjh+Fejbcu/z1RACjKQWXG7tXrC30TU6nCZC/4FFMwyQKf7KFPcbPJJk2QqVGuxgh+/Lyk1yStlfSa3NdK9ppMa+X+ogXBai8Unk0ptWrMlKUv8lBNoLzHlkwh82uZ3pvQVVzXkO+faLev3EhBB4qg94j2uyT7T5JAzOr57Y23dH6VIAAM7tAhW3/4jlMChTua+XRJO76xNEnaVpXx7J9+Sc9JelamVe622sxXmQfLUlXhsjE3dj7HlgIU1/oZba1BGDwuqSGJ62dun2m4ZeldFHSgCPq+2jo5n0o9LameNBATPYEGptUv6n6JKAC8mexXpm8bVve/Wwqmy31HSdMl7cD57m3lXFpmpmVyLZOrUx52Kl/V2XjHkrXEAwxx8nJ4x5fMdEdCV+/HjYs6P01BB4qk9/D2U2U2nyQQE2c2LuqcSwwA/tcrh01rGFXl73S33U2+u6Td5dqJZIpunaSnTfZoKH80sPDR+vXLl/AsEGDzZI5o/6bL/iuBq9av/mBipXyJR0FHyXl676rMc88/IumdpIGIey5r2Y6JC5/vIwqgQs9ZkmUP33F6mCrsba49JL1HUod4Ne0ITVStz+VPyfQXk/2lENqfxk7a9glLP5QnHeDvvTajZWyVVz0uqTlxxwLXUQ2LOhdS0IEi6Tm8Yw8L9HsmOIj4IfHwxpuX8npAoMKsP6yjxQJ9wALtJdcBkiaRSuRL++Pmr19pDz318PhbnllFMoDUc2THe0z6raTqRK2Y61eNizo/TEEHiqj3yGk3Sn4USSCinm5Y37kLt1ICydf31dbJ+erUvnLtK2lfCnkiZrRd5v770OwPQSH1UP0tzyw2yQkGlSgzY9q57n5hwlYrzFu+eYuFXasp6ECRrD9m5/FBfqHsyjwAACAASURBVNMzkrYhDUTwcPipxpuX3k0OQPK4ZL1Hdrxbsk+a/EDxk6tK8JJJD7jpgTC0X45btLSbSFAxx7xDlMqM6/iVpD0TNlf7WuPNSy+loANF1HPEtC+a+TdIAhHzm8abOz9IDECCJqhfaartrarZ18w+qddL+URSqWCmLoV6wEy/VKrwQMONK14mFCR6zn3Uju0WFh6XVJeg1Xqy8ebOXSjoQJH1Htlxr6QDSAJRmccrCPdqvGn574kCiLdXDpvWUJPyT5vp03Ltn7CJKYp43DfpsdB0j4fBT8YuWvIYt8MjiTJHdBzrpmuTtE6B2zvrFy39KwUdKKLcYdMmFqr8KUnjSQMR8MPGhZ3/QQxATJvWIUrlxnXsE5oOlXSQeA85Bu8VST8z2U825vWzCbcuzRAJEnF8lCwzo+M+SR9NzDq5XTz25qXnUtCBIus9sv0rMruNJDDC8pJ2blzYuYQogNhNOvdy+RdM9hlJW5IKimSDZP9j5vdYqvru+usXv0gkiLO+ma2T8/nUk5LGJmSVljQu7NyRgg6UoqTP6LhH0sdJAiN4CLypceHSo8kBiIeeo3ZsNy98RdIXJDWRCEqsINPDCvVd1QQ/bLxuyVoiQUzn3F+WdHtiZm9BaueGG595ioIOFBm3umOkN8GUUu11C595gSiA6PrbLeyBTpTr48xdMGJl3fUHl91l5t9qXNj5KpEgXiV92vclT8RP+kxKNyzsvICCDpTkYJGsb/QQo0l/BfyGCYizdYfvODVIhUea/DBJ25EIImSTpJ+a686MZe+euPD5PiJB1GWPaN4mDKoXKxk/CXqycWFyn+ZOQUcUSvr3JB1CEijn3H9gVNi05TXLe4kCiA4/RKnMFm0HyIOjJH1MUkAqiPo0RqY7vRDeOnbR8j8QB6Ks58iOL5npjkSsTMp2aLxh6VIKOlAC64/ZebyFm54waTJpoCwHPk/2rVFA3Lz4pV3qRo/ecLiZzRK/LUd8PS3XrUE48M36Rd0vEQeiqPfojvvk+ljsV8R1duPCztkUdKBUB4tjOj6oUA9KSpEGSr25hcGopnE3PLmOKICRlflq24RwVHCsuY4TT2JHchTc9GAQ2sJ61f/IFj46QCSIitdmtEypsqqnJDXEu8TaYw03Ld2dgg6UsjUd1TFb0pkkgVJy2cVjb+K358BIev1p7OEpMv+ypFoSQYK94LJbqqp1Q921S58nDkRBZkbHsW66Nu7rERasZdyipd0UdKBUxWnG7tUZ631Y0vtJA6U6J6kq1cyrcoARKuYz2t9rptMlfVr8vhyVZcDlP7TQr268ecXviAMjOudOK8i80P6wpA/Eej2kk8betOwqCjpQQn1HtE3Kp+xxSVuRBop/xLO5jTd2cpcGUGbZGTvsHAbhuXLngaCgHEmPB7Ib68f0fcMWrNlAIhgJvUfu0KGg8BdJo2O7L5n+Z+yNyz5CQQdKrOfIjo9Z4PeIqysorpxZ2NJw44qXiQIoUzE/ZtouYVi4QLJPMecA/snLLi2sqg64/R0jU9JndJwl80tivAr9AzU+IWlv5aEAIXLG3tz5U5ceJAkUl99EOQfKIzOzfceeozruDMPwcck+TTkH/qWtTTqnMBCu7D26/fbMzPYdiQTl1LCu+jJJT8d4FWpqNmn/pI0LJ0xEzsszp9ePDvtfcmkMaaBINgTBQEv99StfJAqgdHpmtrZZmDpP8i+It3IAgxVK+rEHNmfs9Z1/Jg6UQ+ao9g+56aHY9kLzOxpvWP7lJI0JV9AROaPCTZ+inKOox27pZso5UDrrTmoa13tUx1wLg6ck/xLlHBjyvPwgC/1PvUe3/ab3qLYDiQSl1nDTsl9J+npsV8Dt435Iss45FHREr0yZfZYUUESbUnmfTwxACeZF6b2rMsd0zEhtrF4q8zMkjSIVoCizob1kdnfPUe2P9xzVcWjSCggiJpU6VdKrMf30W2YmtL6Xgg6UyLqTmsbJtR9JoGgFQrp1zKLla0gCKK6eo9v2z7z43BPufpOkrUkEKEFNN73LzL+e2aL9icxRbf/p/DwVJdB43ZK1MovvW27CVKLuNqGgI1JSm6oPEldgUDz9YSp/KTEAxdM7o2OH3qPb7zXZzyTtRCJAOZq6prvZXdmj2x/pOarjAAJBsTXc0HmL5L+N56f3j1HQgVKdf0J9jhRQvA3Kvzv+uu5VBAEM38szp9f3Ht1xhQL/qyQKAjASNUTazczv7T2647eZo9v2JhEUbcokeRBWHSMpH8OPv0t2ZtO2CRoLIBoyx7dN8Lw9L6mKNFAMYRi8Z9xNSx8hCWB4eo7qOMACXS/5VNIAIlXZf2uBndVw3bJfkQWKMh8/pv1ql46P3Z7gfujYG5d/IwljwBV0RMeA/pNyjiL6NeUcGJ7szKZte2Z23GmB30s5B6LI9vJQD/ce0/7jzNGt7yAPDFdBm86X9Ers9gQLEvMMKwo6IsPNPk8KKN6BWleSAjDE47FkPTM7Dg29+ilz/wyJAJH3Sbfgid5jOu7IHtG8DXFgqMbdsHqdyc6J38TPP5KUhyhyizsiIXfctImFQvis+NIIxTm0rWp4tbPV7lKBLIDB6ZnZ2mZuN0m2L2kA8ZxWudlljX39c+32lRuJA4PlaQWZl9r/IOk9cfrcQWjvqr+p84m4508ZQiTkw/AQtkcU78yiayjnwOAnZL0z2083D56inAOxVmfu52dGVz+dOabtEOLAYFlaoSw8SZLH6XOHgSfiNncKEaJxIHD9BymgSLKF2v5biAHYfOuObZ6aean9AbkuFa+6BJKi2WXf6z2m/Q+9M1v3JA4MRuP1K34n2Tdj1SdMH0lEL2Lzw4i3qRObtwkHqp6TlCINDJebXzf2uuXHkQSweXpnth0u2QJJDaQBJFYo+TeD6sLp9Vd1v0Qc2By5GTtuV6jKd0qqj8lH3tjQNzA+7j/t4Ao6Rr5Q9VcdRDlH0fq5BdcSA/D2Mke3bt07s+NHki2inAOJF0h2aDhQtaRnZvuJfgjzLry9uoXPvGDSvBh95NpsXfUeCdhZgRFmOpgQUJx6rnsbr+1cQhDAW+s5tuMAD4K/SP4p0gAqyjiTrsxOaP9Tz9EdexAH3k79qA2XmWl1jOaCH6agA8OZJB4+fQuX9iYJFEMY6GpSAN5i3vKVptreY9tvMvd7JW1HIkCFHguk3Szw32Vmtl+59vi2RhLBm7EFazZ4aOfFZi4ofYiCDgxnpx/V/0lJ1SSBIlg89rpl/0MMwL/Wc1RLe++Y6t/LNYM0AEhKuXRidcGW9MzsOJQ48GYatun8hskejUW3kN7vM3aPdbeoYpPDSAqkg50YUAxuV1vMXgcClEvm2I7PyX2h+K05gH+2ncm/3juz4/NhYDPHXbu0m0jwd6U3rTBztJ1ugf8yBh+3rjfVs7ukP8Q2bzY5jJRXDpvWUDs6fFlSLWlgmNbXD+S2t4XP9xEF8H/8K0212THVC2Q6mjQAbIas5KfXX7f8Rr70xj9tHMe2/8SlT0T+3Gc6o/HaZfPimjNX0DFiasfkD5Ab5RzDZ/o25Rz4ez0ntLRn88GdMt+VNABspnpJ12ePbf+PdYXUEeNvXLKSSPC34us6XeYfU8TfvhTIP6R4PX3+Hz4/MGJ7ufH0dhTnQGZaRArA/+k9tu1TQSF4RCbKOYChTNL+rSqV/2tmZvtRzh23eEPD9cueMdft0f8iwfbydHx7LgUdI7PjpKfXSPoYSWDYTI/WXbP8cYIAJJes99i2M0z6oSSezAxgWH1M5jdmZ7Y+3DOztY04IElBGJwvaUPEP+a47IutO1HQgUHIvdL/YfGwIhSnkdxCCMDrvzfPzGy7w6S5nN8BFI3ZBwOzJ7LHtZ/I1XSMubHzOZduiPw5MWXvo6ADg9lpPPw4KaAINuSr898hBlS6vpmtk7Njqn5npi+SBoBS9DJ3vzIzs+3ezNGtWxNHhRsI5kjqjXTJdVHQgUExo6Bj2Nx01/grV64nCVSy3pmtexbM/sTvzQGUfvqmjyllT+aObTmANCpX48LOV+W6IuJzxNgWdG5TQdllZrbvqMCfJgkU4ej74Ybrlv2KIFCx5fz4tsPMdYOkGtIAUNYzsPtldRNqz7H04n7iqDyvnD6tobavsFxSVO+oCAf6wy22WNjVE7dsuYKO8h/RU9F/fyJiobP+umW/JgZU5HFUssxxrRfa689goJwDKDdzs9Myr276LQ+Qq0wT5i3NmGtOlHtuzajgvXHMloKOETiihweSAoZfUOwWk5wkUHHb/iFKZY9rv1Gyc0kDwIjO6aR3B2aPZY5rnUEalacul79R0vORPV+G8bzNnYKOsuqZNX0Lyd5PEhimgSAcuIMYUGlenjm9PrNt2z2SMxkGEJWW3iDZTb3HtX3jldOn8YaeShr621duNNf8yBZ0M66gA28nNdD/UUlVJIFhurf++pUvEgMqSfbE5m1qg00PmuujpAEgej1dX6zN5f+cOb5tJ9KoHHU1G2+S/IVobpP+bgo68DZcztPbMWyh2SJSQCXpPbalwwup35n0btIAEN2WbtPk+mPmuLZDCKNChnzBmg3mNi+iH2/rvuPbJsUtU65konzlPK0gu1YfIQkMb0PSc40vLvsZQaBS5I5reXdowU8lbUUaAGKgXtKdvce179Gw1fZnWvqhPJEkW13Nxpuy+VGnS7Zd1D5b3rWbpDVxypMr6CibvldbdpM0gSQwHBb4t+wuFUgCFVHOT2x5T2jB/ZRzAHE7XZv5qdlX1/wyO7NpW+JI+GC/fhU9kr9Ft0C7xS1PCjrKpmDBfqSAYR9o3b5LCqgEmePbPhyGwQOStiANAPE8aetDnqr6c8+J7e8ljGSrq954o6QXo7cJancKOvCmxUr7kwKGaUndNcsfJwYkvpwf17a3pHv0+q2iABBnk4LQH84e134iUSR4nr9gzQaXroza53LnCjrwL71y+rQGWTzfRYgoHf11JyEg6XqPbf+ETD+lnANIkFFufmXmhNYbPL03z8BKqAHpBknrIvaxJsbtZxYUdJTnqNxX2EdSDUlgONxS3yEFJFnm+PaDLfAfSKolDQAJPJEfnV275t7XZrSMJYzk2fKa5b0yvzZqn8uC1K5xypFvsFCmHUP8/hzD9XjjVUuXEgMSW85PbDtE7t/m3Awg4farHhX8dt1JO3xi/JVLVhJHsnih+qoglT/ZpbqofKaCbBdJP41LhlxBR5n2Vn5/juEx+bdJAUmVPb5tP7m+QTkHUCEn9elVYf6R3uM7PkgYydJ43ZK1oXRTxLa3d8QpQwo6Sm79rI4WmdpIAsPgKfPvEQOSKHNC6z5u+pGkUaQBoIJsaRb+PHNi62eJIllSYepySZui08+1MwUd+P930rx/hBQwzEPrb0df1bWaHJA0Pce3vU+yuyWNJg0AFahWbt/JHN9+jktGHMlQd+3S52V+e4Q+0g4+Y/dqCjrwN74PGWCY2xDvPkfiZE9qf1dguk88rR1AZTOZX5Q5of22OJUovLVCkJonKR+RjzMqW9fTQUEHJLlkMu1NEhiGvFnh+8SAJOk5oaXdQ/+ppPGkAQCSyb+crV1/38szp/OlZQKMW9DZJUXo9bihx+Z36DyMBiWVndW2k0LfhiQw9DO2P1B/ZfdLBIGk2HBiy5S87AHJtyUNAPg7/z66euP964+Z8olxN6xeRxwxl9Ichf55ReGisGvnSH1h8Ba4go7SCrm9HcM8nobi9nYkxmtntIzNy+6TNIk0AOBf2jNVU/1w7rhpE4ki3hoWLF8s6ceR+DCmneKSGwUdpUZBx3BsKgThfxMDksBn7F5dvdF+IGk6aQDAW9rZUwO/6TmhpZ0o4i2Qz4nIR2mPT2ZAqSajaQWSPkwSGPI2JD0w/sqV60kCCdiWLTd6/UJJ/0YaALA5x01rDsx+nTu+bVfSiK+6q7r+LOmXEfgorW90Ewo6KlduffsukrYkCQyVud9NCkiC7Akt57n0FZIAgEHZJgz8V9kTm3llb4y5/MoIfIzRG9e1xOLnZRR0lHBv5PfnGN4WlPLgHmJA7Mv5ia2Hyux8kgCAIal3BXf3nNTycaKIp4bxXfdJWjbSn6Pg8bjNnYKOEtarkIKO4XhszDXL1xAD4ixzQus+Lt0syUgDAIasNnD7Qe+stgOJIn4srVDStSNeTQLF4l3ovGYNpdkB0gqy6+2DJIFhbEU/IQPE2frjpjUryN8lqYY0AGDYRpn793tntX2mccHyHxNHvGwcVXVbbX/+QkljR2xmyRV0VLLcuuZ3SBpHEhjywSkI+P05YstnTRqdqsp/XzyHAwCKqcbc78qc1HIwUcTLhHlLM+5+6wjPLSnoqODJaWB7kgKG4dkxVyz/CzEglsc/ybLhqFsl7UYaAFB01ZJ9N3NS238SRbyEQdW1kgojdn52p6Cjohv6BwgBw9iA7jbJyQFxlDmx9VSZPkcSAFDKku7fzZ7Y9kWiiI9xCzq73HX/CH6EFp+xezUFHZVZr+QUdAyZecDvzxFL2RNa/s1Ms0kCAEou5ea3Z09q+xJRxGqWd9MI/vHqnlE9UyjoqDh9szq2N2kqSWCIMnWhHiIGxM3646Y1e2B3igewAkD5Srr8tsysVu5aiomG55ffK+nZEWvoKY/8k9yZRKDoCgr34oVCGDr7uV2zfBM5IE483VSb7Rn4oWQ8FA4AylzSJd3Rc1JLZuyVXfcSR8RneXepkDnJb5FZeiT+fmhql/TTKGfEFXSUYM/j9nYMY/Mx5+ntiJ1sb3CZZO8iCQAYEdWB2V2Zk9r2JoroSxWCWyTlR+SPx+BVaxR0lGLD5wnuGKpCaKn7iAFx0ntS66flNpMkAGBEjZb5j3OzWt5NFNE25prla+QamfmeUdBRYV6eOb1e0jtJAkP0u8bLO18lBsRF3/Ftk8y0SOKHPQAQAY2h7GeZWW3TiSLiJTTwkXlYnIuHxKGyjK7ZuId4tgGGfMx0rp4jPttreu+qQsq/I4nfnQNAdGwp95+vn9XRQhTRNebZrvtdWjUCf3py1LOhSKG4E1bzPYwLSRiiwFM/IwXERbbn2fNl4pkbGKxNkl6T9Jpc6yS9pkA5uTJyuZmtl6RQ6pWFhbc5agYWamuZtpZ8O0lbS5rwxsLJGJXLNDGlwi9yp0/7YN28pc8TSASH6C4VMrO0SNJFZf7T9etOaho3/sqV6ynoqIydzWwPUsAQvVC3YNkTxIA4yJzauq9CnUUS+BfWSVoqqdvcVrnCVUFgq0LZqpyNWbXtZX/NlfoD+CFK5ZqaJigfTJBp61A22WRN7t5ipma5mmSaKO6kRLK1hPn8z3tmTfrQ2AVrXiOO6Amqq24N8/nzy91JqxVMlkRBR8WgoGNoE0rTz01ykkDk29dJTeNU0NdllJuKZlor6XGXnjCpU6EtVcqfabhsxcsj/tHuUkFa+aKkF9/0mHt826jsKG9XqOly7SLTdEk7S2oWV9+RHNMDG/VjTzd9xNIrNxJHtNTNW/p85uTWn0g6qKzHSNNkSU9S0JF4udOnTQzz+e1JAkM6WIbi9nbEQiqVulKuSSRRUTLu+o0FetRDPVYdhI+Nvrx7VZxXyK5ZvknSU28sd/7vf/7iqbvUjfHsrpLtaa+/leV9krZhE0CMfSDbm7rdpc9zISCCxyKzm9y9rAU9lEX6d+gUdBRNoZDfg6/cMdTNx/urf0EMiLreWW0HmvuXSaIyCrkCPeQWPNxYv/2jln4oXwkr/sYt+L95Y5EkrT+trbUq1J7uer/kH5S0k7g9HvHy2dzJbSt1xfKvEUW01DUs/0Wut6XbZc1l/LMUdFSGwH0PvpbEUJjrkYbrlqwlCURZz6xJW5iFN5FEYi026V738L76sU2//ftCvqyigxk3f/kKSSskfUOS1n9tynjLV+2ZCrWXSx/Q6z9vG8UmhChz+RmZWS0rGxZ03UgaEZoDphVmZul2mV9Qxm2Bgo5KOfDx+3MMcdsJdD8pIOoCq7lG0nYkkRh5yX4p97vzHt43/sqVK//v/7WSdN6qsM9dvU7SvW8sevHUbepGq27vIPT9ZLa/XNNICdFsg7omd3LL6rorunita5QKaeBfz7udrzLdmWNuk6K9mQLFKFhpBdlMy2uSxpIGBn8kCvZpuGz5QwSBqMqc0nKwpB+QROyFkv9KsjtdVd9vvLzzVSIpvg2nNE8dMO0XuB3o0kck1ZIKIiQbBMGH6+Yvf4woInWe/YWkfy/Tn1vWcHlXBwUdyd6pTpq6o1Kpp0kCQ7CxviEcz9NVEdnj2/FtE1QTPqXX3zGNeHrSTLdaMPC9unnP8k7kMnp55vT60aP7Piq3g2Q6QNI4UkEEvFBVpfeNvrRrNVFEQ/aUls+79O0y/bkN9Zd31UX1oYEUdBRnpzq5+Ytu9g2SwBA82HB5177EgKjqPbX56+Z2KEnETkZu3w09XDR2QfefiGPkeXp6TS6T20cKPufSwZIaSQUj6KmNqeo9J8xbmiGKCBwfZk0anQ1qnpM0vix/sD/YuuGa5a9EMQuewImiCAPblRQwtCOyPUgIiGzDm9X0YXP7EknE6qDyuLsO37Bh9MSGK1bMoJxHh6UX99dfvvL++su7vlof9m8rt8+Z9BNJA6SDEfCO2vzA150LltE4PixYs0H/3ysfS16Ca6P7JHceEofi7FSud5EChtbPnYKOaG6b6ek12ezGG+TO5C36Qkl3y4KreJ5F7Cbjd/aeucOW1t//WcmPkPjCH+XcEHVQ9pSWc3V514WEEYkz73ckO7o8Zw3fJqopcAUdxdqh3kkGGPxmo76GhtFc3UIkZbIbTpH7jiQRaVlJVxXCqvaGy7sOopzHU+OcJWsbLu+6vuHy7t2CUO+R281vjC1QDuf3ntz8SWIYefUN3b+RtKY8U1DfgoKOxNpwRssUybYkCQya6XeWXtxPEIia9adObbZQ55BEdIdI5hd5TU1Tw+VdJ41b0NlFJMlQt6DrkYYrVszYmKqeKNlRkj9OKih1HzKzb2ROmsoXsiM9LUwrdFlZbnN38/FRzYFb3DFsA4VgV7OQIDAUvyUCRPLk6KmrPdAYkoicVyVdl8+HV46/cuV64kiuNx7ctVDSwtwprbsXTCea/PPMXVEijapK/WjdSU3v5dgyslIp/24Y6pQyNHSuoCO5zENub8fQth2zP5ACoiZzSsvBbvoESURKj0tn5ZRrarisK80EurLUXb7i0cbLVhxasGAHya+WxFO3UQodqargW56mH43o/j6v6xFJy0o/CVVkr6CzAaIYGzgPiMNQhPnUwB+JAVHix7eNMtNlJBEZm9y0wKtrWhsv65qz7WUv5Yikco2bv3xFw2XdJw6kNNmlr0l6mVRQ3CmtDshlWy4miZEeCC/5be4up6Aj0QczCjqGYsm4uavXEQOiJFPrJ7rUTBIjzmX6Vr4q3KFxftfJjXOWrCUS/K8tLu3qabys69L6+o3Nkp2oMj1UCpVy8NHXek9tPYgkRrBbFPT90pdgbnFHQq07qWmcS00kgUEffKXfkwIiVc7PbJtg7meRxIj7i4f2gYb5XV8cP3flSuLAm55H0s/3NVy24ur6+tGtcjtK5jwsEEXZtEx+67qvNTG/HSH1V3Q/oRLf5u7iFnckVFXKdnm9awGDE8op6IiWgfACSWMJYsSsl9kJ9au63t14xYrfEQc2v6gv7m+4fMXC+p4tdnjjHcrPkQqGaVx1Pviuz9i9mihGaL9Wya+iR/YKOk/CxPAENp0QMKQDb5DiAXGIjMwZbdMVhkeSxMhwt28ENeFp9bO7XiINDPm8svDRAUk3+axJd2SqRx1nHp7Ba2Ax5OOS9N7MuHVzpTI8URz/vD+7/cADP7OE3wBwBR2JRUHHUKyvH738GWJAZCZiYeEy8aX1CMzA9IJLBzZetuLQ+tndlHMUZ7NasGZD47wV8wcCa5X5RXJlSQVDK4ma1Xtq84EkUX51l6941KTu0p34NY6CjqROaynoGMJmY3+0tEKCQBRkz2ja32QfJYmy+0440P+Oxvld9xAFSmGLS7t6GuZ1n5cqVO3g0jclOalgsB3dTLf1ndw6mShGYr7opbzNvTaqr9SjoGO4x62dyABDOOLy+3NEY0uUzMNgNkmU1asyP6RhftcXxi5Y8xpxoNTGLOh8rnF+15c8sA+49AiJYJBz3S0LKf+Op/fmLqsyK8h/UMqBfUXTx1DQkSi9p3RsZdLWptefEsfCstlL4DwACpGQPb3lIJN2Y78s1+IPpfJV72qY1/19tj6UW+OlK37XML9rD5N92aSX2B9ZBrHslcutvoi9qMz77GUr/2TSqlKN6+jsRgo6EvZ9ooXvIAUMQdhv9idiwEjztAJzpUmiLPLmdl7dyu5/H7OgkydsY+TmLpLXz19xx8BAuIPLF4rb3rH5Ts+e1rwfMZR3f5Xpv0v171dXpeqjuN7cqoGhSxWmy3nDGgbt6S0u7eohBoy07IbWz5j5ziRRcs+G7v/VeFnXr4kCUTH+ypXrJR3Ve1rrHUHgC+XiJ3t4O4EU3NYza9LO/DynfDwIfmxheFIp/u2BfIEr6EjYUcr5/TmGcKCV8Xo1jPx2eIhSFvr5JFFqdn+Yqtm1cX435RyR1Dh/xW/r+oLdXLpA0iYSwducPSamqmquIYfyqa+d9BtJJflCJBUUInkFnYKOYRQtn/76nWEsLJu/BAr/zN6DkZZrbv6CzHdgnyzZ4i6/pK57xccb5yxZyxaHSH+NdM3yTQ3zutKuwq6S/4n9l+UtF/MvZE5rPoQ9p0z7Z/qhvNzvK8VYhgrqKOhIGq6gY/AHWukvpIAR/XIxvXeVSeeRRMn0mPlBDfO6z7G7VCAOxEXDvFXP1I2Zutcbx4cBEsGbzmVM12dPa9qWJMp03pbuLs2c1CnoSI51JzWNkzSBJDBIhdEDA08SA0ZSrm/V511qI4mSeCZM2R51l678MVEglsUr/VC+bl73Rebh+yRfTCJ4E1vJ7GZiyTHagAAAIABJREFUKI/+jan7JfUX+98NzfkNOpKjpjZoJwUMfuZjS23Bmg0EgZHir79Z5TSSKIlfDPT7no1zujqJAnFXN3/VY3Vj9G5Jl0sKSQT/widypzUfQQylt+U1y3slPVj0aWloNRR0JGeS62rnpZgsg14Ucns7RlTfGS0HyLQz+2NxF5cW1q3f4uNvPBkbSARLr9xYP6/7VFf47zK9wL7O8k/HvkBX9nytlTuyytE9TD8p9vhZyiL5RjMKOoZ20vKQK+gYiieIACN6gpefSgpFVXDphIZ53UfZwkf5zS4SqWHeqgcV+m6S/oc08A/qUgoXeZpOVWqpquBuvf50t2LOCijoSNAk14xvC0FBR6z0nd68h6S9SaJoNph0UMOl3bxyCIlXP3/li3Wju/c31zmS8iSC/5sU68PZvpajCaK0xlyy4llJfy3mvxmGXEFHsnAFHYOXMm5xx8jNoUynk0LRrAtl+9Vd2v0TokClsLTCunndl4SyfSR7jkTwt23DfHbu9MkTSaLkSd9f3H8vpKCDgo6K9nz97O6XiAEjYf1pba0ufZokiuJFhb5v46VdvyEKVKLGS7t+40Gwq+QPkAbeMFZWdTUxlJZbcQu6BUGKgo5E6D1z+y0lbUESGORhkNvbMWKqU4WTJaVIYtiWpczfXz9/JXfDoKI1zFn+St26LT9q0nWkAUly6T9ypzd/kiRKp7629jcmZYs4alxBRzJUFaq5eo4hnLj8cVLASHjl9GkN7voiSQxbp3l+79FzV64kCkCyhY8O1F3afZzcviipj0Tg0rWvnD6tgSRKtM+lF/e76aGi/YP8Bh1JEZq18WoNlsEv/lf2HoyE2mDgSzI1sg8Oa1lqqXDvunnPPs8WBfy9+nld3zK3D8vsOY4VFb4Emjw6GLiIvaKkX4LcX7TXrAVcQUdSdgye4I6hbDchD4jDyDA5T9cdnk4L8/vWzV71AlEA/1rdvK5HLBzYQ9KjpFHxM57j+05veh85lEZYKOLv0F0FCjqSMtltJQUMUq6hu3s5MaDcMmc0f0jSziQxZEst4Mo5sHkl/dnn+2rH7C3pXtKoaEEY2PWe3ruKKIpv7PyuZS51FaefW0hBRyK4REHHYLeZJ+2uaH5LiWSzwI4hhSFbk3LbjyvnwObbOr04W7ei+1NmPDyuwu2a27jqRGIoUYE1L85VdHOuoCMhE14KOga9zfjTpIByy57VvI3cDyaJIVnrVth/9KVdq4kCGOQ57y4V6uZ0HyfzWZJCEqlY52VObd2aGEogVJEKulHQEX9vPJmSgw0G29CXEgLKvtkVdLikGpIY7O6qbGD+8YY5q/liDRiG+jkrr5TblyQNkEZFalS1X0gMxdfnox4oyn4VhhR0xN/oqk2tPKWTZdBPyZQtYe9BOblkbvoK+9+glwEPdPCYOSv/yFYEFKGkX9r1bTP7tEx9HF8qcf7jR2TPaOE5KEU2Yd7SjEy/G+74OFfQkQRmNpkUMFgFCjrKLHN26/tlaieJQR7j5cfXz+7+BUkAxVM3p+u+INA+ktaSRsVJKQivJIYS8OE/zT2Q5ynoSELT2o4QMEj9DaOmdBEDylo0Qz+UFAad2ry6OStvIgeg+MZc0v0nmfaV9CJpVNyxdd/cWS0fJ4cipxoUhv87dK6gIwnCwCaSAgZ38NMKSz+UJwiUi6ebak3+GZIYTGi6t25511kEAZRO/ezuvxZS9iHJniONCjvEhn65z9i9miSKZ8zsVY9LenlYvUYWybtaKOgY7CGGK+gY5Lyf29tRXtmNdqCk8SSxueyxunzfZ3kVIlB6Yy/uWhZK+1LSK+0wq2nZrV47miCKGalcrp8P69+wMJJ3eFLQMbgN2cUVdAx2m1lGCijrNmfi9vbNn+G8mgr8YLvspRxhAOXROKers5DSPpLWkEZFzYfOX/+1KXx5XEQu3T2M//kLdbNXPhHF9apiaLHZO8GM3atz9mrT648+BDa3LHk3KaBcMunWrdWf/yjHqc0SKrT/Gj23exVRAOU19uKuZT1fa90nFeQflGwSiVSELauUOkfSKURRHPX5vvtyo0a/KNe2Q/ifX2OSR3G9uIKOty/maQXZM5u/1LfV2mckeweJYFDbT8F4QBzKpz9/iGR8+bwZzO38+rndPycJYIRK+twVy/NBuLek50mjYg68M/vObuWNSMWK87KXcgr1tcFPTrW4rqb/qqiuFwUdb7HtyjJnT/2PXH/TkzK/w6VWUsFgFaqMK+goZ+k8mBQ2K6h7xozqnk0QwMgad/GzKzwV7idewVYpagteOIcYiqd+zsqvS1owiP9Jdz5V+JSln++L7CmaYcW/kjtr6sfcgovkvjtpYDj9vK6mboylF/cTBUqtN92xVdC/6QWuoL+tZ/Nh+M5xc1evIwogGvrObt4jdP8fSQ2kkXgD+aCw47iLn11BFMWTObPpGDPNljTuLf5r3/aa1KyG9IqXo7wuFHT848b94cDsEpfvRRoogtX1s1dOJQaUQ+6sqYe57BaSeEsFd/1bw5yVDxMFELE52FlT9zHZfZJqSSPp/Jv1s1d9iRyKq/fM7bc0q/pcINvXpcmSQpM/K+kvBU/d1TinqzMO60FBhyQpe1bTuyTNk/QR0kARPVw/e+XexIDyHMea75H84yTxFlNC2SUNs7u5vRKIqNyZzZ90C3/AnUCJV3APd2mYs/pposA/YuevcJl069YayF8s6TBJKRJBkfH7c5TF2nRbowby/04Sb1XO9Yf66qlpdksguurmdN+dO6v5GDe/mTQSLRVY6kJJ/0kU+Ec8JK5SJ2rp6TXZs5tPtYFCp8mOpJyjNIXAeDItymLUQP7jkkaRxL9m8mx1IfwvSz+UJw0g4iV9dvcil/EQx8TPkfzg3FlTdyMJUNCh3NnNB+YGck9JPl/SWBJBCb1ABChPAdVBpPDmQgVn1s5dzSsPgZiov6T7HJm+TRLJPnW52UXEAAp6BcucOWWn7NlN97v8bkntJILSn3pCrqCj5Dy9d5Xz/Iy38qv66u7riQGI0elT8rqeqsMk/Yo0Eu2A3jOn8GBmUNArzdp0W2PurKlXW2BPSNqPRFAuqQJX0FF6mU1d79Vbv1alkm0oWHCEpRUSBRCzkn7N8k2F6vxBkpaSRoLLWBDw4E5Q0CtJ7uzmA0cN5J9ys+N5IijKPrkIU8+RAkq+nQX2UVJ4M37O2Iu7lpEDEE9j02teC8Pgk5LWk0ZifTR37pTdiQEU9KQX87Ombpc7a+pdb9zOPplEMBLNoLYveIkYUPKC7rY/KfxLj9d1rrqKGIB4a5zT1SnX5yQVSCOhEyYPTicF/G1eQwQJ28El6zu3+Uh3ny+pkUQwglvjq/UXr5pADiil3nTHVkG+/yXxhfM/7YCB+V5jLlr1e6IAkiF3TvO5Lr+QJBKpEBaCnRrndHUSBZjQJEj23Jads+c0/dbdb6KcY+TxijWU4SRW2LQf57J/uf/dSjkHkmXMxd0XS/oeSSRSyoLCacQACnpCeLqpNntO02x5+KhJ7ycRRGPD5AFxKMd2xu3t/8JrYVX114gBSBaTvK+q7nBJi0kjgeNrdmjf2ZO2JwlQ0GMud+7UXXN5PSLpTEnVJIIIoaCjHA19XzL4h0SkcxrTna+SBJA8W6cXZ70QfkZSH2kkTk1oVacQAyjocZ2AHaJU9pymM9ztD5Kmkwgit42a8QR3lNSGdFOTZJNI4v9jWlJf1XQzQQDJ1TBn9dOSjiOJRJrRm+7Yihgo6IjbpPScqc25aU0PSJorqYZEEE0hV9BRUoUB+yAp/EM/L/ipln4oTxJAstVfvPI2SXeQROLUpfL9xxIDBR0x4ZLlzm06umD2pEwfkkksLJFdAr3IXouSHhNTvhf72t8tD9bNXnUvWwZQGfqq6o6VaQnHvmQtbjreZ00azRZOQUfE5c6aul3u3KZ7XbpBUh2JIOpSLp7ijpIyF1fQ/7/vK0whTwAGKsjW6cVZpeyzkjaSRqJs2Vdf/V/EQEFHlMv5ec0HesqelPQx0kBc9Hv4MimgVHrP3H5LSTuSxN/cWXfR6keJAags9enuv0p+Nkkki7sfTwoUdERx50zvXZU5rynt7j+StCWJIFbbb1VqLSmgVFLV1R/Q6zcEQgo9lbqEGIDKVJdadaWkh0giQUy7ZM5p2psgKOiIkA3plinZwspfmet8xglxLAzjtLKXGFAqLt+LFP7muw3pFU8RA1ChXS6tMJXSVyVx3k1SSTNxFZ2CjqjInTPlE4VC4XGTv19ysbDEcFlnaYXszShhQ383+5lL8kKY0kVsEEBlG51eudLMT+aYmJzF5Z/acM7UZrbuylNFBBGab87YvTq37atzXDpZ3LqJGDNpHSmgdN1cljPtShKSpO82plcuIQYAdReuuiV7XtOnJD+QNBIhVQjsaElnEEVl4Qp6RGxIt0zJbvvqw5JOoZwj/gXKKOgomU3pKc2SxpGE3AOfTQwA/pcFhaMl9ZBEYo7yR3h64hiCoKCjzHrTUz5QCAt/Mun9pIGEnFB4QBxKZqCgd5OCJNk9DenVT5MDgP9Vl372eXedRRKJsUVfWMUr1yjoKKfMuVNnBqE9IGkb0kCCjizrCQElq6UBt7dLkrsuJwUA/6g+tepGl35PEgk51ivgYXEUdJRlZ0urKnfe1KvNdJ2kahJBsk4mypICSibUboSgRxouWvkwMQD4R5ZWqCCcIWmANBIxq9q579yp3GVLQUcpZc9q3qYvnPqgi9cnIKGTA1kfKaB0G5hV/BV0d5/PhgDgzTSkn33KTRwnEiI0HU4KFHSUSO7cKburqvBnlz5AGkhuewhzhICSHEPTkydKmlDhMaypT63+IVsDgLdS31u4WFI3SSTCZ15OT6gnBgo6iix7XtPnPWW/ltlkmcTCktTFAuMWd5REGAbTKn7/ki+ytPJsDQDeii1Ys8Gl05iXJGJpGBPWHcJWTUFHUcv5lBMV+LfkGk0aSDoPnSvoKNVZa8cKTyBvhXARGwKAzdFw4aofyOwXJJGAL1zMDyMFCjqKUVQOUSpz/pQbZHalnPebo0JOIoFR0FGabcttWmVP0PTjMZeseY4tAcBmz0UL4SyJu25iP47SB3rTTTuQBAUdw/ByekJ9bvrUn5jsaNJAhZ1EeEgcSiTcobL3Lb+RbQDAYDRctHqxy7nzJhnF7SukQEHHEOXOmrrdGI35lVwfIw1UXocyJwSUhFXwFXTTqjqtfoCNAMBgueXPlbSeJGI/kod6WlXkQEHHIGXSU3byGv1erl1JAwCKNC1JTxwj1+SKXX/pm5ZWyJYAYLAa08+/Krd5JBH7E8F2feEULv4lHN/AFL2cN+1t8v+WNI5fnKNi8dUfSiCnmg6ZV+zW5bJvshUAGKq6hg1X53K1J0jaljTiKzQ7TNJPSIJpNDZn8njB1I+b/D5J40gDAIp8wjJvrty1tz83plcuYSsAMOSjyGkv5Vy6hCRiPo7SAT3pSVuQBAUdbyN7QdPn3fXfEq9RA4BSKLhX8O3tIVfPAQxbveoXSuomiVirSVnVp4ghubjFvRjlPD3lUHO/hTyB1/HrDpRCSjalQp8+GJr8+2wBAIZ9fk4v7s+mp6RN9nXSiDEPPyvpNoJIJq6gD7ecXzD1FJPdTjkHgBK3VFmlXkH/fV362efZAgAUQ91Oq78l6RmSiDP7t8zstgnkQEHHP5XzKWeY6zJxwRAASj8dkU+tyPU2+wGjD6Box5TPqODmc0gi1qqC/vx/EENCB5cIBs9dlrtgyhUmO4lqDgBla+gVeQXdAv8Rgw+gmOp89Xf6bOr5klpJI6bnBvPPSrqRJJKHK+hDKOd9F0y92sxOIg0AKNOxNz29RpX5aqDHRp+7igc6AShuuUsrL9Nckoh1J/lQLj15IklQ0CnnF069SqbjSAMAymdD1cZtKvKc5XYPow+gFMaE9XdIWk0S8e1xZnYIMVDQK3uCeOGUOZIfL7lYWFjeailwwEBxe2o+P6ES9yWT38/oAygFSy/uN9N85izxXVz6LFsyBb1iZS+YeoVLZ5AEAIxAQZdvUYGrvW70Tqv+yOgDKJXR9YVbJHuFJGLrfRsubp5KDBT0ipO7YMpsk88iCQAYoZOVeSW+TuZ/7DPcjgKgdOzkNRvk4U0kEd8h9ELhk8SQLDzF/W30XTBlnptOIwlgEJwIUORNKgi2kFfYhuXG7e0ASq86uF4FP11SDWHEcsr1CUnXkERycAX9LeQumJKmnANABISVdwU9CPQAAw+g1OrOXvWCpO+SRGzt/cql0xqIgYKe/HJ+4eSZMp1PEgAQAeZbVtgaP8fr1QCUiyu8jBRiq6Zu48b9iIGCnmjZC6d8UTJuFQGAqPRzs/GVNVm2XzPqAMql/rw1T7rsYZKI6Tkj8ANJgYKeWLkLphxo0m1kAwARmny41VXS+ppCCjqA8pYCD28ghbieJO0A/55SBEFBT5y+i6fuKdN3xMPzACBqaitqriWnoAMoq9He+N+8ci22Z40JG5ZM3YMcKOiJkktP3c1Dv09SHWkAQLSYwtrKWVdl6sI1ixl1AGU99qQX97v0DZKIaUV3bnNPCq4US9qYntJSSPlPJY0lDaAI+OoPxZ54WDC6Ut7fF0p/sbRCRh1A+Y+1WmTSySQRQ6ZPSDqLIJhGx15PetIWYUr3SdqazQEAImt0Ba3rYww3gJHQcO6qZyT9hiRiaecN6aYmYqCgx5qnm2pTqeBHLk1jUwCACB+vvYJ+g+4UdAAjeAgyLSKFeApT4UdIgYIe58me5VJ+m0kfZDMAgGgz84q5gu4pp6ADGDF1+Q0/kNRHEjE8f8j2JQUKemxtuHjKHJN/jk0AKMEJwq2eFFBklfLMlE31A88uYbgBjBRLv5J16SckEcOxk+/jLiMJCnrs5C6ceoRLZzD8QIkKurQVKYDz1ZAss7TyDDeAES165t8hhVjaJjt78nRiiLeKe4p79qJJH5X5DQw9UMIm5b4lKaC4s8WKWdNnGGwAI21M46if9fX2r5M0njTiJeW2r6SnSCLG8+hKWtmNs7fvMAu+I14vB5SUm3EFHVR0CjqAuB5wT1i+SfIfkkQM52ASv0OnoMfDa3NbxoZh6seSxjHsQMlNIAJwvhrCpNicgg4gGkXPjNvc4+nD/j2liIEJT7QPMN9TalQ+/22XdmDIgXK0DAo6SrBVVcL5SkEnQw0gCuoGVj8s6TWSiJ1xfZ2TdyUGCnqkbVg6ZY6kAxhuoGwtY2tCAOerwSsMDKxmqAFEgaWVN+lekojjNIzXrTHhibDsJVO/4KbTGGqgrLiCDgxeX2P6+VeJAUCE8Lq1GDJ+hx5riX5YWm7OlN0V+iLeBgiU3RhPT6i39CtZokCxZhsVsIpcPQcQKRvyNffXVvf3S6ohjVjZy9Oq4rWdFPRIWT9nyniFfpek0QwzUH4bU2MmSKKgo0g8+WvoFHQA0bJlenlv7pLJD0ranzRipT5Xvf07pOf+QhTxk8hb3D2toLqgb0pqZoiBEdoPUwV+hw4MzrNEACCCuM09hsyDPUmBgh4ZfTWTzpE5D4UDRrKgy7YjBRTRhuSfkZ0r6AAiJxX4/aQQw4Iufx8pUNAjIXvJlH+T23kMLTDCJ4bQJ5ECiij5r/pxW8MwA4ia2jPXLJe0kiTidkoxrqBT0Ede38UTJ5v8u5JSDC0w4rYnAhRtolEBBd3cMow0gIgehB8khNhp6U1P3IoY4icxD4nz9PSavqD3LklsiEAUBAFX0FG88iqtTfyT3APGGUBE59kp/6W5fZUk4nXqDEaldpP0c6JgOjAiNtT0XiLpvQwpEJWzOVfQUdR5xtrkr2PI63AARPMIHKYeUCW8TiNxczHbjRAo6CMiO2fyfi6dzHACEaoaxm/QUcTJoYWvJn6fCYNeRhpAFNWdveoFSc+QRMzOnXIKOgW9/DLzW7c21+3i5kAgWicFrqCjmOXVLfEF3QKnoAOILtevCCF2KOgU9DIfJ1wWDPR/XRKvcwKiZ0xm9rYTiAHFaa/JL+iFfIGCDiC6826zP5BC7LS8NrdlLDFQ0MsmN3vyyZI+yjAC0ZQKq5pJAUXp5wpfSfwJeVRNDyMNIKpCBX8khfidPmvzhenEQEEvTzmfM2V3M81mCIEonxashRBQpG0p8QW9ri+XZaABRFXDmSuXSlpHEvHiKX8HKcRLLF+z5umm2j4Vvi5TDUMIRFdoxhV0FEWg1CuhFZK9kluMHZBeYbABRJKZPDdHfxR3r8arNynkCnrs5jwxlBuVnyuJjQ2I+slc4go6iqJ2VP4lJf0VP68tLzDSACJ+Zuc297iVPaMzUdBLLDNn6r4mO56hA2JwGreQK+gozrZ08poNkpL9LvTzRUEHEPUT+58JIV7cjYJOQS+d1+a2jA0U3iZeqQbE5aRAQUcxt6hnE7xyBbOE3yEAIP7FIR88RQqxs23vZRO3IgYKekmM8oGrJE1h2IDYmOLp6TwrAkViSS7o5i5jjAFEWe3Z3asl8caJmKnuD7iKTkEvvtzcyZ+S9GWGDIiVquzobCsxoChcSS7ogRZMqmWQAUTZ63f6+GKSiJfQuM09VpPnOHzInismbaF+3cS1BSB+UmFhB0nPkASG3c/NnjVL7l3gmTCsk7SBkQYQ8Zb+pKQ9CSJOJ1AeFBcnsbiCXtVvCyRtw3AB8RNaMI0UUJxJYZjkK+iq1qg6BhlADDxJBHHr5xR0CnoRZedO3l/SoQwVENNO5b4DKaAYUgpWJ3n98vlCPaMMIPLlIXAeFBe3uRivWqOgF4vP36bOpOsZJiDOZwVxBR1FMRAWEv1TiSppPKMMIPLCsJsQYmer3tnbb0kMFPRh68vXzJXUwjABscYVdBRF41nPrZX0UlLXzy3cmlEGEHW1Lc8/J6mfJOKlSinmYxT0YZbzuRP3lPlMycXCwhLrZVzukqnbcbhFMZh8cVL3FQ+dgg4g+sfhz6gg+bPMb2J2jrFwR7beuHyZEkGeVlWfBdcrZu9pB/Am+3Qq3EXSCySBYW9Lpqcl7ZvMWa/xMFQAMTlcaaVLvEY1TmMW8JPDuIhkAc6NnnSKpHcyPEBSzgq+CyGgOA09wQ8nMk1ggAHE4lAs8Tv02J0++ckhBX2INsxpajLpPIYGSNSBZmdSQHG2pdTiBM+eJjPCAOLBVpJB7EwhAgr6kIRB/hpJYxgaIEG9Q+IKOoqivyZ8OsET3qmMMIB4nNfDNaQQO9sTAQV90PounXSwpE8wLEDi7Ojp6TXEgOEae/Ka15TcWyubGGEA8WjowYuEEDtb+hWTRhMDBX3z9/P0hHqXrmRIgESqydX28HASFOd8If0hoas2dt2CpnGMMIDISzkPfo2hTXmbSArRF5mnuPfV1Z7F7++ARNtF0pPEgOEKTH906fNJXLeasL9Z0uOMMoAocw28aFZNEHEbt0DbS1pBEhGf50ThQ2ycN7lV7iczHECS2bvJAMWZYfgfE7tqeXsHAwwg6upzL70qKU8ScTt9iivoFPTNU5AWSBrFcAAJrudBSEFHUYwePfpxSZsSeVI244GKAKJ/Tk8rlPQyScRLGPKgOAr6ZsjOnby/5AcyFEDCue3q31OKIDDsieEJyzdJeiKRu4n8nYwwgJgcjXlQXPwqOlfQKehvMxG5afdqC8IFDANQEepyXZN2IgYUSVJvc+cKOoCYcAp63BhX0Cnob2NDz0szJduRYQAq5LwQ2HtIAcWZY/ivE7pm2/Rduv0kRhhA9A9X/hIhxGzIKOgU9Ley9uq2RpfOYQiASsLv0FEc+cAflBQm9My8JyMMIPr93CjocePGG7Mo6G+udtOG02XaSiaxsLBUysIVdBRH46nPvyrTX5O4n4SyvRhhADFo6C8xr4ndMtnTTbVsvBT0f5JbMHU7yU4ifqDivNPTE8cQA4rB5Q8kcs4rUdABxOBgFXAFPYbdL1sbthJDtFWNyJYxUEi7qY74gYpTvXG0vVfSg0SBYc8N3X5pppMTuGrv9Osm1Nuxr2QZZQCRPQZb+LLcCCJuDb0qnCJpMUlEeIzK/Qc3XjpxmpsOI3qgQqUCrg6iKMb4xl9LGkjgqlX15UZ9iBEGEGkFyxNC/JhsHClQ0P9OGARzNEJX7gFEgDsFHcWZZJzxakayPyVy3Uz7M8IAgKJPw6TxpEBB/5u++du/X9KniR2oaO/39Mi+4hFJKrLhfQldNQo6AKD45S/0RlKItvJeyTabrdefIQigQrk0Nlc36R3Smr+SBoY90UhV/XehULgkgas2bcP8qc2jT1vVzSgDiGyLCIkhbkJ5PSlEfG5Trj+Umz/xQEl7EzkAM/sAKeD/sXfn4XGV9fvH78+ZJDOTtHRJ0iwtZRUUBGVHFgFFlkLZCoUKlpbSltICIriA6DcKKAKylLbQUii0QCVssojiggii4MYm4lIBgTZbm67JzCSZ8/n9UfTnQqHLJJk5835d1/zjhVyc+znnPM+ds+VC/MJ/vCbpz5FcRAXhUYwwACDHazCuoFPQJW9ULLDg28QNQJJMOoQUkEPfj+Rx4j6GoQUA5LSXyQeSAgVd6bdGnObyXSUXP378+Enhp3kOHTmcyR6K6LFy6NqZtdUMMIB8rnv8CutnEre4F3tB9wYFoXQpUQP4N5UdA4fvRgzIheSF7/xW0jsR3LRYSSY4jhEGAOSKcQWdgp4aOHyMyXchagD/cfJxfYoUkJPFhsll9v2Ibhy3uQMAcsZlfGatmAu6u0zSV2USP378+P3Xj4KOHAoXR/E4cdNn1l29bS3jCyAvsZYpvF/Ad9CLuqB3frf+eEkfI2YA7+EQn7tXKTEgF8ovWvYruf4SwU0rCYLucYwwACAnnIJe1AXdLLiMiAFswMBUZ/PexIDczTm6O6Iz9QRGFwCQI4PfvcsZxVbQO747YpTkexExgA3x0I4kBeRwh1qo9a+pjdh2afd11w//OAMMIJ+YwjgpFKQS3ceXdIqyoJs7V88BfMDk7qNIAbniN6/6AAAgAElEQVSSvLjpH5I/E8nJOrSzGWEA+SQrJUkBKJCCnr6+/nCZPkG8AD7AXutuGFZDDMgV92BRRLfszParth/ECAPIFxaqnBSA3CvpjX9p6HYZTzYA2AhBLCw9StKdRIFcyPSU3Zcoy9wgqSJimzYgEe8aL+kmRhlAXhT0mJLu5ADkfHGc639hx7V1e0k6hGgBbAyXuM0dOTP0K6+vNvk90TxY/Dxv4LlBAPkyfwcVpAAUQEE3swuJFcAmOMIbeuduHhSnrNvsiG7ahzoGb/0ZRhhAfgh5Bh3I94Leed2I4TIbS6wANsHg9OCtDyAG5MqAi5a+JOnZSE7aYfgVRhhAPvAw4Bl0IN8LuhTOkFRKrAA2aZL38HhSQE6ZR/Uq+qGd3x2+PwMMoN9Ps4EPJAUgjwu6z60vl2wykQLY9BOITiIE5FJy9ZAHJG+O6Mx9CSMMoN+FzldYgHwu6J0dmiCpkkgBbIZt110//OPEgFyxhle7XDY/khvnGr3uuhG7McoA+vVUZEE1KQC5l5MXM3mDgpTZBcQJYLMLlduJkl4kCeRupyqZI+u5WK5E1LYssPAbEneeAOjHE5H5MFIAci8nV9A7t6o/RtJOxAlgs09G5ieSAnKp4sJ/NJnrzkhunNsJndeN2JdRBtCPuMW9UP1JfME+6gU9ME0nSgBb1Dek3dLfHc4f+pBTptjVknoiuWnmVzPCAPplznaZJG5xL9DhswaFxBDhgp6+fuT2LuO7rAC2WBhz3uaOnEpc+NbrMt0f0c07JH19/eGMMoC+tnb28KHK0aOy6PuCTgQRL+ih9UxWzj/XBqBIp4yxhIBcC7O6KqoLklB2rTcqxigD6EvWFaslhQKeOhDdgu4Nu5bJbSIxAsjRlL93+sYRHyIH5NKAi5a+ZNKPIrp5H+t8ZzifOAXQtwXCw21IgYKO3rFFt6akhqw6Qc4LIgDkjrufKukKkkBO96vAr5Db0VHcNjNdvmrOyHsHn/vWSkYaQJ+I+daEQEFH79iyW9NdU4kQQI6r1GlkgFwrv2DZryQ9FtHNqyrr6mlglAH0GRMFvYAXWkQQ0YK+/m3Lftj6MebHjx+/3Pxc2nXtjTUf5fSMXAsDXSZ5GM1jR9M7rqvbm1EG0Cf9PNRI1iwF++MKelQLejamMyUZEQLI/Ykp4Co6cm7A+UtfktQY0c2LWWC3+dy9ShlpAH1gJBEUJpeypBDBgu4NCkx+BvEB6A3mdtq731gFcjvpWfB1RfO76JK0e7pz2cWMMoDen6i5xb1w50FucY9kQU8PGX6I+MsZgN6zQ3pm/YHEgFxLXPDO38zt9qhun5t9PX1D/c6MNIBeO880qETiJXEFO34e2T9SR8ZmvcU9dB9vXNsC0LvOlPRLYkDuFyf2TQV+uqSKCG5eIpQt8rl7HWhTf9/NaAPItcyQEdtJIY/TFK4UEeS3Tb6C7tfUVJhpDNEB6GWn+HUjksSAXCv/wjtLzeyq6G6h79OZbvoaIw2gN2TduUunkJnShBCxgp4qjR0raSDRAejViiENSpWEJ5AEekNiYOm1kt6I7vpLX03NrD2EkQbQC+cXCnohj59zBT1yBV0BV88B9FFJd00gBfTKAmXim2mZR/mFaoF7sGDl9dsOZrQB5PT8adqJFAp4bSXjCnqUCrrPrS+XaxSxAeiTRYD06c7rRgwnCfSG8vObHpTryQhv4nbxWNedfBEBQG4LHlfQC1wnEUSooKcyfpSi+VIdAPkpZrHwc8SA3pK17AVShN9o6zoudVP9lxhpADk8sVDQC3v8VpFBhAq6u6pkEj9+/Pj11c9NZ3vD5n0SEvggAy9o+aPMZkX6OJKuSN004lBGG8CWWn3diKEy1bI+KeB1VSAKepQKesUFTfPkdiOxAehDO2SG1n+KGNBbknH/qsxej/AmlriH96Vnbr0Dow1gS5TF/GOkUNjMbSUpRKigS1Jy5dIvSLqP6AD0lVA+lRTQa4uVqcs6wzCcHvHNrMoq+0j73O0HMeIANpdbSEEv9DF0X00KESvo1qAwObBsvGS/ID4AfVShjl93w7AackBvGXBB04/kdlekjyJpl0Q6fZc3KsaIA9iscifbjRQKfC4wnkGPXEGX1n+eJpMtPcGkV4gQQB8ojcVKJhIDelNPt18oqS3aKzMdm2oefi2jDWDzTiHanRQKfQyDdlKIYEGXpCEXvrkqtNhRkt4kRgC9zV1TeFkcetNWFy9bbvILi+Bo+nwnb3YHsKlnjvV33+xKEoUtdFtOChEt6JJUcd7by2JZHyVpBVEC6GXbdQypO4IY0JuS5zfdLdmD0V9p66rUzOETGHEAG6trad1OkpIkUdjMnCvoUS7okhS/sOk1BTZapk4+XcCPH7/e/MUCncdpG72tJ9AUmZZF/HgyN7+1Y9bwYxlxABsjLNFerEUK/xcEoqBHvaBLUvmMpb92t7GSeogUQG9x2dHpG+p3Jgn0pq1mLF0RmCZI8ohvaom5P9Axc/gxjDqAD5yD3fYnhcKX6eIW96Io6JJUcf7SH5jbJEkhsQLoJRaW6FxiQG9LzFj2E8lvKIJNLTPz+1Kzhn+aUQfwAVPwvmRQ8MKtRrzDZ9aKpaBLUvL8pQvNNVnRv+oAoP9M5FvO6AtJr7hE0ktFsanuj6RuHH4Yow7gvfiCbRMy5xvoha/VxipLDEVU0NeX9GW3qyjeggugf1YJGpjIpM8kCPQ2O39JJhtmz5DUWQSbW+6BP7buprojGXkA/y3V0b2HpDKSKHjLiKAIC7oklZ/XdKPMLiJeAL3TnHQen1xDXxh4QcsfTZpcJJtbHsge6bxp+CmMPID/4OL582isn5YSQv4r6bVZfsbS6zpm1Q0x6TJiBpBjO3ZW1h8rLXuEKNDbkuctuyc1q/4gl08rgs0tk3xxalb9wOSMZbcz+gDWF7vsvutfA47C7udcQS8EvXoFqmJG09ck+y4xA8j5JGP+RVJAX0mE5RdK+k2RbG7M5fNTs+ouZeQBvOuTRBCFxZNzBb3YC7okJacv+6Lc5hA1gBw7qHN2/QHEgD5Z05y/JCOzkyW1Fc0yTrqyY1b9Ap+rUvYAoHil59TvLFk9SURAGLxDCBR0mcmTM5bNcPkC4gaQW1xFR98pn77s7UB2ulQ8b8A1+YTOrrrHfObQrdgDgOKUdT+UFKJyUveLOmfVvZWaVX8WYRRxQf9nSS8f1jzZXQuJHEDu+rmOW/+XfaBvJGYs+4nLLyiq9ZzpiM4g/uv0rOE7sQcARdjp5HyCMTLLJu0qaWuX39Yxq36BL9g2QSpFWtAlycYqWz6jaYJks4kdQK7OYR76xcSAvlQxo3m2pJnFtUDXLqHC33XcVH8CewBQRIXOZXI7hCSieF73CanOzK86Z9dvTRp5N+f2/YGeml1/k8ynEz+AHMh4Sfd2FVOXNxEF+mwua1Qs3Vb/sMuPKbJND036euLcpm+ZydkTgIhPsLfU7pLN2qskEWlLw2xwzIDzl75EFPmhz78jbCZPTl92nlzXET+AHIhbdylX0dG3c9lYZROJrnEyFduCJnDpivScusfX3lwzjD0BiLZsNvgUKUTecIuFT6dmDf80URRpQf9nSS+f0XSRu77NEADY8pOKzqEsoM93u0nL18pttKSi+2yNS0fFwtiLqdm1PJsKRFp4BBkUwzJKW7nCx1Oz604njSIt6P9UMaPpUpM3MAwAtlB5LLSLiAF9vuNNX/Z21v1ISSuKb+u9zmU/6ZhV9y1v3LWMvQGI2BHeuGuZZIeSRNG09DKXFnXMqeUx5GIu6JKUnN78Dbl/iaEAsIUzy/S1M2uryQF9beCM5lddfrSktUW4+TEzXZJua/9Dx6z6PdkbgOhIt6w4QNJAkiiuxZS5zUrNqruMKIq4oEtS+Yzma+S6UOKFMwA2W0VQYp8nBvTLzje9+bfmwYmSMsW4/S7tavJfp2bXfdXnqpQ9Aih8Ycw+QwrFyU2Xp+bUfp0kirigry/pTTeY2SRJPQwLgM1sCTNWzx8xlCDQH5Izlv5MrnFFO4+tvz3yinRP/e87Zw3/BHsEUOCHtOtIUijiJZXbNzrm1F1OEv0xneaZjtn1o838XklJhgfApnd0XVFxbtPXSAL9JTW7drybLVAe/RG8H4QmzUtn4pcMufDNVewVQGFZO7O2OlZizUV+HsP6snhp8twmXuxdzAVdkjpn1exnQfCYpCqGCMAmWpctze44YHJrC1Gg3+axm+tPM/dFkkqKPIoV5ro83tY02xq4Qw4oFKk5tWdKdgdJQJLc/Yvl05uvJYm+kZd/FSuf0fJ8EPghkt5miABsogElPbEvEwP6dR6btux7bn66eGyr0k03pKvrXknfUjuKPQMoDCYbTQr41/5gdnV6Tt0Ukuir4y+PpebWj1SPPyHThxkqAJsg7W47lU9fxh/50K+4kv4/fhRKl1Wc2/R7ogDyk8/cMZ4u6WgTb3DHf8q62+nl05fdSxRFXNAlac3c+qrSrB6TfD+GC8AmmJ88t2kyMaDfS/qc2lNMwd2S83bzd9f/Jj1koX89PqP5VeLoH5nZdR/xwA8NQ+1iZkNl6pDrLcmfSbQ2P8sjCcUrPaf2aJc9ThJ4r1OHQh2RnNH0NFEUcUGXJL+mpiJdEdwv6SiGDMBG6rEw2DUxY+lfiQJ5sOA9xmWNkspJ419CMz2YdV3FFfU+Wk+5rGt2/XFh4F+UdOCG/0G1uOy6ZIlm2dRlnSRXXFJz6m6WdA5JYAPag5gdGJ+67M9EUcQFXZJ8rkrTYd0cSWczbAA2cjV6b/Lc5tMIAvmgc3b9ARb4o5L4FOD/+oks+E7ynKU/I4reKeapW+pOCExfd9fHN+H/+qcgCE+LT215hRSLZ19J31L3tqThpIEN7yh6I1ua/QQv5C3ygv6vBc6c2i+a2VXisw8ANmqt4fuXT2v+DVEgH2Rm1e4axuwJFr8bLoTmPife07XIzm9fQxxbeAJsVCzVXn+y3C8x6WObtVA0rerJBocNmL70RRKNvo7ZtfsEgTFnYmP8NlERHmbjWzqIosgLuiR13lx3okl3iVsFAXzgClW/TJ7bdDBBIF+kZtVto5iekLQzaWzQWrnuDmLhHK7ebsZpb259eSYbTnSzL0jaPgf/ypYehbsPnNbSSrrRlr6l/mp3/yJJYOOWWHo42dJ0kjUoJI0iL+iS1DGnbq/A/BHJ6hlGAO87gZjGlJ/T9CBJIF+sfwGqPyTTQaTxgZ5x2Zxk5ZAHbeyrXcTxAftVGE6XbIakqhwvGRuT05adSsoRnivX397+uqRtSQObcG74RnLasgZyoKBLkjpvHT4iyPY86m4fZygBvI8licrKXVncI68WwzN3jKdL190q6XOksVHa5faQme6LB01P2lR1E8m7permuoMU+ES5TlUv3l3o0n48MhRdnXNq9jezX5MENlFo8uMT01oeIwoK+vrJYnb1gFRQcpfJj2c4AWx4EWsXlp/bdANJIN+kb6m5wN2uE+9W2ZTFy0qXHjPz++JDq54oxj++dd48Yri85wwzmyT5h/oo+AXJc5rPYg+M7Lnoenf7PElgM6wNQtsvPr3pNaKgoK9feDcqlmmvudbFSQXABrVnwrIdB5/71kqiQN6VrVtqTzbpTvFulc2xYv2V9fCReDb8uU1vWxfVDV1367CaWDYYJdk4yT+tvv+jzorkOc1V7HLR4w0K0rW1/5A0gjSwmf6YyGY/EeVzMAV9M6Tm1p4p1y2SEgwtgP9ZgMhuLD+niT/kIS913FK3dyB/QNJI0ths3XL9SoH/2M2fSg6u/l0hX133BgWd9bV7BVkdI2mUTHupv++0cG2XnNb8JrtatKTm1h8kD58hCWyhxsTU5tPM5ERBQWeBA2Bj9ATue8SntfyRKJCP1r/kyxfL/HDSyE3vkPRbyZ+2UL8NPfZC+fRlb+dzIe+qrf1w6L6/ZJ+U6WhJw/LqvzEIDyyf0vordq2IHSg3186RaRpJYIvPEW5fKJ/WdD1JUND/w9rba6tLunSvpMMYYgD/5efJc5o/RQzI28VNo2Lp9rrLJf9KVOfp/g1YbTJ/wdxecdlfZPpLT5m/NvCs5ra+/k9ZPX/E0HjYs5+H2l/SfpL2lzQovxffwUHl05Y9y44UoUNi5o7xdNm6ZZKGkgZyIJMNYvsPmLL0RaKgoP/nyaZBJZm6mqvd7UKGGcB/rs/9tPJzWu4lCeSzjrn1JwQe3pHvhS06CyJf5bIlMi2R669m+k02a82SVBILu1LZ+Dub8g4LX1hTkV4TVHkQ1ilmW8u1jdbf3betZCMD+UiXhhRcTtnshxLT25awx0RH5811Y8z8fpJADv0p0Vmyt33hnRRRUND/R+rmutNlPk+8eAfA//d2otw/YuNbOogC+Sx9S/WHZLHF7tqLNPJCh0kf+Ey7S0lF8H04Jl8Vn9oylOdLI1bQ59Y+bK7jSAK55NKc8nOap5MEBf09dd0y7GNZCx6UtD1DDuDd09+3klObvkoOyPtFToNK0nW1l0n6mvgUG/r3vDk/ObVpMjlEx9rba6tLurVUUilpINfTl7kfnzin5VGi2DRFMdGXndP6UlesZB+X2EEA/HPeuCh9S/WHyAF5X4ka1JOc2txgpmMltZII+kkYBNmbiCFaSrt9HOUcvTV9udn8dbcOqyEKCvp7GnT2O+3JKc3Hu9tF2ojb0wBEXtwtdrM7L+FCYUhMaf5hqJ6Py+wnpIF+cGV8cuvLxBC5DnUmGaAXDYuFwQLWWpt4VBbjRnfeXLuvBfqepO3YBYBiPwva+OSUpkUEgULhLsvMq5vs8qvFC+TQN+5MDGmeZGOVJYro6JhXu0/g+g1JoA9mrsnJqS3zyWHjFOWzbOXTmn+TLkvsadKD7AJA0bed766ZNbySIFAozOSJqU3zPCzZlUe30MuyLl2cnNo8gXIewRIQ6lxSQJ/MW7Kr182uriWJjc2ryKVuqR0v0y1a/8ZVAMXp9uTU5knEgELUObf2FJNmS6omDeTQWjM/IzGl5RGiiJ41c+urShW+rQh+bQB5697k1ObTiOGDFf3bYJPnNC8MFRwkiW96AsVrYmpe7SHEgEJUPrX5vu7u2EcknycpJBFsMdNvLJbdk3IeXSUKz6Kco4+dmp5bewwxbMwpGJIkv61qYDpbcoOks0gDKEp/TqQHfNzOX5IhChSqjlvr9grcZ0nanzSwGbrk+nZCzVfaVHUTR0TXvI2KpVfVLpG0LWmgj72V6M7uatPb1hHFhvE91XfZpOVrk1OaJ5k0SlITiQBF58Pp5NqvEQMKWcXkpt8nJjcfINOZklpIBJtQ254NpD2TU5sbKOfRlllVcwzlHP1kZKYkuJwYPqCXEsH/WnfrsJrAg/kmHUsaQFHpCT3Yr2Lqsj8QBQq+bs0dMigdJL4i9wvEe1awwYWgr5IHX4lPaZpnJieR6EvNq/uJ5IeTBPpJNpQ+UTGl+bdEQUHfZOlb66a4+3WSKkgDKJJSI72cHFy5j419tYs0EAWdN48YbrHsNySfIClGIvjXItB0XzbsuaBi6nLuHCwSHfPr9wjCkD9Co58LqL8YH9yyN1+HeG/c4v4+EpOb5lmY3UPSc6QBFMukod3TK1dcShKIivJp7yxNTmk6Owi1u8seJhFIessCPy4xuXks5bzIFv7uF5MC+pvLPp5eWTORJDa4FsUH7kQNKknX131F8sskxUkEiLzuWBjuU3ZO60tEgajpnF+7r0J9zaRjWAcUnYzcvpuQXWlTl3USR3FJza0fKQv/LqmENJAHmhLd2Z14YRwFfctmtXm1u4am+eLtuEAxnBxfiIfN+/GyJERVx/z6PWKe/ZrLTmA9UBR+ZB67IDFl6V+Jojil59Vc52YXkgTyhuubySnN/0cQFPQt248aFUutqTvf3K+QVE4iABMHUMgyc2t2C2N2qVwniytrEVzo+Yvy4CuJKU1PkEbxWrlg28GJnvRbkgaSBvJIRxj07FQxafkyoqCgb7H03GE7uNmtMh1GGkBk9bh0cPnkFt5DgchLza0faRae5+aTJQ0ikYL3hty/lljWutgaFBJHkR/f82suketbJIE8tCA5ueUsYqCg54S7LDO/ZrJLV7OYASJrSaIr3INnpFA0c9ttVQMz2dhZbjpf0vYkUnBrk5fM/NpE2Hovj+hAknxhTUU6ozckVZMG8lAYC3zPskm89+efeIv7FjCTJya3zHOVfNRc3ycRIJJ2TMeD64gBRTO3TVq+NjGl5cbE0pYPmdsolx6W1EMyee9n5n5UcnLLHsnJrXdRzvFPqS6fRjlHPvfRbGjXEsO/zcNEkDvpeTXHummmpO1IA4jYydJ0XOLslkdJAsWoY25VnVnJeDOfyhyXV0KXHleoK8qntjxPHPhvvmDbRLon9bqkOtJAXq+z3EYlpjT/kCQo6Lk/ETaOSKbXdF8q6Yvik2xAlM6WrT1d2m3gtJZWwkDRznENCjJbDzvcw+B0mZ8oXjjVX1aYtNBjNjM5sflN4sCGdN5W83lzXU8SKIBS+mJ8UsueZnKyQK9Iz6vayS02W6bDSQOIjMcTk1qOZfIAJJ9bX56OZU+QdLqkI8Qb4HtbKLOfuHR7smPAw3b+kgyR4H2P0QXbJtJZrp6jkE5yfmLF2a1F/9gwBb2Xdd5ac6qZrpNUTxpABBY85heVT2rlmXTg36yZW19VGsseJ+kkSYeLO8hy6Q25L/BYyR3lZy17mziwsdK31ZznrpkkgQIqplxFp6D30YL+tqqBacUulevzkhIkAhS0rjC0gyqmNP+WKID3mPPuGrpVKl06ylwnmukIlwaTyiZbJ9fDkm5PLG15is+kYZOPw4U1Feku/U1cPUeB4So6Bb1PpW6t2c4Cv9rdTiYNoKD9PZHo3tPOaF9DFMD7lIQGlaTqh+1rQXCk5EdK2ltSjGTeU7vkj5rZg/Eg+WOb+GaaSLDZa87bai6V60qSQOGVU3shPql5r2K+ik5B74+T5vy6T5pnr3ezPUkDKFjfS57dMo4YgI23ev6IoaXWdUjgdrCbDpJrDxXvs+su6U9m9iMP/fHE0panrYHP2SE3x1lc3X/n7hUUbEEN/ajElNYnKOjo21m5QUF6ZO2Zcr9S3H4EFKqzk5NabiMGYDPnwvW34e6vwA/00PY0056Sto7wJi+T7BEz/0E6HX928LlvrWQvQK6lb6+5yl1fJgkUsCeTk1o+TUFH/yxOZlcPSCdiX5L8QkkDSAQoKJ1B6J+IT259mSiA3Fgzt76qrKRnz9CDPcy0i+QfkbSzpK0KaXqX9Ia7XrFAr7j7ixbaH5KTW95ghNGbOm6rqg8UWyIpSRooZGFg+1ZMLM73/VDQ88S6W4fVBIG+ZrLJkspIBCgYS9JBZp8hE1etIgqgl4uHxT4s1w4yjZTbNlK4jWQjJQ2XVNoP/1k9kn4r2Utyf0vyd9ztb8kg+6pNWr6WUUNfS91ec4tcU0kChV9S/f7EpNZTKOjod+nba7Z31zcljZMUkAiQ/9z1cHJSy4l8Hx3oPysXDB6cDMtrQu+pcqk6CKzK3QeZqcJk5e4aIqnC7J9/BLeYu2/sVfkWuV6V1OLmKy0MVsaCcGW6pPSdrc5cuoL0kQ8yt9fuErq/pOJ9rwOiJWumnRJntbxOQUd+nGTn1e7qJf5/7jqFNICCcElyUstVxAAA6A+p22p/KPlRJIHoFFX7bmJS88UUdOTXyXZB3cEKw29IOow0gLyWlemI5FktTxIFAKAvpRfUjvLQf0ASiFRRNa2Md8dG2NRlncW03dxCneeSE5ueSU5q+ZQ8OEQSC38gf8XkWtx56/ARRAEA6Cs+V6Ue+rUkgcjt264hmdLsGcW23VxBLzCdtw87QLJLTDqWNIB8PKnaC/Hu4KBi+2svAKB/pBfUXOCuG0gCEfVqYmLLbsX0nh8KeqEW9TuGHWhuX5frCNIA8s49iYktZ/DSOABAb1o9f8TQsqD7b5KGkgYiKwwOSZ7d9HSxbC63uBeo8gmtzyYnthyZtXAPuS3S+k+9AMgPn03fXvNlYgAA9KayoOcKyjmi31izZxXT5nIFPSJSt9Zs5zF93qSzJZWTCNDvQjOdkJjY8ihRAAByreOOur2CMHxeUow0EPWqk7ZM/ZCJq1YVw8ZyBT0ikpNb3ig/q+WCHtm2cvuGpHZSAfr3/OquuzPzaz5KFACAXPIGBUEYzqaco1iqTjIsO61oFpCMd7QMPKu5LTmpuSHh2W3NdL7c/koqQP8dkmGgh9bcObySKAAAuZLZunaapP1IAkXD7Oyi2VRGO9q8QUFmm+qjXHa+pCMYc6BfPJNYu9Vn7PwlGaIAAGyJdbcOqykp0Z9dGkwaKCaxUB8vm9T6UtS3kyvoEWcNChMT2x5PTmw9KlB2F5fmyLSOZIA+dXB6qzUL3PkDGQBgC0tKia6hnKMYhabPFkV/Y6iLj88dMihTWvI5N5siaTcSAfrs6PtWcmLbV8kBALA50ncMO8JdP2INjyJdR72d+EfbttagkIKOyOq4o2qvIAymyHS6pAoSAXr9pDstMbH1FpIAAGxSNVlYU5HO+suSticNFO9Cyg9JTmiL9DfRucW9yFVMWP775FmtUzNlma1N9nmZ/kgqQC8usKSZ6QXDPkMSAIBNkQp1FeUcLKRsXNQ3kSvo+B8dd1TtZR4708zHyVVFIkDOrcnKDxkwse1FogAAfGA5v636IAX2C3FxDViR6Gqts6nqpqCj6HijYplUzWGSprj78ZLKSAXImTaz8KDEmcv5FCIAYMPrsZk7xtNbrX5Bso+QBiBZoKMS41ufiOr28Vc4bHjnH6ts4syWnybObBnbXVYy3KRzJT0tRfvFDEAfqXYPHl+3oLqWKAAAG5IZuPYblHPg//OsTox0B2OIsak676wcHqjkZHc/RdIB7EfAFnkl7V2fHDJx1SqiAAD855pr2CfM9YykGGkA/9KSeLO1Pqpvc6dYYYuk7xi2QyidaNJx7+/KN+oAACAASURBVJZ1JhBgk/lTCa842ia+mSYLAIAkeWP1gHSnvSBpR9IA/uv4kA4qn9D6bBS3jVvcsUUSE1r/Xj6h9drkhNZPdpeV1Mp9okkPSeokHWBj2aGZoPNub+QPXACA9dIddi3lHNhgiY3sbe5cQUev8MYRyUyq+9Pu4fGSjZZUQyrAB1qYeLN1YlRv2QIAbGQ5v6PqGFfwKGt1YIP+npzQGsk/YHHQo/fLeoOC1HbD9jPZcSY/yqXdxd0bwIbOyvMSn2s9x0xOGABQfNbcU19V2t3ziiReIgq875Ip3DmKX8OhoKNfJp54T/dhHtqnZPqUpJ1IBfh3fmPizLbPkwMAFJ/0ncMelKL9lmogN8slvyAxoW0mBR3IsXULqmtLYzrYZYfLdaSkbUgF0HWJM1svIgYAKKJyfkf1+TK7kSSAjaqyjyfObDmGgg709uS0qGpnD+1Ak+0v0/5y7SLeDo9inHakr8fPbL2cJAAg+roWVu0devBLSXHSADZKZzwsr4zaV3Ao6Mh73lg9IJ2K7RN4dn8320/SfuK5LBRLSTe/JD6+7SqSAIAIr3UWDB6cCcr+IGk70gA25eDRkYkJrT+moAP9LLWwfqR5dnfzcLdQ2t3MPippZ0mlpIPolXS7LD6+5UqSAIAI9guXZRYOe0A8dw5sTkH/bmJC68UUdCAfj8/GXcu6M20f8aztIvOdtP7boTtK+pBLlSSEwi7p+r/4+NZvkgQAREt6Yc3n5X49SQCbtUL6feLMlr0p6EDBlfchg7o64yM8Fta7VGehahToMLmOJh0UzH4sfTM5vvX/SAIAoqHzjmEHBoGelFRGGsBmycaDnqF2RvsaCjpQ4FILa7Yz+Z8kJUgDBXTWvibxudYvEQQAFLaORVV1sTD4nUz1pAFsAfdRiTPbfhiVzQkYURSr5PiWN1x2A0mgsCYhfTG9aNjV7vyBFQAK9lS+YNtE4MH3KedATirtIZHaGgYUxSyRCK+U1EQSKLSSnlk07BZv4BwOAIUoE+uYZdK+JAFsOZNT0IHIHNBj29a5+2UkgQI0Jb199d0+ly8XAEAhSd9ZfZ5kk0gCyA037eULayoi008YUhT9Qd2gILN99W8l7UkaKEA/iCfip9jYd1JEAQD5LbWo6lBz+7H4LCyQ65L+yeTn2p6hoAMR0blo2AGB/JccEyhQT8ctOzpKbzAFgKhJ3zFsB8X8OUlVpAHkvNZ+MfG51mujsCXc4g5IKv9c669kup8kUKA+mfbYz9YurBlGFACQf9beXlutmD9BOQd6h8v3icq2UNCBfx7Y3bEvSeokCRQik/YutfDZ9B3DdiANAMij9cWCbRNlpdnvS+L8DPTWOsii89JFCjrwruTE5jfN9W2SQAHb0WL+fOeiYQcQBQDkQTl3Wbqkc75LnJeBXj3YtG1U7iSkoAP/pmzVoGsk/Y0kULjzkyoD+RPpu6qPJg0A6F/pu6uvNPnpJAH0vlLLRuI2dwo68G/s/CUZyaaTBArcALkeTS+qmkIUANBP5XzRsGnmuoQkgD5ax0fki0y8sRp4r0n17ur75RpDEihwbvKGstOXX24mJw4A6BuZu6pPdekecTEM6LtFj9SYPKPt1ELfDk4awHsIg+yFktaRBAqcuewb6burF3vjiCRxAEDvSy2s/JS77mSdDfTxokfaPQrbwYkDeA/l49rfNtMVJIGITFindnVl+AwbAPSyrrsq97EgeFimOGkAfe5DUbggQUEHNqCstO16Sa+RBKLApU+UBuFzmbuG7kIaAJB76UXVO4YKHpU0gDSAfhHrzmY+TEEHIsrGqsvNp6/vNkAkbOeKPZteNOwzRAEAuZNaWLOdTE9KqiENoP9ks4V/mzsFHXgfydOX/9ykO0kCETJY5o+nF1XPIAoAyEU5HzLSgvBJSVuTBtC/zL2y4LeBYQTenzduNTTTHX9NEs/vIlr7tuzuRGnZZBv7Too0AGDTdd5ZOTwoCX4haQfSAPrdzPjf2i60BoUUdCDiMndVfdbN7iYJRI25P5/N+pjyM1csJQ0A2Hgdi6rqYoE9JWkn0gD6VY+kixKnt82MxNqM8QQ2Tvru6kclHUsSiKA2D31s8nPLnyIKAPhgaxtrq0u7e34u2a6kAfRrmV3hCk5LnN7y06hsE8+gAxvJg9h5kjpIAhFUbUHwRPqeqqlEAQDvr2NRVV1pd/gU5Rzo93b+UpgN9olSOV+/WQA2Wvquqotkdi1JILpznS8qy8am2fgW/hgFAP8ltXDISIuV/FTSh0gD6D/uakyEwVlRXK9Q0IFNORk0Kpbprn5e0l6kgeju6HrNlD05fkb7nwgDAN4t54trt7Uw+zNJ25MG0I+rFOnq+GfbLjGL5qeQucUd2AQ2Vtkg0GStfxkFENEdXR9xi/06c3f1KYQBAFLmnsoPm2d/STkH+rWaN0vBEYnT274S1XK+fhkGYJOl7q6+3EyXkQSKwI3xkrYv2Vh1EQWA4iznw3Z3+U/E51aB/vREd08wfuD4ltaobygFHdgM3qiyTE/17yTtRhqI/ERhei5UbFxyXPObpAGgmKTuqT7IpEckDSENoF90S/bV+LjWa6N81fzfcYs7sDmFZay6AveJ4lZ3FAF37W+efTGzuPpU0gBQLDL3DDvBpB9TzoF+81pgfkDis63XFEs5l7iCDmyR1N2Vl5sZt7qjaJhrUVmpnWtj29aRBoDozu/VE8z8VkklpAH0OZfp1viAsgtt9LLOoltrMf7AFpw9GlWW6an8nWTc6o5i8pfAbFzZuLYXiAJA1GTurvyym11FEkC/rK7fdLOJyXHLnyrWBCjowBbqurtqr9D0nPgrO4psDSvpK/Fxy28sptvOAES4FvxcJZmmqlmSppIG0OdCmebGY/alYr9Lj4IO5EDqnsorzOyrJIHiW9Hqp6GFZ5WPa3+bMAAU7KmssXpAJuuLJR1LGkBfN1J/JfTYOeXjWn9FGLwkDsiJxOAhl0t6mSRQfJOqDg8seDl1T+UZhAGgEKUW126byerXlHOgz3Wa/Cvx1Sv2opz/+9IKQE5kGofu4tng95ISpIHinFH8ga4wfs5Wn122nDAAFEQ7WFy5XyB7WFINaQB9yPVzBToncdryvxIGBR3oNel7qi6S6VqSQBFrlnR2YtzyHxAFgHyWWVx9qsvvEH9YB/rSGyb7Unxc2/1EQUEHep03KMjsVPVTmQ4jDRT35GJ3loVdF9rpq1eSBoB8m6vTO1c1mHQZa2Ggz6wx+bfKBg25wUYtyRAHBR3oM52NlcODrL0iaQhpoMi1mGwGfyUHkDfl/K6hW2VKgjvlOoE0gD4RmnR3d8y+NGBsWzNxUNCBfpH5XtXpLt1FEoAk6bEw8HPKx65YShQA+m1uvqfywx7YQ5I+TBpAnzTNJwMPvlB2WutLhEFBB/pd6ntVi006jSQASdIqSV9OnLZ8HlEA6PNyvrj6VDe/TVIFaQC9XDDdfu2Bfztx6vJHSYOCDuQNb9xqaCYse1nScNIA/nVkPCHFpidOa/07WQDo9TPOXJVmBlVdJekLpAH0drG059ysIXFq6xOkQUEH8lKqseoQC/UzSTHSAP4l7a7vJAYN/jYvigHQWzoXD906sGCxpANJA+hVL5nsyrJT2+43kxMHBR3I75J+b+WV5nYpSQD/48/umpYct/wpogCQS5l7K09wt9vFC1uBXiyS9py7X8GnVSnoQEHxn6ukq6XyFy47gDSA93Rfd1dsxsDxLa1EAWBL59xMa/UVcv8S61ygV4SSHpf5jYlTV/yUOCjoQEFKLa7d1oKeFyQNJg3gPa2U+dfj1StuscPUQxwANlX6e8N28CD8nrn2Jg0g51ZJmu+WvSk5duVbxEFBBwpe5t5hY1wh34MG3t9fpOACXjADYFOkvlc53sxmSRpIGkAOuV4383llZdm5duKqVQRCQQciJX1v1TxJk0kC+MAVwf1ekr04OWbVP8gCwIasu2dYTUksvFXSaNIAciYj0yNyuyP+WtuPrEEhkVDQgWhWjkfryzOdXb+VtAtpAB8oZdJ3ysrLrrHRyzqJA8B/NIjvVR7vZvMkDSMNIAfF0PS8h74wnu1ZbKevXkkiFHSgOBYUjTW7uWefl5QkDWCjLHW3ryX+3HYnf8UH4HcN3SpTElwn0yTSALbYMskWmYd3xk9b8RpxUNCBopRqrJ5k7vNJAtikGetlheEXE6e1/5gwgOKUvrd6lOS3SNqaNIDN41J74P6IB8G9cbX9xMYqSyoUdKDoZb5XucDNJpAEsMlLiycsG/tS/LOtL5MFUBzWPDiwMt4Vv95NnyMNYLM0yfV9mT8YH7biKb6YQkEH8N8V49H68kwq85xku5EGsMlCky/0WMnliTEtrxMHEF2Z+6pPcfebJNWQBrDRsiZ/Xgoet9B/WHrq8hfM5MRCQQfwPtKNVTtL/lvxWRhgc3WbaVHoPVckx65+gziA6OhsrBweSDdJOpE0gI3yJ7meMvkvMqXdP9vqpLUriISCDmATZRqHnuqy75EEsGVFXW53ethzZXLcqjeJAyhcPlelmcFVF8j8/yQNIBHgPaVNesGl35j5s12x0l8MPKmllVgo6ABycYZtrLxJ0gySAHJQ1M3v8J7wWxR1oPCkGqsOMflsSbuSBvAva0161c1fkezFwO350pXLX7ap6iYaCjqAXuCP7xhPr1v5jEn7kAaQm6JursUy/058bPufiAPIb+saq2tLLbzGXaezPkWR6pH8Lcn+LvfXZcHfZXrNvfvVxCmr3+T5cQo6gD6WemDwNpYt+Z3kVaQB5Ewo6eEgsG+Vnbz8d8QB5Bd/fMd4Zu2q82R+maRBJII896akdskHv1ulhrz7v5dK73U121dKwTpJayVfJ9kaedjuFrSYe6tJS7OBt1pPuCyxZtVSroiDgg7kW0m/r/LTJv1IUglpADn3E5d9K3nK8qeIAuh/mfuHjnHZd+TagTRQANq6Yl0f4cVroKADRSZ9X9XFkl9DEkCvecGlGxLtKxZztQLoe10PVO0Zhn6dpENIA4XCXeOTY1csIglQ0IHimwAs/UDVYnM/lTSAXvWWZDPjmfBWO6N9DXEAvSvVOGRkYMHlLp0hKSARFJCfxU9e8RmeAwcFHSjWkt44IplR6pcy7UkaQK9bK2mBB9nrkmNW/YM4gNxac8/AqrLSsoslXSApQSIoMBkzfTx+8oo/EwUo6EARSy0evG1QEvudS5WkAfSJUK4nFdjM+Jjlj3GlBNgy/nDVwK4uP9elSyVtRSIozLLkX4+f0n45SYCCDkDp+4YcLQWPiVsBgb6eHV+TNDteagvt+OVrCQTYhGLeWD2gS+EFbrpY0mASQQH7c7xiyMdt1JIMUYCCDkCSlLmv8lKZriQJoF+sNWmhhz6H76kDH1DMHxo8uKsnOE9mF4i7v1D4wsCCw0rHtD1NFKCgA/j/Cx6XdT1YeYdc40kD6NcZ8/cmm1eatXtsbNs6AgHenafuGVjVVRqfIfMLxBVzRKck3Vh28orPkwQo6AD+d/HTqLLuoPIJlw4lDaDfrXHzxYEH88tOXv474kCx6ni4qr60Wxe7fIqkChJBhPylLB7f00Yv6yQKUNABbKCkbzW0Kyj9laSdSQPImyPzJTe7LZ7pWmyfXbucPFAMuhor9/WYzpfrFEllJIKI6THzg8vGtD9HFKCgA3hfqcZB28WCkudcGkYaQF7JmvRzuRaVpkoesPEtHUSCKPG5Ku0aOvQEM5vi0uEkggi7Mn7yisuIARR0ABul+4EhB4Ye/FR8SxbIV6slPRC6LUq8uvxpa1BIJChU6xqra0tj4dkKNU2mehJBtPlLZWH7vjZWXWQBCjqAjZZ5sOo0ud/DMQzkvXdMdr8pe3/JKyt/TVlHQVSUBgWZjw79jMmmyDRaUimpoAh0mcX2LTup9SWiAAUdwKaX9AeGfk2yb5IEUCClR7bc5D90t/vilct/aIeph1SQTzoeqKorMR8v9ymSbU8iKDKXxses+DYxgIIOYPNL+vrPr51JEkDBaXLpIYX+cLxi6C9s1JIMkaA/+IJtE12D1oyW2+ckHS2phFRQhJ4ry644yMYqSxSgoAPY/IVVo8q6SyqfcOfza0ABWyfpCZMey1jJ4wNPamklEvTq3NGgoGf3qoOzrjNMfrL4djmKW6dnbc/E2OV/IQpQ0AFs+ULrsUFDujIlv5L0YdIACl4o6XlJj1lgT5S+tPwFnltHrmTuH7K7LDhV0hmSRpIIIJl8ctmY9vkkAQo6gJxJNQ7aLhbj82tABK016fnQ/TFZ6aOJMS2vEwk2rZQP3VUWnCL5qeIPucB/eyA+ZsXJxAAKOoCc675v6AFhoJ9KSpIGENlp++8u/6lJP+9R8HTFmOVNZIJ/5w0KenYdur8HOsmlMZK2JRXgPb1ZFoR72ImrVhEFKOgAekX6+0NGW2gPipf8AMXidZk/a7JfelbPxk9uf5VIirCUPziwskuln3LX4bb+s2h1pAK8r57A/dDSMSufJQpQ0AH0qq6Hhk5y160c30BR+odkz7j0XGD2XOng5S/xObcIFvJGxbpLK/fy0I+UaZSkfSTFSAbY2AZkX4ufuOIKggAFHUCfyDxQeanMryQJoOh1uvR7k56T2697Suz5iuOXLyOWAizkQdUeYRAearJDJP+kpK1IBtic8uNPlb688tO8gBMUdAB9quvBoTe6dD5JAPgvTTK9oFB/kNkLoWX/kDxx1ZvEkk+FvHpAT0n3XqHZfvLgYMkPljSIZIAttiLbYx8rH7tiKVGAgg6gbxd4DQq6dh96l6RxpAHgA6w06Q+SXpLrNUl/LE3qTzaqfQ3R9PK5eq5Ku4cN3lUK9nXXflp/u/ou4pZ1IOeHm3twQmLM8keIAhR0AP0zEzWqrKtk6KOSjiANAJuxSnhL0mtyvWKmP1sY/q2rpGQJt8lvntQDg7cx2UfN9FEp2E3yj0r6iKQy0gF6vfTMLDup/QKSAAUdQP+W9EfryzM96SdMOog0AORIp1xLZFoi2RJzXxKa/mFub5dVlLxlR7Z0FO0512Xp7w/exjz4sEy7SvqIrb8ivou4TR3oL78u624/1MaqiyhAQQfQ/wvGxiGDukr1pGR7kgaAPtAu1zsye8ult01aZu4tYSxoiXm4PGux1nhGzTa2bV1BnlMfGjy4K7CR7tpGHmxj5iPlGilpB0kfljSAXQDIm7LT2hNqr/Ix7e+QBijoAPKopA+o7iot+4XW304JAPkgJalNUrNMbXItl6vNTc2B2/IwCNuCbNCmwMIwa2tkXdlsSWm6PNadUhDLbskz8j5XpRo+aEC62wYFFpSbBeWh+2ALVWGBBoXySgu9ys1qTF7lZlXmqtL6b4zzBnWgMGRDtyOSJ614kihAQQeQdzofrRwe6/GnJW1PGgAAINLcL4mftPIqggAFHUDeSj06ZGTQY89IGkkaAAAgojXn0bITVhxvJicLFJKACIDikhy98i2XXUMSAAAgmnxJmbLjKecoRCVEABQfMz+aFAAAQASlzXysHb9qFVGgEHEFHSgy/tDgwZIOJwkAABA15jat7PhVL5AEKOgACkK3YqMllZEEAACIVDmX31R24oo7SAIUdAAFw02nkAIAAIhWOddPSwet/AJJIAL7MoCiKecPVw3s8rBVUoI0AABARLxRFuve10avXU4UKHRcQQeKSJeyx1HOAQBAhKxVoNGUc1DQARQe18mEAAAAIiL00D8bP679VaJAVHCLO1As3fzR+vKuML1cUpI0AABAwa9tpIsSx7dfRxKIEq6gA0UiE6YOo5wDAICI1POFlHNQ0AEU8sF+NCkAAIAI+FVZ6copxIAoKiECoDi4dLTkBAEAAArZm90qPSk+ShmiQBRxBR0oAumHq3aWtD1JAACAArZaruMGHN/aQhSgoAMoXB6OIgQAAFDAukILT4qfsPIVokCUcYs7UASCIDza+WgDAAAoTC7TWcnRq58kCkR+3U4EQMRntCdqKlx2MEkAAICCXMuYXRwfvfJukgAFHUDBy3R1HSIpQRIAAKDQmGxmYjSfUwMFHUBUJrZQh5ICAAAoQI+Wptu/QAygoAOIUEP3QwgBAAAUFv9NmSVPs7HKkgWKaulOBECEp7aHqwZ2WbZdvBASAAAUjr+UWc9BNnrtcqJAsWHRDkRYpiQ80EKOcwAAUDDeCXv8KDuRco7ixC3uQIRZyO3tAACgMLjUJguOSJ646k3SQLHiyhoQbYcSAQAAKACrA4VHlR278jWiQDHjGXQgoryxekBXsqddUilpAACAPJYKTEeWHrvyGaJAseMWdyCi0omufSnnAAAgz3V5YCdRzgEKOhDtg9uCfUkBAADksaxk4xPHtP+IKID1eAYdiCqzfSQnBwAAkI/c3KaVjW6/lyiA/48r6EB05729yQAAAORnO7eLyka330oSAAUdiLx1P6iulTSSJAAAQB76auKY9uuJAaCgA0WhxLt5/hwAAORlOY8fu/JbxABQ0IGiYR7sQwoAAIByDhQWXhIHRLOh8/w5AADIH64vx0evvJoggPfHFXQgmj5OBAAAIE9cRjkHNg5X0IGI8UcHVnWZakkCAAD0/8JEl8WPXXklQQAbhyvoQMSkFfsoKQAAAMo5UHi4gg5EjMXso3InCAAA0G/V3OVfThy7+hqiACjoQJFPieIKOgAA6MdyrgsTx6y+kSgACjoAOQUdAAD0h6xJZ8ePWXUHUQCbh2fQgShVc5eZtCtJAACAPpaRa2wZ5RzYIlxBByIk9cOhw2MWDiYJAADQh9aF8uOTx6x+kigACjqAd5mFO4r3wwEAgL6zKrBgVPzo9l8TBUBBB/BvYvIdXEYQAACg15nUokBHlh7V/hJpALnBM+hAhLi0AykAAIA+8I8wGx5cdtQqyjlAQQewgUOagg4AAHrbK9lYcHBi9Jq/EQWQW9ziDkSIySnoAACg17jsx2WyU+zI9jWkAVDQAby/7XkEHQAA9JLbyqpXTrO91U0UAAUdwPvwxwYN6ZaGkAQAAMj1MsPMv1J61OqriQKgoAPYCN1m25ACAADIsYybnVV21Kp7iAKgoAPYSEHMhofOR9ABAEDOtFuoE8uOWfk0UQAUdACbIAzDehkPoAMAgJx4PVR2VOKYtX8hCqDv8Jk1ICJMVkcKAAAgB54q7cnulziacg70Na6gAxHhZsNl3OIOAAC2aEExr7R65Qze1A5Q0AFs0Xzq9dzgDgAANlOPXBeVHb1yJlEAFHQAW8ik4aQAAAA2wwozH1t61OoniQKgoAPITUGv4QZ3AACwiV7Omp+QPHL1G0QB9D9eEgdEhMuHkgIAANj4tYN+UBoGB1POAQo6gFxOsI/Wl0uWIAkAALAxSweXfafsuVXH2aj2NcQB5A9ucQciIKXMEA5mAACwEVa7aUL8yJXfJwqAgg6gF8RKwko+sQYAAD7Ai6H7KYkj1ywhCiA/cYs7EIUDOeZDSAEAAGyQ2aLSrooDE0dRzoF8xhV0IAJCaSjfQAcAAO8hLemCsiNWzZNWkQZAQQfQ20waRAoAAOC/LJHbyWVHrXqJKIDCwC3uQBSE4QBCAAAA/2Tuj5R2a1/KOVBYuIIORGESNkvyijgAACCp29wuKTly9XVmYnkAUNAB9LVQVmG8xR0AgGL3pnl4eulRa39FFEBh4hZ3IArMk4QAAEBRLwYWlZaW7VZ6JOUcKGRcQQeiMCXLysVdbAAAFKM17n5u/MjVdxMFQEEHkBcN3cvp5wAAFJ3nwkCnJw5f8zpRANHALe5AFLi4xR0AgOLRY/Kvl65afVDi8NWUcyBCuIIOREOMCAAAKAr/MAvOKP3Myl8SBUBBB5CHLJA5t7gDABB9rr+WlPgfCQKIJm5xB6IxWXMsAwBQDEyf6e5x3tQOUNAB5PFkzbEMAEDx+Ig3MPcDFPT/1969h8lV13cc/3zPnLOX2d1swhOKRLk0ikpiQzZsks3uJmGByEURtQWttUgtXqp9LI8+vWjx0VJ4tFbbSkut5fEColguipdUsKS5btyEjQEVJI0SIQQCDclmZ2Z3M3PmfPtHEIsGyGUvM+e8X8+z/xCSnfmcM+f3+8zvXADUJnc+ywAAZMkcLlUFKOgAahMr6AAAZMvxjP0ABR0AAADA1FurMiEA6cOpMUAamFUIAQCAzKjYx5UQA5A+rKADKeDOt+gAAGQI4z5AQQdQuw2dFXQAADIz7MuGSQGgoAOoVeZ8kw4AQFaGffkQKQAUdAC1ysUKOgAA2UFBB1KKm8QBacAKOgAAmeHSflIA0okVdCANA7X5CCkAAJAN5tpHCkA6sYIOpEDgQcHNCQIAgAxws12kAKR0Xk8EQBoGai+QAgAA2WByCjpAQQdQwxWdgg4AQFZGfbGCDlDQAdTuQG05nocKAEBmJvAJBR2goAOo2Q9ywgo6AABZEStHQQco6ABqlZvzuBUAALKh2vT00BPEAKQTd3EHUiCRPR1wF3cAALLgEbtUZWIA0okVdCAFGpNgDykAAJB+Lv0PKQAUdAA1zFbs2y/xbToAAKkf813bSAGgoAOocS49TQoAAKR+9r6dEAAKOoAaZ26c5g4AQNrH+6pxijtAQQdQ+5/mhIIOAEDKxUZBB9KMu7gDqWGPy0gBAIAUKzatG9pJDEB6sYIOpISb7SIFAABSbat9XAkxABR0ADXOEqegAwCQbluIAKCgA6gDLlbQAQBINdMPCQGgoAOohzHbWEEHACDNPE5YQQco6ADqQazwMVIAACC1Sg17i9uIAUg37vkMpIS7gsra9qLkzaQBAEDqZu39DcuHewkCSDdW0IG0jNumRPIdJAEAQAo5N4gDKOgA6q2kbycFAABS2M9Nm0kBSL+QCID0SOTbuW4FAID0qcbxGlIA0o8VdCBFTP4zUgAAIHW2588Z5WktAAUdQF0V9CoFHQCAFFpLBAAFHUCdiRsauAYdAICUcTcKOpARXK4KpGoAV1BZ11aUxKPWSFMGGgAAEShJREFUUO9ic/9bmczdLpFpLpEAyOwBUfHJ+eWjO0kCoKADqDPlNW0/ocygvvmjZva2aFmh/5f/ZWx9++wg8Yskv0RSDxkByJCfNSwvnEYMQDZwijuQMiYetYa63n/viJLwjP9fziWpaen+hxuWD3+2YXmh1+VzzP1jkm0lMQAZsI4IgOzgMWtAyiQSj1pDPRqT+wejs4qfe7H/sXF58aeSrpZ09eiq6afkcskbZLpY8uWMawBSx20NIQDZwTweSJl47bTLXH4jSaCO/DSx5K2Ny0o/OqY57Pr2GdXEL3TTxXJ/raR2ogVQ56ph6LOsp/gUUQAUdAB16MC6lnmBB/eTBOqAm3RDbiz/QTvvydK4/sOrFcZBa7fczpfZBZKfwZgHoA71R8sLvcQAUNAB1GvjGVQUj7QNS2oiDdSwxyS7Ilo2fPekfC7W5U+sWO4Ccztf8j5JM9kEAOrAX0TLCn9PDAAFHUAdq6xtu1emTpJAjQ49t4Wh3mvdw3un6hWMrW+fHSg519zOlfxcSTPYLgBqTTXQq5t6C9tIAqCgA6hj8bq2f3fpXSSBGhtxnjTXe8JlhW/V0svy1Qor4bQzzf3sgzeasx5JrWwwAFNsW7Ss8GpiALKFu90CKZSY32fO92+oqXZ+Wxj7+6yvsKfmXlmfYml4k6RNkj7htypXObF9vhLvNVOP5OdIOo5tCGBSue4kBCCDMyYiANKnsqZtiQJtJAnUwCDzc7fkvdHS0j11O0d2BeX+1tPNreeZU+K5hh3AZBT0nmh5gbEcoKADqPsx/e4TWuLmkf2ScqSBKVKR26fCZPga69NYqj5fLiv3t86xqnUFpi6XFkuaw+cNwDh6KtxdmGWXqkoUAAUdQBra0fq2ByWdThKYAgNJkry7cXnpx1l5w75hZlussU4ltkTSYpkWSzqBXQHAUU7QvxQuLbyTJIDs4Rp0IK2FQX6fySjomExPuvThqLdwo5mSTE2me/cUJK1+5keSNLp6+qlRLu5ys4UyzZerQ9wtHsDh+QYRANnECjqQUuUN0640938kCUyCiqR/DsfCq23Fvv3E8fy8f/op1Wp1vpvPl1mHu+abdArJAPjVgUJPh/nCidapCmEA2cMKOpBatkFyYsAETyT9+0lof9bYXXiIMA7jU9kz9IikRyQ9+6g5X98+I06qHQpsvkmv8YPXs58uaRqJARk8Tshuo5wDWT4GAEhnb1qtMA7b9kpqIw2M+/4l2xlIV4VLh28ijQnKeH37jNiSue6aY/K5UjDH5LNdmk06QKpn58ui3sJ6ggAo6ABSprK+9fuSrSAJjKO9Mn0irBT+JW13Z6+b4r66bWYc+BwP7BUmm+1KZpvs5TpY3Hn8G1DPn2/Zzqh3+NSs3ccDwK9wijuQZqYNkijoGA+jMl0XlnOftL6hIeKYwo91X2GPpHXP/Dx3cj9w3LRK9cDswG22y2abbLZ7MltmJ0l6qaR2EgRqedj2mynnAAUdQHqt5zp0HKOqmd+YyyUfs67Rx4ijxif3XXuHJd33zM9v8LtPaClPK50cVHyWmV7qgZ1k0ix3P0kKZkn+Uh1chWd+AEw+r7p9mRiAjI/lRACkeKQfVD4eax2SFJEGjsK3E+kjjb3FB4giY8eO9e0zDig5PpfTTEs0M3HNNNNvyXW8m2aaNFOezJSsTVKbTG1idR44Vhui3uJSYgAo6ABSrLKh9QeSukgCRzAyrJXbVVFvYQNh4IiK/cBx05SMtpUVtplX2yyxdgusXfLmJAnyMm8wtxbJIwXeKgWhydvknnOzaUpkMk1/gd8wKrMxSXJXOTCVDvu1yffJgyGXD0m2xOSXscVQU58fs3c29BS+RBJAtnEKG5D+trVBcgo6Dke/Ev9YtKy0iihwVEebg6fYD9d8EVqtL8dR6xmSzmCroUYUI2+8XSqQBJBxAREAKZ8wu9aSAl5kL/meAuuJeou9lHNkYo/v01iS6G2SRkgDNbFPSl+33j20cwAUdCDtciP51ZIOkAQO4R73oCvqLVwYdRc2EgeypHFZ8UGXfYAkUAuSJPkcKQCQuAYdyIRKf+sqSWeTBCS55CtdfnVDz8i9xIGsK/e3fcXkbycJTKGNUU+xhxgASKygAxlhd5NB5h1w2VcS1+9EPaWLKOfAQVG56U8kbSMJTNkIbX49KQB49phABEAGmtlAy7ygaveTRCY9Ien6sGyft77CHuIAflN5Y77DPNggKU8amGRPhfuLJ9uFXIoGgIIOZIa7LN7Y+pikWaSRGVvN/J9y7aWv21yViQN4YfHGlt93t68yN8IkuzbqKV5FDAB+iVPcgQwwk5v8+ySReolc91hibwi7i2eG3aWbKOfA4Qm7S7dI/imSwCQ6EFYTTm8HQEEHMsntLkJIrb2SPlu14FVRb3FFuLTwHTM5sQBHWNJ3lf5aZt8jCUwGk3/Nlo08QRIAnntsAJCNfr5x2nGxkiclhaSRComk1Sb/Qm6o9A2uXwTG6Vi5evr0uCHeJNMrSQMTuaslrnmNPcWfEAUACjqQUZWNrf8l6VySqGu75PpyNcl9sWnp/oeJAxh/Bza2vTqQD0hqJw1M0BT8rqi7cAE5APh1nOIOZIi7vkkKdakq6R6TLg0PFE+NeopXUc6BidPYXXhI0sUSZ6ZgoiSfJgMAh8IKOpClgr4hPysOgp3iy7l6sU1uXwqj5EZbVNpNHMDkivtb3+qmr3LMxDhPvwej7sJCcgBAQQegysbWfkndJFGzHpfpdpndFi4u9HOzN2CKj5n9LR+SGaudGL/Jt9nF4ZLCt0kCwKFwsygga9y/ITMKem3Za6Y7vKpbwp7iWjMlRALUhqin9JnKxtaXSbqSNHDs7Vz357oK3yEIAM9/mACQKWP3ts/OxdWfk8SUe8pcd3rgd4RhabV1qkIkQG1yV1AZaL3FpEtJA8c08TZdEnYVbycJABR0AM+qbGy7V+adJDHpdpn0TZfuCHcW19ulqhIJUCcl/QE1xMMtd0j2etLA0e1EeiBcUpzHWVIAXginuANZnCMEyc3mRkGfeInkgzL7rnuyMuoa2co15UB9srkq+3+Wfi+e3vptmV5LIjjifSjQNZRzAC96rCACIIMFfXPLS+Kq7RRf0k2E/ZJWudvKKEhWWlfpSSIBUnT83Kjm2FpXSuojDRyB+8Ou4gIKOgAKOoBDqgy03iXXeSRxzKqS3Scl90i6J5xWWmdzVSYWIMUlfVD5OG79nlzLSAOHNeEOgteHi4dXkgQACjqAQ4oHWt7ubl8hiSOWSPqxpLUmW5WzaI117R0mFiBjJX3guGmxynfJtYQ08CL6oyXFXmIAQEEH8PyTy9XHt8bNpSckayWNFxRLNij5ejNfl2to2GAdQ0PEAuDgcXTkW5LOJg08r8TOirqLawkCAAUdwAs3z02tN7j7FSTxHE9ItlnyTZINhM3FzXaGSsQC4NAlXU1xc8vtkl5HGjjETPuuaHHpAoIAQEEH8KLKG5sXWRBsynAEQzLdL2mLJbYpF1UHrHP0UfYMAEdU0gcVVaotN5vznHQ8R9UDdTYsKt1HFAAo6AAOS2WgZauk+Rl4q0/ItUWBHjDpwarZloaFxQd57BmAcSnptypXPanl8276Y9LAwUm23RB2Fd9NEgAo6AAOW3mg9X0mvz4tb0fSdsl/Kgu2mfzBxH1b1DzyEKepA5jwku6yeFPLtZI+TBqZVwgDvdIWlXYTBQAKOoDDn1AevMnRTknT6+Ql75H0C0k75Nrhge8w2Y6q5x5uHB3eYX2K2aoAplJ5IP9uk10vKSSNzPpw1FX6JDEAoKADOGKVgZZPS/rQFH9VUDTZ/7r8cUm7JdslabeZdrlrdxLYroZy06PWu6fAFgNQ6+KB/IUu/QdPysjk5HpHbrQ0x/o0RhoAKOgAjrwa9zedEoe5z8uVO3hksBbJG5754yaTNR/y78n3/dohpSz3ksyKklfMbJ88KbusJPOiJ1YMTHtlvs8ttzeJfW9DzveppbTX5qrMlgCQJuUf5BdYYN+VdCJpZGlybZeGi4u3kQQACjoAAEAN8cHmk+NqcKekDtLIhFXR4tK5xADgaAVEAAAAMDGsc/TRcKTU7dKNpJF65SQX/CkxAKCgAwAA1GpJ79NYw+LS5e7+HokbWaaW26caOwsPEQSAYxoziAAAAGByVDa1nCfpFkkzSCNF3Vx6NGoqzeGRngCOFSvoAAAAkyRaXLq7Ws0tkumHpJGmCbW/n3IOYDywgg4AADDJfLsaq/vyn3HZ+0mj3mfTdme0sPgmggBAQQcAAKhj8ab8Gz2wL8o55b1O7Q+T5DXWNfoYUQAYD5ziDgAAMEXCxSN3Vi1cKGmQNOqPm3+Qcg5gPLGCDgAAMNVFb7XCON96lcyvkpQjkbqwKlxYWmEmJwoAFHQAAICUKQ80d1kQ3CTpNNKoaaWqVec1LRx7mCgAjCdOcQcAAKgRDV2jA2FQmi/pOomV2Vrlsj+nnAOYCKygAwAA1KB4MP86d/s3SS8jjZqyJuwsnc2p7QAmAivoAAAANSjsHFkZVhvnynWdpIREasL+MFe9nHIOYKKwgg4AAFDjKve29UjJDZJOJ40pnDib/iDsLH2NJABMFFbQAQAAaly0sNAfFksLJLtWUplEJp9LX6ecA5horKADAADUkbEtja/IJbnrJF1AGpM2Y94VlsN51j28lzAAUNABAADwHPHm/EUKdJ27TiWNCZUoCFZEZxb/mygATDROcQcAAKhD4aKR7+Q0MlfStZJGSWSCmP8D5RzApB1yiAAAAKC++UDzy6o5+6ibrhALMONpc9g8stTmct0/AAo6AAAAjkB5S/5Mk31G7stJ45jti3PJguaOsV8QBQAKOgAAAI5KPJh/o0vXSJpLGkfFTboo7BxZSRQAKOgAAAA4tobpCqpbmn/XFVxr8tNI5Aiyk/9d1Dn6VyQBgIIOAACA8Subg4qqlr9cro9KOolEXtSGXGGkz/oUEwUACjoAAADGv6g/oIZkLH+5u/5S0mwSOaSncrGfaV2jjxEFAAo6AAAAJrao//LUd7O/Mel0EnlWxS1ZES0YW0sUACjoAAAAmNyivrX5zZJdKVdP5ifFrvfnOkf+lT0DAAUdAAAAU6Z8b74jCPReSZdJaspcAK6bws6Rd7AnAKCgAwAAoDZ66kDLCUmDLnf3D0ialZG3PZCbNnKWnaYD7AEAKOgAAACoraK+XY3VQstbzP1DLs1L8Vvdnct5p80f3cVWB0BBBwAAQE2r/LDlHHO9S/KLla7T38fc/OxowegP2MoAKOgAAACoGz44oz2xA29x02VS3d9UzmX2h2FH6atsWQAUdAAAANRvu93Senps1XeY7HJJJ9TdBNjsI7mO0ifYkgAo6AAAAEhHUR9UVM3lXyfXH0k6X1JDHbzsL4QLRq5g6wGgoAMAACCdZX3r9OlVHVgh10WSvVlSSw2+yjW5xtHzbK7KbDEAFHQAAACkv6wPKl+1/Dkyv6RWyrpLD4bW0GMdQ0NsIQAUdAAAAGSvrD80s606Unq9FFws+QpJx03By3g8p6TbFow9whYBQEEHAAAAZf1W5Sovz8/P5excd79I0hJJwQT/2v2J7KyGjtJ9bAEAFHQAAADgUIV9c8tLqpHOl+k8yc+S6yXj/CtGXP7aqGO0n7QBUNABAACAwy3sP2qaXY3VK1OPZOdJOuUY/rmKZG8KO0ZWkiwACjoAAABwLIV9a+NpVbclMlskabGkMyRFh/NXZX5ZOH/sZlIEQEEHAAAAxruwr1ZT3N7cEQQ6093nSTZf0mskNf/aBPfKXMfoZ0kMAAUdAAAAmKzSfqtyennjb1eD3CvN/FXuVgw7Rm4gGQAAAAAAAAAAAAAAAAAAAAAAAOCo/R8jzbLouiEphQAAAABJRU5ErkJggg==;" vertex="1" parent="8hDO8wCRMMMEZkLBjDl_-101">
          <mxGeometry x="552.8986842105263" y="343.1875" width="36.30789473684211" height="37.75394736842105" as="geometry" />
        </mxCell>
        <mxCell id="8hDO8wCRMMMEZkLBjDl_-72" value="Grafana" style="text;html=1;strokeColor=none;fillColor=none;align=center;verticalAlign=middle;whiteSpace=wrap;labelBackgroundColor=#FFFFFF;fontSize=10;fontColor=#000000;fontStyle=1;" vertex="1" parent="8hDO8wCRMMMEZkLBjDl_-101">
          <mxGeometry x="552.8986842105263" y="328.3125" width="36.84210526315789" height="21.25" as="geometry" />
        </mxCell>
        <mxCell id="8hDO8wCRMMMEZkLBjDl_-73" value="&lt;b style=&quot;font-size: 10px;&quot;&gt;API clients&lt;br style=&quot;font-size: 10px;&quot;&gt;&lt;/b&gt;" style="whiteSpace=wrap;html=1;labelBackgroundColor=#FFFFFF;labelBorderColor=#FFFFFF;fillColor=#FFFFFF;fontSize=10;" vertex="1" parent="8hDO8wCRMMMEZkLBjDl_-101">
          <mxGeometry x="543.421052631579" y="402.6875" width="55.26315789473684" height="63.75" as="geometry" />
        </mxCell>
        <mxCell id="8hDO8wCRMMMEZkLBjDl_-97" style="edgeStyle=orthogonalEdgeStyle;rounded=0;orthogonalLoop=1;jettySize=auto;html=1;entryX=1.008;entryY=0.698;entryDx=0;entryDy=0;entryPerimeter=0;dashed=1;" edge="1" parent="8hDO8wCRMMMEZkLBjDl_-101" source="8hDO8wCRMMMEZkLBjDl_-78" target="8hDO8wCRMMMEZkLBjDl_-9">
          <mxGeometry relative="1" as="geometry" />
        </mxCell>
        <mxCell id="8hDO8wCRMMMEZkLBjDl_-78" value="PromoQL" style="text;strokeColor=none;fillColor=none;html=1;fontSize=10;fontStyle=1;verticalAlign=middle;align=center;labelBackgroundColor=#FFFFFF;" vertex="1" parent="8hDO8wCRMMMEZkLBjDl_-101">
          <mxGeometry x="428.2894736842105" y="359.645625" width="46.05263157894737" height="10.625" as="geometry" />
        </mxCell>
        <mxCell id="8hDO8wCRMMMEZkLBjDl_-90" value="" style="endArrow=none;dashed=1;html=1;exitX=0.75;exitY=0;exitDx=0;exitDy=0;" edge="1" parent="8hDO8wCRMMMEZkLBjDl_-101" source="8hDO8wCRMMMEZkLBjDl_-78">
          <mxGeometry width="50" height="50" relative="1" as="geometry">
            <mxPoint x="488.1578947368421" y="292.1875" as="sourcePoint" />
            <mxPoint x="543.421052631579" y="292.1875" as="targetPoint" />
          </mxGeometry>
        </mxCell>
        <mxCell id="8hDO8wCRMMMEZkLBjDl_-91" value="" style="endArrow=none;dashed=1;html=1;exitX=1;exitY=0.5;exitDx=0;exitDy=0;" edge="1" parent="8hDO8wCRMMMEZkLBjDl_-101" source="8hDO8wCRMMMEZkLBjDl_-78">
          <mxGeometry width="50" height="50" relative="1" as="geometry">
            <mxPoint x="488.1578947368419" y="364.3312499999997" as="sourcePoint" />
            <mxPoint x="543.421052631579" y="364.3312499999997" as="targetPoint" />
          </mxGeometry>
        </mxCell>
        <mxCell id="8hDO8wCRMMMEZkLBjDl_-92" value="" style="endArrow=none;dashed=1;html=1;exitX=0.75;exitY=1;exitDx=0;exitDy=0;" edge="1" parent="8hDO8wCRMMMEZkLBjDl_-101" source="8hDO8wCRMMMEZkLBjDl_-78">
          <mxGeometry width="50" height="50" relative="1" as="geometry">
            <mxPoint x="488.1578947368419" y="440.3106249999994" as="sourcePoint" />
            <mxPoint x="543.421052631579" y="440.3106249999994" as="targetPoint" />
          </mxGeometry>
        </mxCell>
        <mxCell id="8hDO8wCRMMMEZkLBjDl_-98" value="&lt;font style=&quot;font-size: 12px;&quot;&gt;&lt;span style=&quot;font-size: 12px;&quot;&gt;Data&amp;nbsp;&lt;br style=&quot;font-size: 12px;&quot;&gt;visualization&lt;br style=&quot;font-size: 12px;&quot;&gt;and export&lt;br style=&quot;font-size: 12px;&quot;&gt;&lt;/span&gt;&lt;/font&gt;" style="text;strokeColor=none;fillColor=none;html=1;fontSize=12;fontStyle=1;verticalAlign=middle;align=center;labelBackgroundColor=#FFFFFF;" vertex="1" parent="8hDO8wCRMMMEZkLBjDl_-101">
          <mxGeometry x="607.8947368421052" y="343.1875" width="92.10526315789474" height="10.625" as="geometry" />
        </mxCell>
        <mxCell id="8hDO8wCRMMMEZkLBjDl_-99" value="&lt;span style=&quot;font-size: 12px;&quot;&gt;Prometheus&lt;br style=&quot;font-size: 12px;&quot;&gt;alerting&amp;nbsp;&lt;/span&gt;" style="text;strokeColor=none;fillColor=none;html=1;fontSize=12;fontStyle=1;verticalAlign=middle;align=center;labelBackgroundColor=#FFFFFF;" vertex="1" parent="8hDO8wCRMMMEZkLBjDl_-101">
          <mxGeometry x="391.4473684210526" y="4.25" width="92.10526315789474" height="10.625" as="geometry" />
        </mxCell>
      </root>
    </mxGraphModel>
  </diagram>
</mxfile>
